<?xml version="1.0" encoding="UTF-8" standalone="no"?>
<!DOCTYPE svg PUBLIC "-//W3C//DTD SVG 1.1//EN"
 "http://www.w3.org/Graphics/SVG/1.1/DTD/svg11.dtd">
<!-- Generated by graphviz version 9.0.0 (20230911.1827)
 -->
<!-- Pages: 1 -->
<svg width="206pt" height="395pt"
 viewBox="0.00 0.00 206.00 395.00" xmlns="http://www.w3.org/2000/svg" xmlns:xlink="http://www.w3.org/1999/xlink">
<g id="graph0" class="graph" transform="scale(1 1) rotate(0) translate(4 391)">
<polygon fill="white" stroke="none" points="-4,4 -4,-391 202,-391 202,4 -4,4"/>
<!-- B -->
<g id="node1" class="node">
<title>B</title>
<ellipse fill="none" stroke="black" cx="171" cy="-105.75" rx="27" ry="18"/>
<text text-anchor="middle" x="171" y="-100.33" font-family="Times New Roman,serif" font-size="14.00">B</text>
</g>
<!-- A -->
<g id="node2" class="node">
<title>A</title>
<ellipse fill="none" stroke="black" cx="135" cy="-18" rx="27" ry="18"/>
<text text-anchor="middle" x="135" y="-12.57" font-family="Times New Roman,serif" font-size="14.00">A</text>
</g>
<!-- B&#45;&#45;A -->
<g id="edge1" class="edge">
<title>B&#45;&#45;A</title>
<path fill="none" stroke="black" d="M164.06,-88.22C157.72,-73.13 148.41,-50.94 142.04,-35.78"/>
<text text-anchor="middle" x="163.75" y="-56.45" font-family="Times New Roman,serif" font-size="14.00">13</text>
</g>
<!-- C -->
<g id="node3" class="node">
<title>C</title>
<ellipse fill="none" stroke="black" cx="99" cy="-105.75" rx="27" ry="18"/>
<text text-anchor="middle" x="99" y="-100.33" font-family="Times New Roman,serif" font-size="14.00">C</text>
</g>
<!-- C&#45;&#45;A -->
<g id="edge2" class="edge">
<title>C&#45;&#45;A</title>
<path fill="none" stroke="black" d="M105.94,-88.22C112.28,-73.13 121.59,-50.94 127.96,-35.78"/>
<text text-anchor="middle" x="124.38" y="-56.45" font-family="Times New Roman,serif" font-size="14.00">6</text>
</g>
<!-- H -->
<g id="node4" class="node">
<title>H</title>
<ellipse fill="none" stroke="black" cx="27" cy="-193.5" rx="27" ry="18"/>
<text text-anchor="middle" x="27" y="-188.07" font-family="Times New Roman,serif" font-size="14.00">H</text>
</g>
<!-- H&#45;&#45;C -->
<g id="edge3" class="edge">
<title>H&#45;&#45;C</title>
<path fill="none" stroke="black" d="M39.87,-177.17C52.98,-161.56 73.17,-137.51 86.24,-121.95"/>
<text text-anchor="middle" x="76.75" y="-144.2" font-family="Times New Roman,serif" font-size="14.00">20</text>
</g>
<!-- D -->
<g id="node5" class="node">
<title>D</title>
<ellipse fill="none" stroke="black" cx="171" cy="-193.5" rx="27" ry="18"/>
<text text-anchor="middle" x="171" y="-188.07" font-family="Times New Roman,serif" font-size="14.00">D</text>
</g>
<!-- D&#45;&#45;B -->
<g id="edge4" class="edge">
<title>D&#45;&#45;B</title>
<path fill="none" stroke="black" d="M171,-175.15C171,-160.27 171,-138.95 171,-124.08"/>
<text text-anchor="middle" x="174.38" y="-144.2" font-family="Times New Roman,serif" font-size="14.00">1</text>
</g>
<!-- E -->
<g id="node6" class="node">
<title>E</title>
<ellipse fill="none" stroke="black" cx="99" cy="-193.5" rx="27" ry="18"/>
<text text-anchor="middle" x="99" y="-188.07" font-family="Times New Roman,serif" font-size="14.00">E</text>
</g>
<!-- E&#45;&#45;C -->
<g id="edge5" class="edge">
<title>E&#45;&#45;C</title>
<path fill="none" stroke="black" d="M99,-175.15C99,-160.27 99,-138.95 99,-124.08"/>
<text text-anchor="middle" x="102.38" y="-144.2" font-family="Times New Roman,serif" font-size="14.00">8</text>
</g>
<!-- F -->
<g id="node7" class="node">
<title>F</title>
<ellipse fill="none" stroke="black" cx="99" cy="-281.25" rx="27" ry="18"/>
<text text-anchor="middle" x="99" y="-275.82" font-family="Times New Roman,serif" font-size="14.00">F</text>
</g>
<!-- F&#45;&#45;E -->
<g id="edge6" class="edge">
<title>F&#45;&#45;E</title>
<path fill="none" stroke="black" d="M99,-262.9C99,-248.02 99,-226.7 99,-211.83"/>
<text text-anchor="middle" x="102.38" y="-231.95" font-family="Times New Roman,serif" font-size="14.00">2</text>
</g>
<!-- J -->
<g id="node8" class="node">
<title>J</title>
<ellipse fill="none" stroke="black" cx="171" cy="-281.25" rx="27" ry="18"/>
<text text-anchor="middle" x="171" y="-275.82" font-family="Times New Roman,serif" font-size="14.00">J</text>
</g>
<!-- J&#45;&#45;E -->
<g id="edge7" class="edge">
<title>J&#45;&#45;E</title>
<path fill="none" stroke="black" d="M158.13,-264.92C145.02,-249.31 124.83,-225.26 111.76,-209.7"/>
<text text-anchor="middle" x="148.75" y="-231.95" font-family="Times New Roman,serif" font-size="14.00">18</text>
</g>
<!-- G -->
<g id="node9" class="node">
<title>G</title>
<ellipse fill="none" stroke="black" cx="27" cy="-281.25" rx="27" ry="18"/>
<text text-anchor="middle" x="27" y="-275.82" font-family="Times New Roman,serif" font-size="14.00">G</text>
</g>
<!-- G&#45;&#45;H -->
<g id="edge8" class="edge">
<title>G&#45;&#45;H</title>
<path fill="none" stroke="black" d="M27,-262.9C27,-248.02 27,-226.7 27,-211.83"/>
<text text-anchor="middle" x="33.75" y="-231.95" font-family="Times New Roman,serif" font-size="14.00">15</text>
</g>
<!-- K -->
<g id="node10" class="node">
<title>K</title>
<ellipse fill="none" stroke="black" cx="99" cy="-369" rx="27" ry="18"/>
<text text-anchor="middle" x="99" y="-363.57" font-family="Times New Roman,serif" font-size="14.00">K</text>
</g>
<!-- K&#45;&#45;J -->
<g id="edge9" class="edge">
<title>K&#45;&#45;J</title>
<path fill="none" stroke="black" d="M111.87,-352.67C124.98,-337.06 145.17,-313.01 158.24,-297.45"/>
<text text-anchor="middle" x="148.75" y="-319.7" font-family="Times New Roman,serif" font-size="14.00">16</text>
</g>
<!-- L -->
<g id="node11" class="node">
<title>L</title>
<ellipse fill="none" stroke="black" cx="171" cy="-369" rx="27" ry="18"/>
<text text-anchor="middle" x="171" y="-363.57" font-family="Times New Roman,serif" font-size="14.00">L</text>
</g>
<!-- L&#45;&#45;J -->
<g id="edge10" class="edge">
<title>L&#45;&#45;J</title>
<path fill="none" stroke="black" d="M171,-350.65C171,-335.77 171,-314.45 171,-299.58"/>
<text text-anchor="middle" x="174.38" y="-319.7" font-family="Times New Roman,serif" font-size="14.00">4</text>
</g>
<!-- I -->
<g id="node12" class="node">
<title>I</title>
<ellipse fill="none" stroke="black" cx="27" cy="-369" rx="27" ry="18"/>
<text text-anchor="middle" x="27" y="-363.57" font-family="Times New Roman,serif" font-size="14.00">I</text>
</g>
<!-- I&#45;&#45;G -->
<g id="edge11" class="edge">
<title>I&#45;&#45;G</title>
<path fill="none" stroke="black" d="M27,-350.65C27,-335.77 27,-314.45 27,-299.58"/>
<text text-anchor="middle" x="30.38" y="-319.7" font-family="Times New Roman,serif" font-size="14.00">5</text>
</g>
</g>
</svg>
