<?xml version="1.0" encoding="UTF-8" standalone="no"?>
<!DOCTYPE svg PUBLIC "-//W3C//DTD SVG 1.1//EN"
 "http://www.w3.org/Graphics/SVG/1.1/DTD/svg11.dtd">
<!-- Generated by graphviz version 9.0.0 (20230911.1827)
 -->
<!-- Pages: 1 -->
<svg width="314pt" height="395pt"
 viewBox="0.00 0.00 314.00 395.00" xmlns="http://www.w3.org/2000/svg" xmlns:xlink="http://www.w3.org/1999/xlink">
<g id="graph0" class="graph" transform="scale(1 1) rotate(0) translate(4 391)">
<polygon fill="white" stroke="none" points="-4,4 -4,-391 310,-391 310,4 -4,4"/>
<!-- C -->
<g id="node1" class="node">
<title>C</title>
<ellipse fill="none" stroke="black" cx="99" cy="-105.75" rx="27" ry="18"/>
<text text-anchor="middle" x="99" y="-100.33" font-family="Times New Roman,serif" font-size="14.00">C</text>
</g>
<!-- A -->
<g id="node2" class="node">
<title>A</title>
<ellipse fill="none" stroke="black" cx="62" cy="-18" rx="27" ry="18"/>
<text text-anchor="middle" x="62" y="-12.57" font-family="Times New Roman,serif" font-size="14.00">A</text>
</g>
<!-- C&#45;&#45;A -->
<g id="edge1" class="edge">
<title>C&#45;&#45;A</title>
<path fill="none" stroke="black" d="M91.87,-88.22C85.36,-73.13 75.78,-50.94 69.24,-35.78"/>
<text text-anchor="middle" x="87.38" y="-56.45" font-family="Times New Roman,serif" font-size="14.00">6</text>
</g>
<!-- B -->
<g id="node3" class="node">
<title>B</title>
<ellipse fill="none" stroke="black" cx="27" cy="-105.75" rx="27" ry="18"/>
<text text-anchor="middle" x="27" y="-100.33" font-family="Times New Roman,serif" font-size="14.00">B</text>
</g>
<!-- B&#45;&#45;A -->
<g id="edge2" class="edge">
<title>B&#45;&#45;A</title>
<path fill="none" stroke="black" d="M33.75,-88.22C39.91,-73.13 48.96,-50.94 55.15,-35.78"/>
<text text-anchor="middle" x="54.75" y="-56.45" font-family="Times New Roman,serif" font-size="14.00">13</text>
</g>
<!-- H -->
<g id="node4" class="node">
<title>H</title>
<ellipse fill="none" stroke="black" cx="99" cy="-193.5" rx="27" ry="18"/>
<text text-anchor="middle" x="99" y="-188.07" font-family="Times New Roman,serif" font-size="14.00">H</text>
</g>
<!-- H&#45;&#45;C -->
<g id="edge3" class="edge">
<title>H&#45;&#45;C</title>
<path fill="none" stroke="black" d="M99,-175.15C99,-160.27 99,-138.95 99,-124.08"/>
<text text-anchor="middle" x="105.75" y="-144.2" font-family="Times New Roman,serif" font-size="14.00">20</text>
</g>
<!-- D -->
<g id="node5" class="node">
<title>D</title>
<ellipse fill="none" stroke="black" cx="27" cy="-193.5" rx="27" ry="18"/>
<text text-anchor="middle" x="27" y="-188.07" font-family="Times New Roman,serif" font-size="14.00">D</text>
</g>
<!-- D&#45;&#45;B -->
<g id="edge4" class="edge">
<title>D&#45;&#45;B</title>
<path fill="none" stroke="black" d="M27,-175.15C27,-160.27 27,-138.95 27,-124.08"/>
<text text-anchor="middle" x="30.38" y="-144.2" font-family="Times New Roman,serif" font-size="14.00">1</text>
</g>
<!-- E -->
<g id="node6" class="node">
<title>E</title>
<ellipse fill="none" stroke="black" cx="171" cy="-193.5" rx="27" ry="18"/>
<text text-anchor="middle" x="171" y="-188.07" font-family="Times New Roman,serif" font-size="14.00">E</text>
</g>
<!-- E&#45;&#45;C -->
<g id="edge5" class="edge">
<title>E&#45;&#45;C</title>
<path fill="none" stroke="black" d="M158.13,-177.17C145.02,-161.56 124.83,-137.51 111.76,-121.95"/>
<text text-anchor="middle" x="145.38" y="-144.2" font-family="Times New Roman,serif" font-size="14.00">8</text>
</g>
<!-- F -->
<g id="node7" class="node">
<title>F</title>
<ellipse fill="none" stroke="black" cx="171" cy="-281.25" rx="27" ry="18"/>
<text text-anchor="middle" x="171" y="-275.82" font-family="Times New Roman,serif" font-size="14.00">F</text>
</g>
<!-- F&#45;&#45;E -->
<g id="edge6" class="edge">
<title>F&#45;&#45;E</title>
<path fill="none" stroke="black" d="M171,-262.9C171,-248.02 171,-226.7 171,-211.83"/>
<text text-anchor="middle" x="174.38" y="-231.95" font-family="Times New Roman,serif" font-size="14.00">2</text>
</g>
<!-- J -->
<g id="node8" class="node">
<title>J</title>
<ellipse fill="none" stroke="black" cx="243" cy="-281.25" rx="27" ry="18"/>
<text text-anchor="middle" x="243" y="-275.82" font-family="Times New Roman,serif" font-size="14.00">J</text>
</g>
<!-- J&#45;&#45;E -->
<g id="edge7" class="edge">
<title>J&#45;&#45;E</title>
<path fill="none" stroke="black" d="M230.13,-264.92C217.02,-249.31 196.83,-225.26 183.76,-209.7"/>
<text text-anchor="middle" x="220.75" y="-231.95" font-family="Times New Roman,serif" font-size="14.00">18</text>
</g>
<!-- G -->
<g id="node9" class="node">
<title>G</title>
<ellipse fill="none" stroke="black" cx="99" cy="-281.25" rx="27" ry="18"/>
<text text-anchor="middle" x="99" y="-275.82" font-family="Times New Roman,serif" font-size="14.00">G</text>
</g>
<!-- G&#45;&#45;H -->
<g id="edge8" class="edge">
<title>G&#45;&#45;H</title>
<path fill="none" stroke="black" d="M99,-262.9C99,-248.02 99,-226.7 99,-211.83"/>
<text text-anchor="middle" x="105.75" y="-231.95" font-family="Times New Roman,serif" font-size="14.00">15</text>
</g>
<!-- L -->
<g id="node10" class="node">
<title>L</title>
<ellipse fill="none" stroke="black" cx="207" cy="-369" rx="27" ry="18"/>
<text text-anchor="middle" x="207" y="-363.57" font-family="Times New Roman,serif" font-size="14.00">L</text>
</g>
<!-- L&#45;&#45;J -->
<g id="edge9" class="edge">
<title>L&#45;&#45;J</title>
<path fill="none" stroke="black" d="M213.94,-351.47C220.28,-336.38 229.59,-314.19 235.96,-299.03"/>
<text text-anchor="middle" x="232.38" y="-319.7" font-family="Times New Roman,serif" font-size="14.00">4</text>
</g>
<!-- K -->
<g id="node11" class="node">
<title>K</title>
<ellipse fill="none" stroke="black" cx="279" cy="-369" rx="27" ry="18"/>
<text text-anchor="middle" x="279" y="-363.57" font-family="Times New Roman,serif" font-size="14.00">K</text>
</g>
<!-- K&#45;&#45;J -->
<g id="edge10" class="edge">
<title>K&#45;&#45;J</title>
<path fill="none" stroke="black" d="M272.06,-351.47C265.72,-336.38 256.41,-314.19 250.04,-299.03"/>
<text text-anchor="middle" x="271.75" y="-319.7" font-family="Times New Roman,serif" font-size="14.00">16</text>
</g>
<!-- I -->
<g id="node12" class="node">
<title>I</title>
<ellipse fill="none" stroke="black" cx="99" cy="-369" rx="27" ry="18"/>
<text text-anchor="middle" x="99" y="-363.57" font-family="Times New Roman,serif" font-size="14.00">I</text>
</g>
<!-- I&#45;&#45;G -->
<g id="edge11" class="edge">
<title>I&#45;&#45;G</title>
<path fill="none" stroke="black" d="M99,-350.65C99,-335.77 99,-314.45 99,-299.58"/>
<text text-anchor="middle" x="102.38" y="-319.7" font-family="Times New Roman,serif" font-size="14.00">5</text>
</g>
</g>
</svg>
