<?xml version="1.0" encoding="UTF-8" standalone="no"?>
<!DOCTYPE svg PUBLIC "-//W3C//DTD SVG 1.1//EN"
 "http://www.w3.org/Graphics/SVG/1.1/DTD/svg11.dtd">
<!-- Generated by graphviz version 9.0.0 (20230911.1827)
 -->
<!-- Pages: 1 -->
<svg width="458pt" height="395pt"
 viewBox="0.00 0.00 458.00 395.00" xmlns="http://www.w3.org/2000/svg" xmlns:xlink="http://www.w3.org/1999/xlink">
<g id="graph0" class="graph" transform="scale(1 1) rotate(0) translate(4 391)">
<polygon fill="white" stroke="none" points="-4,4 -4,-391 454,-391 454,4 -4,4"/>
<!-- E -->
<g id="node1" class="node">
<title>E</title>
<ellipse fill="none" stroke="black" cx="145" cy="-369" rx="27" ry="18"/>
<text text-anchor="middle" x="145" y="-363.57" font-family="Times New Roman,serif" font-size="14.00">E</text>
</g>
<!-- D -->
<g id="node2" class="node">
<title>D</title>
<ellipse fill="none" stroke="black" cx="27" cy="-193.5" rx="27" ry="18"/>
<text text-anchor="middle" x="27" y="-188.07" font-family="Times New Roman,serif" font-size="14.00">D</text>
</g>
<!-- E&#45;&#45;D -->
<g id="edge1" class="edge">
<title>E&#45;&#45;D</title>
<path fill="none" stroke="black" d="M136.95,-351.43C126.38,-330.26 106.72,-292.82 86,-263.25 72.1,-243.41 53.57,-222.56 41.02,-209.1"/>
<text text-anchor="middle" x="112.38" y="-275.82" font-family="Times New Roman,serif" font-size="14.00">9</text>
</g>
<!-- C -->
<g id="node3" class="node">
<title>C</title>
<ellipse fill="none" stroke="black" cx="127" cy="-18" rx="27" ry="18"/>
<text text-anchor="middle" x="127" y="-12.57" font-family="Times New Roman,serif" font-size="14.00">C</text>
</g>
<!-- E&#45;&#45;C -->
<g id="edge2" class="edge">
<title>E&#45;&#45;C</title>
<path fill="none" stroke="black" d="M150.38,-351.11C155.36,-333.96 162,-306.53 162,-282.25 162,-282.25 162,-282.25 162,-104.75 162,-78.86 148.16,-51.62 137.88,-34.97"/>
<text text-anchor="middle" x="165.38" y="-188.07" font-family="Times New Roman,serif" font-size="14.00">8</text>
</g>
<!-- J -->
<g id="node4" class="node">
<title>J</title>
<ellipse fill="none" stroke="black" cx="382" cy="-281.25" rx="27" ry="18"/>
<text text-anchor="middle" x="382" y="-275.82" font-family="Times New Roman,serif" font-size="14.00">J</text>
</g>
<!-- E&#45;&#45;J -->
<g id="edge3" class="edge">
<title>E&#45;&#45;J</title>
<path fill="none" stroke="black" d="M168.99,-360.06C206.09,-347.69 279.53,-322.75 341,-299.25 347.05,-296.94 353.54,-294.31 359.53,-291.83"/>
<text text-anchor="middle" x="293.75" y="-319.7" font-family="Times New Roman,serif" font-size="14.00">18</text>
</g>
<!-- F -->
<g id="node5" class="node">
<title>F</title>
<ellipse fill="none" stroke="black" cx="50" cy="-281.25" rx="27" ry="18"/>
<text text-anchor="middle" x="50" y="-275.82" font-family="Times New Roman,serif" font-size="14.00">F</text>
</g>
<!-- E&#45;&#45;F -->
<g id="edge4" class="edge">
<title>E&#45;&#45;F</title>
<path fill="none" stroke="black" d="M127.62,-354.78C119.45,-348.39 109.68,-340.5 101.25,-333 88.16,-321.34 74.06,-307.26 63.97,-296.89"/>
<text text-anchor="middle" x="105.38" y="-319.7" font-family="Times New Roman,serif" font-size="14.00">2</text>
</g>
<!-- D&#45;&#45;C -->
<g id="edge15" class="edge">
<title>D&#45;&#45;C</title>
<path fill="none" stroke="black" d="M19.33,-176.07C10.42,-154.39 -1.18,-115.7 14.5,-87.75 33.2,-54.41 75.38,-35.31 102.44,-26.06"/>
<text text-anchor="middle" x="21.75" y="-100.33" font-family="Times New Roman,serif" font-size="14.00">14</text>
</g>
<!-- B -->
<g id="node11" class="node">
<title>B</title>
<ellipse fill="none" stroke="black" cx="64" cy="-105.75" rx="27" ry="18"/>
<text text-anchor="middle" x="64" y="-100.33" font-family="Times New Roman,serif" font-size="14.00">B</text>
</g>
<!-- D&#45;&#45;B -->
<g id="edge16" class="edge">
<title>D&#45;&#45;B</title>
<path fill="none" stroke="black" d="M34.13,-175.97C40.64,-160.88 50.22,-138.69 56.76,-123.53"/>
<text text-anchor="middle" x="52.38" y="-144.2" font-family="Times New Roman,serif" font-size="14.00">1</text>
</g>
<!-- G -->
<g id="node7" class="node">
<title>G</title>
<ellipse fill="none" stroke="black" cx="323" cy="-193.5" rx="27" ry="18"/>
<text text-anchor="middle" x="323" y="-188.07" font-family="Times New Roman,serif" font-size="14.00">G</text>
</g>
<!-- J&#45;&#45;G -->
<g id="edge17" class="edge">
<title>J&#45;&#45;G</title>
<path fill="none" stroke="black" d="M371.18,-264.52C360.6,-249.15 344.58,-225.86 333.95,-210.42"/>
<text text-anchor="middle" x="363.75" y="-231.95" font-family="Times New Roman,serif" font-size="14.00">19</text>
</g>
<!-- K -->
<g id="node8" class="node">
<title>K</title>
<ellipse fill="none" stroke="black" cx="363" cy="-105.75" rx="27" ry="18"/>
<text text-anchor="middle" x="363" y="-100.33" font-family="Times New Roman,serif" font-size="14.00">K</text>
</g>
<!-- J&#45;&#45;K -->
<g id="edge18" class="edge">
<title>J&#45;&#45;K</title>
<path fill="none" stroke="black" d="M380.11,-262.98C376.47,-229.72 368.52,-157.15 364.88,-123.95"/>
<text text-anchor="middle" x="380.75" y="-188.07" font-family="Times New Roman,serif" font-size="14.00">16</text>
</g>
<!-- F&#45;&#45;D -->
<g id="edge14" class="edge">
<title>F&#45;&#45;D</title>
<path fill="none" stroke="black" d="M45.46,-263.31C41.45,-248.37 35.64,-226.71 31.61,-211.7"/>
<text text-anchor="middle" x="44.38" y="-231.95" font-family="Times New Roman,serif" font-size="14.00">3</text>
</g>
<!-- I -->
<g id="node6" class="node">
<title>I</title>
<ellipse fill="none" stroke="black" cx="260" cy="-281.25" rx="27" ry="18"/>
<text text-anchor="middle" x="260" y="-275.82" font-family="Times New Roman,serif" font-size="14.00">I</text>
</g>
<!-- I&#45;&#45;G -->
<g id="edge5" class="edge">
<title>I&#45;&#45;G</title>
<path fill="none" stroke="black" d="M271.56,-264.52C282.92,-249.05 300.18,-225.57 311.52,-210.13"/>
<text text-anchor="middle" x="300.38" y="-231.95" font-family="Times New Roman,serif" font-size="14.00">5</text>
</g>
<!-- I&#45;&#45;K -->
<g id="edge6" class="edge">
<title>I&#45;&#45;K</title>
<path fill="none" stroke="black" d="M258.35,-263.03C257.08,-241.17 257.68,-203 273.5,-175.5 289.13,-148.33 320.18,-128.26 341.28,-117.04"/>
<text text-anchor="middle" x="279.75" y="-188.07" font-family="Times New Roman,serif" font-size="14.00">11</text>
</g>
<!-- G&#45;&#45;K -->
<g id="edge20" class="edge">
<title>G&#45;&#45;K</title>
<path fill="none" stroke="black" d="M330.71,-175.97C337.8,-160.78 348.24,-138.4 355.31,-123.23"/>
<text text-anchor="middle" x="352.75" y="-144.2" font-family="Times New Roman,serif" font-size="14.00">10</text>
</g>
<!-- L -->
<g id="node9" class="node">
<title>L</title>
<ellipse fill="none" stroke="black" cx="423" cy="-369" rx="27" ry="18"/>
<text text-anchor="middle" x="423" y="-363.57" font-family="Times New Roman,serif" font-size="14.00">L</text>
</g>
<!-- L&#45;&#45;J -->
<g id="edge8" class="edge">
<title>L&#45;&#45;J</title>
<path fill="none" stroke="black" d="M415.09,-351.47C407.83,-336.28 397.13,-313.9 389.88,-298.73"/>
<text text-anchor="middle" x="409.38" y="-319.7" font-family="Times New Roman,serif" font-size="14.00">4</text>
</g>
<!-- L&#45;&#45;K -->
<g id="edge7" class="edge">
<title>L&#45;&#45;K</title>
<path fill="none" stroke="black" d="M423.44,-350.81C423.68,-329.95 423.17,-293.77 418,-263.25 411.2,-223.15 404.08,-214.34 392,-175.5 387.31,-160.44 387.07,-156.31 381,-141.75 378.37,-135.44 375.05,-128.72 371.98,-122.87"/>
<text text-anchor="middle" x="420.75" y="-231.95" font-family="Times New Roman,serif" font-size="14.00">12</text>
</g>
<!-- A -->
<g id="node10" class="node">
<title>A</title>
<ellipse fill="none" stroke="black" cx="99" cy="-193.5" rx="27" ry="18"/>
<text text-anchor="middle" x="99" y="-188.07" font-family="Times New Roman,serif" font-size="14.00">A</text>
</g>
<!-- A&#45;&#45;C -->
<g id="edge9" class="edge">
<title>A&#45;&#45;C</title>
<path fill="none" stroke="black" d="M101.79,-175.23C107.15,-141.97 118.87,-69.4 124.22,-36.2"/>
<text text-anchor="middle" x="119.38" y="-100.33" font-family="Times New Roman,serif" font-size="14.00">6</text>
</g>
<!-- A&#45;&#45;B -->
<g id="edge10" class="edge">
<title>A&#45;&#45;B</title>
<path fill="none" stroke="black" d="M92.25,-175.97C86.09,-160.88 77.04,-138.69 70.85,-123.53"/>
<text text-anchor="middle" x="91.75" y="-144.2" font-family="Times New Roman,serif" font-size="14.00">13</text>
</g>
<!-- B&#45;&#45;C -->
<g id="edge19" class="edge">
<title>B&#45;&#45;C</title>
<path fill="none" stroke="black" d="M75.56,-89.02C86.92,-73.55 104.18,-50.07 115.52,-34.63"/>
<text text-anchor="middle" x="105.38" y="-56.45" font-family="Times New Roman,serif" font-size="14.00">7</text>
</g>
<!-- H -->
<g id="node12" class="node">
<title>H</title>
<ellipse fill="none" stroke="black" cx="323" cy="-369" rx="27" ry="18"/>
<text text-anchor="middle" x="323" y="-363.57" font-family="Times New Roman,serif" font-size="14.00">H</text>
</g>
<!-- H&#45;&#45;C -->
<g id="edge12" class="edge">
<title>H&#45;&#45;C</title>
<path fill="none" stroke="black" d="M297.69,-361.78C263.01,-351.58 205,-327.71 205,-282.25 205,-282.25 205,-282.25 205,-104.75 205,-70.54 170.6,-43.95 147.49,-29.95"/>
<text text-anchor="middle" x="211.75" y="-188.07" font-family="Times New Roman,serif" font-size="14.00">20</text>
</g>
<!-- H&#45;&#45;J -->
<g id="edge13" class="edge">
<title>H&#45;&#45;J</title>
<path fill="none" stroke="black" d="M333.82,-352.27C344.4,-336.9 360.42,-313.61 371.05,-298.17"/>
<text text-anchor="middle" x="363.75" y="-319.7" font-family="Times New Roman,serif" font-size="14.00">17</text>
</g>
<!-- H&#45;&#45;G -->
<g id="edge11" class="edge">
<title>H&#45;&#45;G</title>
<path fill="none" stroke="black" d="M323,-350.73C323,-317.56 323,-245.28 323,-211.96"/>
<text text-anchor="middle" x="329.75" y="-275.82" font-family="Times New Roman,serif" font-size="14.00">15</text>
</g>
</g>
</svg>
