<?xml version="1.0" encoding="UTF-8" standalone="no"?>
<!DOCTYPE svg PUBLIC "-//W3C//DTD SVG 1.1//EN"
 "http://www.w3.org/Graphics/SVG/1.1/DTD/svg11.dtd">
<!-- Generated by graphviz version 9.0.0 (20230911.1827)
 -->
<!-- Pages: 1 -->
<svg width="434pt" height="503pt"
 viewBox="0.00 0.00 433.50 503.00" xmlns="http://www.w3.org/2000/svg" xmlns:xlink="http://www.w3.org/1999/xlink">
<g id="graph0" class="graph" transform="scale(1 1) rotate(0) translate(4 499)">
<polygon fill="white" stroke="none" points="-4,4 -4,-499 429.5,-499 429.5,4 -4,4"/>
<!-- E -->
<g id="node1" class="node">
<title>E</title>
<ellipse fill="none" stroke="black" cx="236" cy="-389.25" rx="27" ry="18"/>
<text text-anchor="middle" x="236" y="-383.82" font-family="Times New Roman,serif" font-size="14.00">E</text>
</g>
<!-- J -->
<g id="node2" class="node">
<title>J</title>
<ellipse fill="none" stroke="black" cx="127" cy="-301.5" rx="27" ry="18"/>
<text text-anchor="middle" x="127" y="-296.07" font-family="Times New Roman,serif" font-size="14.00">J</text>
</g>
<!-- E&#45;&#45;J -->
<g id="edge1" class="edge">
<title>E&#45;&#45;J</title>
<path fill="none" stroke="black" d="M217.8,-375.59C208.6,-369.07 197.33,-360.9 187.5,-353.25 172.03,-341.21 154.97,-326.78 142.92,-316.4"/>
<text text-anchor="middle" x="194.75" y="-339.95" font-family="Times New Roman,serif" font-size="14.00">18</text>
</g>
<!-- F -->
<g id="node3" class="node">
<title>F</title>
<ellipse fill="none" stroke="black" cx="257" cy="-247.5" rx="27" ry="18"/>
<text text-anchor="middle" x="257" y="-242.07" font-family="Times New Roman,serif" font-size="14.00">F</text>
</g>
<!-- E&#45;&#45;F -->
<g id="edge2" class="edge">
<title>E&#45;&#45;F</title>
<path fill="none" stroke="black" d="M238.58,-371.11C242.61,-344.29 250.36,-292.68 254.4,-265.78"/>
<text text-anchor="middle" x="247.38" y="-339.95" font-family="Times New Roman,serif" font-size="14.00">2</text>
</g>
<!-- C -->
<g id="node4" class="node">
<title>C</title>
<ellipse fill="none" stroke="black" cx="336" cy="-301.5" rx="27" ry="18"/>
<text text-anchor="middle" x="336" y="-296.07" font-family="Times New Roman,serif" font-size="14.00">C</text>
</g>
<!-- E&#45;&#45;C -->
<g id="edge3" class="edge">
<title>E&#45;&#45;C</title>
<path fill="none" stroke="black" d="M252.07,-374.47C270.73,-358.47 301.33,-332.23 319.97,-316.24"/>
<text text-anchor="middle" x="298.38" y="-339.95" font-family="Times New Roman,serif" font-size="14.00">8</text>
</g>
<!-- D -->
<g id="node5" class="node">
<title>D</title>
<ellipse fill="none" stroke="black" cx="289" cy="-18" rx="27" ry="18"/>
<text text-anchor="middle" x="289" y="-12.57" font-family="Times New Roman,serif" font-size="14.00">D</text>
</g>
<!-- E&#45;&#45;D -->
<g id="edge4" class="edge">
<title>E&#45;&#45;D</title>
<path fill="none" stroke="black" d="M229.36,-371.46C223.2,-354.39 215,-327.02 215,-302.5 215,-302.5 215,-302.5 215,-104.75 215,-71.52 247.25,-44.79 269.17,-30.47"/>
<text text-anchor="middle" x="218.38" y="-188.07" font-family="Times New Roman,serif" font-size="14.00">9</text>
</g>
<!-- G -->
<g id="node7" class="node">
<title>G</title>
<ellipse fill="none" stroke="black" cx="70" cy="-105.75" rx="27" ry="18"/>
<text text-anchor="middle" x="70" y="-100.33" font-family="Times New Roman,serif" font-size="14.00">G</text>
</g>
<!-- J&#45;&#45;G -->
<g id="edge16" class="edge">
<title>J&#45;&#45;G</title>
<path fill="none" stroke="black" d="M122.04,-283.64C111.26,-247 85.79,-160.44 74.99,-123.7"/>
<text text-anchor="middle" x="107.75" y="-188.07" font-family="Times New Roman,serif" font-size="14.00">19</text>
</g>
<!-- H -->
<g id="node11" class="node">
<title>H</title>
<ellipse fill="none" stroke="black" cx="152" cy="-193.5" rx="27" ry="18"/>
<text text-anchor="middle" x="152" y="-188.07" font-family="Times New Roman,serif" font-size="14.00">H</text>
</g>
<!-- J&#45;&#45;H -->
<g id="edge15" class="edge">
<title>J&#45;&#45;H</title>
<path fill="none" stroke="black" d="M131.02,-283.47C135.68,-263.69 143.33,-231.25 147.99,-211.49"/>
<text text-anchor="middle" x="150.75" y="-242.07" font-family="Times New Roman,serif" font-size="14.00">17</text>
</g>
<!-- F&#45;&#45;D -->
<g id="edge19" class="edge">
<title>F&#45;&#45;D</title>
<path fill="none" stroke="black" d="M259.41,-229.4C265.34,-187.24 280.61,-78.67 286.57,-36.3"/>
<text text-anchor="middle" x="275.38" y="-144.2" font-family="Times New Roman,serif" font-size="14.00">3</text>
</g>
<!-- C&#45;&#45;D -->
<g id="edge14" class="edge">
<title>C&#45;&#45;D</title>
<path fill="none" stroke="black" d="M353.53,-287.36C361.38,-281.12 370.52,-273.32 378,-265.5 408.37,-233.72 430.62,-217.89 419,-175.5 401.26,-110.78 338.24,-55.92 306.93,-31.94"/>
<text text-anchor="middle" x="418.75" y="-144.2" font-family="Times New Roman,serif" font-size="14.00">14</text>
</g>
<!-- A -->
<g id="node10" class="node">
<title>A</title>
<ellipse fill="none" stroke="black" cx="383" cy="-193.5" rx="27" ry="18"/>
<text text-anchor="middle" x="383" y="-188.07" font-family="Times New Roman,serif" font-size="14.00">A</text>
</g>
<!-- C&#45;&#45;A -->
<g id="edge11" class="edge">
<title>C&#45;&#45;A</title>
<path fill="none" stroke="black" d="M343.34,-283.94C352.12,-264.14 366.73,-231.2 375.55,-211.3"/>
<text text-anchor="middle" x="370.38" y="-242.07" font-family="Times New Roman,serif" font-size="14.00">6</text>
</g>
<!-- C&#45;&#45;H -->
<g id="edge12" class="edge">
<title>C&#45;&#45;H</title>
<path fill="none" stroke="black" d="M323.66,-285.39C318.81,-279.3 313.27,-272.16 308.5,-265.5 297.36,-249.97 300.85,-240.18 285,-229.5 250.45,-206.22 232.89,-223.54 193,-211.5 186.66,-209.59 179.95,-207.04 173.83,-204.5"/>
<text text-anchor="middle" x="315.75" y="-242.07" font-family="Times New Roman,serif" font-size="14.00">20</text>
</g>
<!-- B -->
<g id="node12" class="node">
<title>B</title>
<ellipse fill="none" stroke="black" cx="331" cy="-105.75" rx="27" ry="18"/>
<text text-anchor="middle" x="331" y="-100.33" font-family="Times New Roman,serif" font-size="14.00">B</text>
</g>
<!-- C&#45;&#45;B -->
<g id="edge13" class="edge">
<title>C&#45;&#45;B</title>
<path fill="none" stroke="black" d="M335.56,-283.31C334.61,-246.63 332.4,-161.07 331.45,-124.18"/>
<text text-anchor="middle" x="337.38" y="-188.07" font-family="Times New Roman,serif" font-size="14.00">7</text>
</g>
<!-- I -->
<g id="node6" class="node">
<title>I</title>
<ellipse fill="none" stroke="black" cx="27" cy="-477" rx="27" ry="18"/>
<text text-anchor="middle" x="27" y="-471.57" font-family="Times New Roman,serif" font-size="14.00">I</text>
</g>
<!-- I&#45;&#45;G -->
<g id="edge5" class="edge">
<title>I&#45;&#45;G</title>
<path fill="none" stroke="black" d="M21.3,-459.14C16.03,-442 9,-414.59 9,-390.25 9,-390.25 9,-390.25 9,-192.5 9,-162.17 34.65,-135.12 52.68,-119.85"/>
<text text-anchor="middle" x="12.38" y="-296.07" font-family="Times New Roman,serif" font-size="14.00">5</text>
</g>
<!-- K -->
<g id="node8" class="node">
<title>K</title>
<ellipse fill="none" stroke="black" cx="64" cy="-389.25" rx="27" ry="18"/>
<text text-anchor="middle" x="64" y="-383.82" font-family="Times New Roman,serif" font-size="14.00">K</text>
</g>
<!-- I&#45;&#45;K -->
<g id="edge6" class="edge">
<title>I&#45;&#45;K</title>
<path fill="none" stroke="black" d="M34.13,-459.47C40.64,-444.38 50.22,-422.19 56.76,-407.03"/>
<text text-anchor="middle" x="55.75" y="-427.7" font-family="Times New Roman,serif" font-size="14.00">11</text>
</g>
<!-- K&#45;&#45;J -->
<g id="edge9" class="edge">
<title>K&#45;&#45;J</title>
<path fill="none" stroke="black" d="M74.65,-372.54C81.59,-362.43 90.92,-349.07 99.5,-337.5 104.38,-330.92 109.93,-323.79 114.77,-317.69"/>
<text text-anchor="middle" x="106.75" y="-339.95" font-family="Times New Roman,serif" font-size="14.00">16</text>
</g>
<!-- K&#45;&#45;G -->
<g id="edge10" class="edge">
<title>K&#45;&#45;G</title>
<path fill="none" stroke="black" d="M64.37,-371.06C65.44,-320.81 68.56,-174.49 69.63,-124.07"/>
<text text-anchor="middle" x="74.75" y="-242.07" font-family="Times New Roman,serif" font-size="14.00">10</text>
</g>
<!-- L -->
<g id="node9" class="node">
<title>L</title>
<ellipse fill="none" stroke="black" cx="107" cy="-477" rx="27" ry="18"/>
<text text-anchor="middle" x="107" y="-471.57" font-family="Times New Roman,serif" font-size="14.00">L</text>
</g>
<!-- L&#45;&#45;J -->
<g id="edge7" class="edge">
<title>L&#45;&#45;J</title>
<path fill="none" stroke="black" d="M108.99,-458.73C112.82,-425.47 121.19,-352.9 125.02,-319.7"/>
<text text-anchor="middle" x="122.38" y="-383.82" font-family="Times New Roman,serif" font-size="14.00">4</text>
</g>
<!-- L&#45;&#45;K -->
<g id="edge8" class="edge">
<title>L&#45;&#45;K</title>
<path fill="none" stroke="black" d="M98.71,-459.47C91.09,-444.28 79.87,-421.9 72.27,-406.73"/>
<text text-anchor="middle" x="96.75" y="-427.7" font-family="Times New Roman,serif" font-size="14.00">12</text>
</g>
<!-- A&#45;&#45;B -->
<g id="edge17" class="edge">
<title>A&#45;&#45;B</title>
<path fill="none" stroke="black" d="M373.22,-176.37C363.92,-161.04 350.02,-138.11 340.74,-122.81"/>
<text text-anchor="middle" x="368.75" y="-144.2" font-family="Times New Roman,serif" font-size="14.00">13</text>
</g>
<!-- H&#45;&#45;G -->
<g id="edge18" class="edge">
<title>H&#45;&#45;G</title>
<path fill="none" stroke="black" d="M139.34,-177.53C130.5,-167.26 118.3,-153.42 107,-141.75 100.11,-134.64 92.17,-127.05 85.41,-120.76"/>
<text text-anchor="middle" x="127.75" y="-144.2" font-family="Times New Roman,serif" font-size="14.00">15</text>
</g>
<!-- B&#45;&#45;D -->
<g id="edge20" class="edge">
<title>B&#45;&#45;D</title>
<path fill="none" stroke="black" d="M322.9,-88.22C315.46,-73.03 304.5,-50.65 297.07,-35.48"/>
<text text-anchor="middle" x="317.38" y="-56.45" font-family="Times New Roman,serif" font-size="14.00">1</text>
</g>
</g>
</svg>
