<?xml version="1.0" encoding="UTF-8" standalone="no"?>
<!DOCTYPE svg PUBLIC "-//W3C//DTD SVG 1.1//EN"
 "http://www.w3.org/Graphics/SVG/1.1/DTD/svg11.dtd">
<!-- Generated by graphviz version 9.0.0 (20230911.1827)
 -->
<!-- Pages: 1 -->
<svg width="464pt" height="395pt"
 viewBox="0.00 0.00 463.85 395.00" xmlns="http://www.w3.org/2000/svg" xmlns:xlink="http://www.w3.org/1999/xlink">
<g id="graph0" class="graph" transform="scale(1 1) rotate(0) translate(4 391)">
<polygon fill="white" stroke="none" points="-4,4 -4,-391 459.85,-391 459.85,4 -4,4"/>
<!-- J -->
<g id="node1" class="node">
<title>J</title>
<ellipse fill="none" stroke="black" cx="126.85" cy="-281.25" rx="27" ry="18"/>
<text text-anchor="middle" x="126.85" y="-275.82" font-family="Times New Roman,serif" font-size="14.00">J</text>
</g>
<!-- K -->
<g id="node2" class="node">
<title>K</title>
<ellipse fill="none" stroke="black" cx="54.85" cy="-193.5" rx="27" ry="18"/>
<text text-anchor="middle" x="54.85" y="-188.07" font-family="Times New Roman,serif" font-size="14.00">K</text>
</g>
<!-- J&#45;&#45;K -->
<g id="edge1" class="edge">
<title>J&#45;&#45;K</title>
<path fill="none" stroke="black" d="M113.98,-264.92C100.87,-249.31 80.68,-225.26 67.61,-209.7"/>
<text text-anchor="middle" x="104.6" y="-231.95" font-family="Times New Roman,serif" font-size="14.00">16</text>
</g>
<!-- E -->
<g id="node3" class="node">
<title>E</title>
<ellipse fill="none" stroke="black" cx="262.85" cy="-193.5" rx="27" ry="18"/>
<text text-anchor="middle" x="262.85" y="-188.07" font-family="Times New Roman,serif" font-size="14.00">E</text>
</g>
<!-- J&#45;&#45;E -->
<g id="edge2" class="edge">
<title>J&#45;&#45;E</title>
<path fill="none" stroke="black" d="M149.97,-271.52C165.48,-265.21 186.06,-255.94 202.85,-245.25 207.57,-242.25 230.87,-222.26 247,-208.29"/>
<text text-anchor="middle" x="229.6" y="-231.95" font-family="Times New Roman,serif" font-size="14.00">18</text>
</g>
<!-- H -->
<g id="node4" class="node">
<title>H</title>
<ellipse fill="none" stroke="black" cx="126.85" cy="-193.5" rx="27" ry="18"/>
<text text-anchor="middle" x="126.85" y="-188.07" font-family="Times New Roman,serif" font-size="14.00">H</text>
</g>
<!-- J&#45;&#45;H -->
<g id="edge3" class="edge">
<title>J&#45;&#45;H</title>
<path fill="none" stroke="black" d="M126.85,-262.9C126.85,-248.02 126.85,-226.7 126.85,-211.83"/>
<text text-anchor="middle" x="133.6" y="-231.95" font-family="Times New Roman,serif" font-size="14.00">17</text>
</g>
<!-- G -->
<g id="node5" class="node">
<title>G</title>
<ellipse fill="none" stroke="black" cx="77.85" cy="-105.75" rx="27" ry="18"/>
<text text-anchor="middle" x="77.85" y="-100.33" font-family="Times New Roman,serif" font-size="14.00">G</text>
</g>
<!-- J&#45;&#45;G -->
<g id="edge4" class="edge">
<title>J&#45;&#45;G</title>
<path fill="none" stroke="black" d="M101.7,-274.16C72.6,-265.62 26.05,-246.99 5.35,-211.5 -15.04,-176.54 30.77,-138.03 58.55,-118.92"/>
<text text-anchor="middle" x="12.6" y="-188.07" font-family="Times New Roman,serif" font-size="14.00">19</text>
</g>
<!-- L -->
<g id="node6" class="node">
<title>L</title>
<ellipse fill="none" stroke="black" cx="170.85" cy="-105.75" rx="27" ry="18"/>
<text text-anchor="middle" x="170.85" y="-100.33" font-family="Times New Roman,serif" font-size="14.00">L</text>
</g>
<!-- J&#45;&#45;L -->
<g id="edge5" class="edge">
<title>J&#45;&#45;L</title>
<path fill="none" stroke="black" d="M136.59,-264.04C144.48,-250.39 155.47,-230.17 162.85,-211.5 172.01,-188.34 174.49,-182.18 177.85,-157.5 179.39,-146.22 177.64,-133.53 175.5,-123.66"/>
<text text-anchor="middle" x="179.23" y="-188.07" font-family="Times New Roman,serif" font-size="14.00">4</text>
</g>
<!-- K&#45;&#45;G -->
<g id="edge13" class="edge">
<title>K&#45;&#45;G</title>
<path fill="none" stroke="black" d="M51.56,-175.2C50.33,-165.2 49.96,-152.51 53.35,-141.75 55.63,-134.53 59.98,-127.51 64.39,-121.68"/>
<text text-anchor="middle" x="60.6" y="-144.2" font-family="Times New Roman,serif" font-size="14.00">10</text>
</g>
<!-- K&#45;&#45;L -->
<g id="edge12" class="edge">
<title>K&#45;&#45;L</title>
<path fill="none" stroke="black" d="M61.81,-176C67.14,-165.04 75.44,-151.01 86.35,-141.75 103.54,-127.16 127.66,-117.98 145.73,-112.71"/>
<text text-anchor="middle" x="93.6" y="-144.2" font-family="Times New Roman,serif" font-size="14.00">12</text>
</g>
<!-- I -->
<g id="node12" class="node">
<title>I</title>
<ellipse fill="none" stroke="black" cx="34.85" cy="-18" rx="27" ry="18"/>
<text text-anchor="middle" x="34.85" y="-12.57" font-family="Times New Roman,serif" font-size="14.00">I</text>
</g>
<!-- K&#45;&#45;I -->
<g id="edge14" class="edge">
<title>K&#45;&#45;I</title>
<path fill="none" stroke="black" d="M46.53,-176.05C40.13,-162.43 31.81,-142.36 28.35,-123.75 22.69,-93.3 27.41,-57.1 31.23,-36.21"/>
<text text-anchor="middle" x="35.6" y="-100.33" font-family="Times New Roman,serif" font-size="14.00">11</text>
</g>
<!-- C -->
<g id="node9" class="node">
<title>C</title>
<ellipse fill="none" stroke="black" cx="318.85" cy="-105.75" rx="27" ry="18"/>
<text text-anchor="middle" x="318.85" y="-100.33" font-family="Times New Roman,serif" font-size="14.00">C</text>
</g>
<!-- E&#45;&#45;C -->
<g id="edge18" class="edge">
<title>E&#45;&#45;C</title>
<path fill="none" stroke="black" d="M273.12,-176.77C283.16,-161.4 298.37,-138.11 308.46,-122.67"/>
<text text-anchor="middle" x="299.23" y="-144.2" font-family="Times New Roman,serif" font-size="14.00">8</text>
</g>
<!-- H&#45;&#45;G -->
<g id="edge19" class="edge">
<title>H&#45;&#45;G</title>
<path fill="none" stroke="black" d="M120.26,-175.59C116.06,-165.5 110.23,-152.59 103.85,-141.75 99.86,-134.97 94.82,-127.92 90.24,-121.94"/>
<text text-anchor="middle" x="118.6" y="-144.2" font-family="Times New Roman,serif" font-size="14.00">15</text>
</g>
<!-- H&#45;&#45;C -->
<g id="edge20" class="edge">
<title>H&#45;&#45;C</title>
<path fill="none" stroke="black" d="M148.88,-182.66C185.81,-166.17 259.83,-133.11 296.79,-116.6"/>
<text text-anchor="middle" x="247.6" y="-144.2" font-family="Times New Roman,serif" font-size="14.00">20</text>
</g>
<!-- G&#45;&#45;I -->
<g id="edge21" class="edge">
<title>G&#45;&#45;I</title>
<path fill="none" stroke="black" d="M69.56,-88.22C61.95,-73.03 50.72,-50.65 43.12,-35.48"/>
<text text-anchor="middle" x="64.23" y="-56.45" font-family="Times New Roman,serif" font-size="14.00">5</text>
</g>
<!-- D -->
<g id="node7" class="node">
<title>D</title>
<ellipse fill="none" stroke="black" cx="300.85" cy="-369" rx="27" ry="18"/>
<text text-anchor="middle" x="300.85" y="-363.57" font-family="Times New Roman,serif" font-size="14.00">D</text>
</g>
<!-- D&#45;&#45;E -->
<g id="edge6" class="edge">
<title>D&#45;&#45;E</title>
<path fill="none" stroke="black" d="M297.07,-350.73C289.79,-317.47 273.89,-244.9 266.62,-211.7"/>
<text text-anchor="middle" x="289.23" y="-275.82" font-family="Times New Roman,serif" font-size="14.00">9</text>
</g>
<!-- F -->
<g id="node8" class="node">
<title>F</title>
<ellipse fill="none" stroke="black" cx="220.85" cy="-281.25" rx="27" ry="18"/>
<text text-anchor="middle" x="220.85" y="-275.82" font-family="Times New Roman,serif" font-size="14.00">F</text>
</g>
<!-- D&#45;&#45;F -->
<g id="edge7" class="edge">
<title>D&#45;&#45;F</title>
<path fill="none" stroke="black" d="M284.99,-354.13C278.07,-347.87 269.99,-340.26 263.1,-333 252.37,-321.68 241.12,-308.07 232.93,-297.79"/>
<text text-anchor="middle" x="267.23" y="-319.7" font-family="Times New Roman,serif" font-size="14.00">3</text>
</g>
<!-- D&#45;&#45;C -->
<g id="edge8" class="edge">
<title>D&#45;&#45;C</title>
<path fill="none" stroke="black" d="M303.02,-350.57C303.67,-344.97 304.35,-338.73 304.85,-333 311.7,-255.18 316.35,-162.01 318.09,-124.09"/>
<text text-anchor="middle" x="318.6" y="-231.95" font-family="Times New Roman,serif" font-size="14.00">14</text>
</g>
<!-- B -->
<g id="node10" class="node">
<title>B</title>
<ellipse fill="none" stroke="black" cx="373.85" cy="-193.5" rx="27" ry="18"/>
<text text-anchor="middle" x="373.85" y="-188.07" font-family="Times New Roman,serif" font-size="14.00">B</text>
</g>
<!-- D&#45;&#45;B -->
<g id="edge9" class="edge">
<title>D&#45;&#45;B</title>
<path fill="none" stroke="black" d="M316.51,-353.86C322.33,-347.91 328.56,-340.6 332.85,-333 355.55,-292.83 366.8,-238.85 371.33,-211.67"/>
<text text-anchor="middle" x="362.23" y="-275.82" font-family="Times New Roman,serif" font-size="14.00">1</text>
</g>
<!-- F&#45;&#45;E -->
<g id="edge15" class="edge">
<title>F&#45;&#45;E</title>
<path fill="none" stroke="black" d="M229.99,-264C233.2,-258.14 236.77,-251.44 239.85,-245.25 245.45,-233.99 251.29,-221.08 255.69,-211.1"/>
<text text-anchor="middle" x="251.23" y="-231.95" font-family="Times New Roman,serif" font-size="14.00">2</text>
</g>
<!-- B&#45;&#45;C -->
<g id="edge17" class="edge">
<title>B&#45;&#45;C</title>
<path fill="none" stroke="black" d="M363.51,-176.37C353.67,-161.04 338.97,-138.11 329.15,-122.81"/>
<text text-anchor="middle" x="354.23" y="-144.2" font-family="Times New Roman,serif" font-size="14.00">7</text>
</g>
<!-- A -->
<g id="node11" class="node">
<title>A</title>
<ellipse fill="none" stroke="black" cx="428.85" cy="-281.25" rx="27" ry="18"/>
<text text-anchor="middle" x="428.85" y="-275.82" font-family="Times New Roman,serif" font-size="14.00">A</text>
</g>
<!-- A&#45;&#45;C -->
<g id="edge10" class="edge">
<title>A&#45;&#45;C</title>
<path fill="none" stroke="black" d="M429.68,-262.79C429.89,-240.68 427.38,-202.25 409.85,-175.5 392.38,-148.83 360.89,-128.52 339.93,-117.11"/>
<text text-anchor="middle" x="427.23" y="-188.07" font-family="Times New Roman,serif" font-size="14.00">6</text>
</g>
<!-- A&#45;&#45;B -->
<g id="edge11" class="edge">
<title>A&#45;&#45;B</title>
<path fill="none" stroke="black" d="M418.51,-264.12C408.67,-248.79 393.97,-225.86 384.15,-210.56"/>
<text text-anchor="middle" x="412.6" y="-231.95" font-family="Times New Roman,serif" font-size="14.00">13</text>
</g>
<!-- M -->
<g id="node13" class="node">
<title>M</title>
<ellipse fill="none" stroke="black" cx="372.85" cy="-369" rx="27" ry="18"/>
<text text-anchor="middle" x="372.85" y="-363.57" font-family="Times New Roman,serif" font-size="14.00">M</text>
</g>
<!-- M&#45;&#45;M -->
<g id="edge16" class="edge">
<title>M&#45;&#45;M</title>
<path fill="none" stroke="black" d="M397.38,-377.1C408.36,-377.87 417.85,-375.17 417.85,-369 417.85,-362.83 408.36,-360.13 397.38,-360.9"/>
<text text-anchor="middle" x="421.23" y="-363.57" font-family="Times New Roman,serif" font-size="14.00">2</text>
</g>
</g>
</svg>
