<?xml version="1.0" encoding="UTF-8" standalone="no"?>
<!DOCTYPE svg PUBLIC "-//W3C//DTD SVG 1.1//EN"
 "http://www.w3.org/Graphics/SVG/1.1/DTD/svg11.dtd">
<!-- Generated by graphviz version 9.0.0 (20230911.1827)
 -->
<!-- Pages: 1 -->
<svg width="540pt" height="503pt"
 viewBox="0.00 0.00 540.00 503.00" xmlns="http://www.w3.org/2000/svg" xmlns:xlink="http://www.w3.org/1999/xlink">
<g id="graph0" class="graph" transform="scale(1 1) rotate(0) translate(4 499)">
<polygon fill="white" stroke="none" points="-4,4 -4,-499 536,-499 536,4 -4,4"/>
<!-- A -->
<g id="node1" class="node">
<title>A</title>
<ellipse fill="none" stroke="black" cx="104" cy="-193.5" rx="27" ry="18"/>
<text text-anchor="middle" x="104" y="-188.07" font-family="Times New Roman,serif" font-size="14.00">A</text>
</g>
<!-- C -->
<g id="node2" class="node">
<title>C</title>
<ellipse fill="none" stroke="black" cx="174" cy="-105.75" rx="27" ry="18"/>
<text text-anchor="middle" x="174" y="-100.33" font-family="Times New Roman,serif" font-size="14.00">C</text>
</g>
<!-- A&#45;&#45;C -->
<g id="edge1" class="edge">
<title>A&#45;&#45;C</title>
<path fill="none" stroke="black" d="M108.85,-175.76C112.47,-165.24 118.19,-151.81 126.25,-141.75 133.84,-132.29 144.57,-124.11 153.95,-118.05"/>
<text text-anchor="middle" x="130.38" y="-144.2" font-family="Times New Roman,serif" font-size="14.00">6</text>
</g>
<!-- B -->
<g id="node3" class="node">
<title>B</title>
<ellipse fill="none" stroke="black" cx="174" cy="-18" rx="27" ry="18"/>
<text text-anchor="middle" x="174" y="-12.57" font-family="Times New Roman,serif" font-size="14.00">B</text>
</g>
<!-- A&#45;&#45;B -->
<g id="edge2" class="edge">
<title>A&#45;&#45;B</title>
<path fill="none" stroke="black" d="M105.04,-175.11C106.83,-153.73 111.67,-116.72 124.5,-87.75 133.49,-67.44 149.1,-47.17 160.39,-33.96"/>
<text text-anchor="middle" x="131.75" y="-100.33" font-family="Times New Roman,serif" font-size="14.00">13</text>
</g>
<!-- C&#45;&#45;B -->
<g id="edge20" class="edge">
<title>C&#45;&#45;B</title>
<path fill="none" stroke="black" d="M174,-87.4C174,-72.52 174,-51.2 174,-36.33"/>
<text text-anchor="middle" x="177.38" y="-56.45" font-family="Times New Roman,serif" font-size="14.00">7</text>
</g>
<!-- E -->
<g id="node4" class="node">
<title>E</title>
<ellipse fill="none" stroke="black" cx="201" cy="-281.25" rx="27" ry="18"/>
<text text-anchor="middle" x="201" y="-275.82" font-family="Times New Roman,serif" font-size="14.00">E</text>
</g>
<!-- E&#45;&#45;C -->
<g id="edge5" class="edge">
<title>E&#45;&#45;C</title>
<path fill="none" stroke="black" d="M196.12,-263.16C192.35,-249.33 187.27,-229.3 184.25,-211.5 179.05,-180.88 176.23,-144.73 174.93,-123.9"/>
<text text-anchor="middle" x="188.38" y="-188.07" font-family="Times New Roman,serif" font-size="14.00">8</text>
</g>
<!-- F -->
<g id="node5" class="node">
<title>F</title>
<ellipse fill="none" stroke="black" cx="27" cy="-105.75" rx="27" ry="18"/>
<text text-anchor="middle" x="27" y="-100.33" font-family="Times New Roman,serif" font-size="14.00">F</text>
</g>
<!-- E&#45;&#45;F -->
<g id="edge3" class="edge">
<title>E&#45;&#45;F</title>
<path fill="none" stroke="black" d="M175.58,-274.25C144.34,-265.58 91.73,-246.62 61.25,-211.5 39.3,-186.21 31.36,-146.55 28.53,-123.98"/>
<text text-anchor="middle" x="65.38" y="-188.07" font-family="Times New Roman,serif" font-size="14.00">2</text>
</g>
<!-- J -->
<g id="node6" class="node">
<title>J</title>
<ellipse fill="none" stroke="black" cx="421" cy="-105.75" rx="27" ry="18"/>
<text text-anchor="middle" x="421" y="-100.33" font-family="Times New Roman,serif" font-size="14.00">J</text>
</g>
<!-- E&#45;&#45;J -->
<g id="edge4" class="edge">
<title>E&#45;&#45;J</title>
<path fill="none" stroke="black" d="M214.33,-265.29C233.78,-243.93 271.67,-204.12 308.5,-175.5 338.51,-152.19 376.9,-130.2 400.19,-117.62"/>
<text text-anchor="middle" x="315.75" y="-188.07" font-family="Times New Roman,serif" font-size="14.00">18</text>
</g>
<!-- D -->
<g id="node7" class="node">
<title>D</title>
<ellipse fill="none" stroke="black" cx="227" cy="-193.5" rx="27" ry="18"/>
<text text-anchor="middle" x="227" y="-188.07" font-family="Times New Roman,serif" font-size="14.00">D</text>
</g>
<!-- E&#45;&#45;D -->
<g id="edge6" class="edge">
<title>E&#45;&#45;D</title>
<path fill="none" stroke="black" d="M206.14,-263.31C210.69,-248.28 217.32,-226.43 221.87,-211.41"/>
<text text-anchor="middle" x="220.38" y="-231.95" font-family="Times New Roman,serif" font-size="14.00">9</text>
</g>
<!-- D&#45;&#45;C -->
<g id="edge12" class="edge">
<title>D&#45;&#45;C</title>
<path fill="none" stroke="black" d="M217.03,-176.37C207.56,-161.04 193.38,-138.11 183.92,-122.81"/>
<text text-anchor="middle" x="212.75" y="-144.2" font-family="Times New Roman,serif" font-size="14.00">14</text>
</g>
<!-- D&#45;&#45;B -->
<g id="edge13" class="edge">
<title>D&#45;&#45;B</title>
<path fill="none" stroke="black" d="M226.3,-175.04C225.74,-165.21 224.75,-152.75 223,-141.75 219.13,-117.37 218.68,-110.86 210,-87.75 202.94,-68.96 191.9,-48.75 183.91,-35.14"/>
<text text-anchor="middle" x="224.38" y="-100.33" font-family="Times New Roman,serif" font-size="14.00">1</text>
</g>
<!-- D&#45;&#45;F -->
<g id="edge11" class="edge">
<title>D&#45;&#45;F</title>
<path fill="none" stroke="black" d="M207.35,-180.55C188.35,-169.38 158.46,-152.79 131,-141.75 103.98,-130.89 95.5,-133.34 68,-123.75 61.74,-121.57 55.06,-118.93 48.95,-116.4"/>
<text text-anchor="middle" x="167.38" y="-144.2" font-family="Times New Roman,serif" font-size="14.00">3</text>
</g>
<!-- K -->
<g id="node8" class="node">
<title>K</title>
<ellipse fill="none" stroke="black" cx="448" cy="-477" rx="27" ry="18"/>
<text text-anchor="middle" x="448" y="-471.57" font-family="Times New Roman,serif" font-size="14.00">K</text>
</g>
<!-- K&#45;&#45;J -->
<g id="edge9" class="edge">
<title>K&#45;&#45;J</title>
<path fill="none" stroke="black" d="M452.75,-459.07C457.14,-441.88 463,-414.43 463,-390.25 463,-390.25 463,-390.25 463,-192.5 463,-165.65 446.18,-138.44 433.83,-122.08"/>
<text text-anchor="middle" x="469.75" y="-275.82" font-family="Times New Roman,serif" font-size="14.00">16</text>
</g>
<!-- G -->
<g id="node9" class="node">
<title>G</title>
<ellipse fill="none" stroke="black" cx="387" cy="-281.25" rx="27" ry="18"/>
<text text-anchor="middle" x="387" y="-275.82" font-family="Times New Roman,serif" font-size="14.00">G</text>
</g>
<!-- K&#45;&#45;G -->
<g id="edge7" class="edge">
<title>K&#45;&#45;G</title>
<path fill="none" stroke="black" d="M425.93,-466.31C404.25,-455.44 372.44,-435.55 358.5,-407.25 340.49,-370.71 362.79,-322.54 376.98,-298.03"/>
<text text-anchor="middle" x="365.75" y="-383.82" font-family="Times New Roman,serif" font-size="14.00">10</text>
</g>
<!-- L -->
<g id="node10" class="node">
<title>L</title>
<ellipse fill="none" stroke="black" cx="505" cy="-335.25" rx="27" ry="18"/>
<text text-anchor="middle" x="505" y="-329.82" font-family="Times New Roman,serif" font-size="14.00">L</text>
</g>
<!-- K&#45;&#45;L -->
<g id="edge8" class="edge">
<title>K&#45;&#45;L</title>
<path fill="none" stroke="black" d="M462.55,-461.35C467.74,-455.44 473.24,-448.29 477,-441 491.85,-412.23 499.39,-374.83 502.73,-353.39"/>
<text text-anchor="middle" x="489.75" y="-427.7" font-family="Times New Roman,serif" font-size="14.00">12</text>
</g>
<!-- I -->
<g id="node11" class="node">
<title>I</title>
<ellipse fill="none" stroke="black" cx="408" cy="-389.25" rx="27" ry="18"/>
<text text-anchor="middle" x="408" y="-383.82" font-family="Times New Roman,serif" font-size="14.00">I</text>
</g>
<!-- K&#45;&#45;I -->
<g id="edge10" class="edge">
<title>K&#45;&#45;I</title>
<path fill="none" stroke="black" d="M440.29,-459.47C433.2,-444.28 422.76,-421.9 415.69,-406.73"/>
<text text-anchor="middle" x="437.75" y="-427.7" font-family="Times New Roman,serif" font-size="14.00">11</text>
</g>
<!-- G&#45;&#45;J -->
<g id="edge15" class="edge">
<title>G&#45;&#45;J</title>
<path fill="none" stroke="black" d="M390.38,-262.98C396.9,-229.72 411.12,-157.15 417.63,-123.95"/>
<text text-anchor="middle" x="413.75" y="-188.07" font-family="Times New Roman,serif" font-size="14.00">19</text>
</g>
<!-- H -->
<g id="node12" class="node">
<title>H</title>
<ellipse fill="none" stroke="black" cx="358" cy="-193.5" rx="27" ry="18"/>
<text text-anchor="middle" x="358" y="-188.07" font-family="Times New Roman,serif" font-size="14.00">H</text>
</g>
<!-- G&#45;&#45;H -->
<g id="edge16" class="edge">
<title>G&#45;&#45;H</title>
<path fill="none" stroke="black" d="M381.27,-263.31C376.19,-248.28 368.8,-226.43 363.72,-211.41"/>
<text text-anchor="middle" x="382.75" y="-231.95" font-family="Times New Roman,serif" font-size="14.00">15</text>
</g>
<!-- L&#45;&#45;J -->
<g id="edge17" class="edge">
<title>L&#45;&#45;J</title>
<path fill="none" stroke="black" d="M507.04,-316.89C510.36,-281 513.27,-197.32 477,-141.75 469.23,-129.85 455.85,-121.26 444.11,-115.57"/>
<text text-anchor="middle" x="510.38" y="-231.95" font-family="Times New Roman,serif" font-size="14.00">4</text>
</g>
<!-- I&#45;&#45;G -->
<g id="edge14" class="edge">
<title>I&#45;&#45;G</title>
<path fill="none" stroke="black" d="M404.63,-371.22C400.73,-351.56 394.36,-319.38 390.44,-299.59"/>
<text text-anchor="middle" x="403.38" y="-329.82" font-family="Times New Roman,serif" font-size="14.00">5</text>
</g>
<!-- H&#45;&#45;C -->
<g id="edge19" class="edge">
<title>H&#45;&#45;C</title>
<path fill="none" stroke="black" d="M336.17,-182.33C300.76,-165.82 231.2,-133.4 195.8,-116.91"/>
<text text-anchor="middle" x="289.75" y="-144.2" font-family="Times New Roman,serif" font-size="14.00">20</text>
</g>
<!-- H&#45;&#45;J -->
<g id="edge18" class="edge">
<title>H&#45;&#45;J</title>
<path fill="none" stroke="black" d="M368.65,-176.79C375.59,-166.68 384.92,-153.32 393.5,-141.75 398.38,-135.17 403.93,-128.04 408.77,-121.94"/>
<text text-anchor="middle" x="400.75" y="-144.2" font-family="Times New Roman,serif" font-size="14.00">17</text>
</g>
</g>
</svg>
