<?xml version="1.0" encoding="UTF-8" standalone="no"?>
<!DOCTYPE svg PUBLIC "-//W3C//DTD SVG 1.1//EN"
 "http://www.w3.org/Graphics/SVG/1.1/DTD/svg11.dtd">
<!-- Generated by graphviz version 9.0.0 (20230911.1827)
 -->
<!-- Pages: 1 -->
<svg width="371pt" height="591pt"
 viewBox="0.00 0.00 371.00 590.75" xmlns="http://www.w3.org/2000/svg" xmlns:xlink="http://www.w3.org/1999/xlink">
<g id="graph0" class="graph" transform="scale(1 1) rotate(0) translate(4 586.75)">
<polygon fill="white" stroke="none" points="-4,4 -4,-586.75 367,-586.75 367,4 -4,4"/>
<!-- K -->
<g id="node1" class="node">
<title>K</title>
<ellipse fill="none" stroke="black" cx="94" cy="-564.75" rx="27" ry="18"/>
<text text-anchor="middle" x="94" y="-559.33" font-family="Times New Roman,serif" font-size="14.00">K</text>
</g>
<!-- I -->
<g id="node2" class="node">
<title>I</title>
<ellipse fill="none" stroke="black" cx="42" cy="-423" rx="27" ry="18"/>
<text text-anchor="middle" x="42" y="-417.57" font-family="Times New Roman,serif" font-size="14.00">I</text>
</g>
<!-- K&#45;&#45;I -->
<g id="edge1" class="edge">
<title>K&#45;&#45;I</title>
<path fill="none" stroke="black" d="M87.73,-546.89C77.73,-520.03 58.3,-467.82 48.29,-440.92"/>
<text text-anchor="middle" x="87.75" y="-515.45" font-family="Times New Roman,serif" font-size="14.00">11</text>
</g>
<!-- G -->
<g id="node3" class="node">
<title>G</title>
<ellipse fill="none" stroke="black" cx="61" cy="-18" rx="27" ry="18"/>
<text text-anchor="middle" x="61" y="-12.57" font-family="Times New Roman,serif" font-size="14.00">G</text>
</g>
<!-- K&#45;&#45;G -->
<g id="edge2" class="edge">
<title>K&#45;&#45;G</title>
<path fill="none" stroke="black" d="M71.25,-554.82C43.43,-542.24 0,-516.44 0,-478 0,-478 0,-478 0,-104.75 0,-74.42 25.65,-47.37 43.68,-32.1"/>
<text text-anchor="middle" x="6.75" y="-275.82" font-family="Times New Roman,serif" font-size="14.00">10</text>
</g>
<!-- J -->
<g id="node4" class="node">
<title>J</title>
<ellipse fill="none" stroke="black" cx="126" cy="-477" rx="27" ry="18"/>
<text text-anchor="middle" x="126" y="-471.57" font-family="Times New Roman,serif" font-size="14.00">J</text>
</g>
<!-- K&#45;&#45;J -->
<g id="edge3" class="edge">
<title>K&#45;&#45;J</title>
<path fill="none" stroke="black" d="M100.32,-546.81C105.93,-531.78 114.08,-509.93 119.69,-494.91"/>
<text text-anchor="middle" x="119.75" y="-515.45" font-family="Times New Roman,serif" font-size="14.00">16</text>
</g>
<!-- L -->
<g id="node5" class="node">
<title>L</title>
<ellipse fill="none" stroke="black" cx="253" cy="-369" rx="27" ry="18"/>
<text text-anchor="middle" x="253" y="-363.57" font-family="Times New Roman,serif" font-size="14.00">L</text>
</g>
<!-- K&#45;&#45;L -->
<g id="edge4" class="edge">
<title>K&#45;&#45;L</title>
<path fill="none" stroke="black" d="M112.93,-551.33C141.91,-531.39 197.26,-489.51 229,-441 239.9,-424.34 246.34,-402.23 249.76,-387.14"/>
<text text-anchor="middle" x="220.75" y="-471.57" font-family="Times New Roman,serif" font-size="14.00">12</text>
</g>
<!-- I&#45;&#45;G -->
<g id="edge19" class="edge">
<title>I&#45;&#45;G</title>
<path fill="none" stroke="black" d="M42,-404.68C42,-385.48 42,-353.59 42,-326.12 42,-326.12 42,-326.12 42,-104.75 42,-80.35 49.42,-52.96 54.99,-35.84"/>
<text text-anchor="middle" x="45.38" y="-231.95" font-family="Times New Roman,serif" font-size="14.00">5</text>
</g>
<!-- J&#45;&#45;G -->
<g id="edge8" class="edge">
<title>J&#45;&#45;G</title>
<path fill="none" stroke="black" d="M120.36,-458.93C108.08,-420.18 80,-322.42 80,-238.38 80,-238.38 80,-238.38 80,-104.75 80,-80.35 72.58,-52.96 67.01,-35.84"/>
<text text-anchor="middle" x="87.75" y="-231.95" font-family="Times New Roman,serif" font-size="14.00">19</text>
</g>
<!-- J&#45;&#45;L -->
<g id="edge6" class="edge">
<title>J&#45;&#45;L</title>
<path fill="none" stroke="black" d="M145.72,-464.17C155.96,-457.74 168.49,-449.4 179,-441 201.39,-423.11 224.89,-399.64 239.24,-384.68"/>
<text text-anchor="middle" x="221.38" y="-417.57" font-family="Times New Roman,serif" font-size="14.00">4</text>
</g>
<!-- E -->
<g id="node6" class="node">
<title>E</title>
<ellipse fill="none" stroke="black" cx="181" cy="-369" rx="27" ry="18"/>
<text text-anchor="middle" x="181" y="-363.57" font-family="Times New Roman,serif" font-size="14.00">E</text>
</g>
<!-- J&#45;&#45;E -->
<g id="edge5" class="edge">
<title>J&#45;&#45;E</title>
<path fill="none" stroke="black" d="M134.59,-459.44C144.93,-439.52 162.16,-406.31 172.47,-386.45"/>
<text text-anchor="middle" x="168.75" y="-417.57" font-family="Times New Roman,serif" font-size="14.00">18</text>
</g>
<!-- H -->
<g id="node7" class="node">
<title>H</title>
<ellipse fill="none" stroke="black" cx="135" cy="-105.75" rx="27" ry="18"/>
<text text-anchor="middle" x="135" y="-100.33" font-family="Times New Roman,serif" font-size="14.00">H</text>
</g>
<!-- J&#45;&#45;H -->
<g id="edge7" class="edge">
<title>J&#45;&#45;H</title>
<path fill="none" stroke="black" d="M126,-458.74C126,-437.76 126,-401.28 126,-370 126,-370 126,-370 126,-192.5 126,-168.7 129.47,-141.38 132.1,-124.1"/>
<text text-anchor="middle" x="132.75" y="-275.82" font-family="Times New Roman,serif" font-size="14.00">17</text>
</g>
<!-- D -->
<g id="node8" class="node">
<title>D</title>
<ellipse fill="none" stroke="black" cx="229" cy="-281.25" rx="27" ry="18"/>
<text text-anchor="middle" x="229" y="-275.82" font-family="Times New Roman,serif" font-size="14.00">D</text>
</g>
<!-- E&#45;&#45;D -->
<g id="edge9" class="edge">
<title>E&#45;&#45;D</title>
<path fill="none" stroke="black" d="M190.03,-351.87C198.56,-336.64 211.28,-313.9 219.85,-298.6"/>
<text text-anchor="middle" x="212.38" y="-319.7" font-family="Times New Roman,serif" font-size="14.00">9</text>
</g>
<!-- C -->
<g id="node9" class="node">
<title>C</title>
<ellipse fill="none" stroke="black" cx="183" cy="-193.5" rx="27" ry="18"/>
<text text-anchor="middle" x="183" y="-188.07" font-family="Times New Roman,serif" font-size="14.00">C</text>
</g>
<!-- E&#45;&#45;C -->
<g id="edge10" class="edge">
<title>E&#45;&#45;C</title>
<path fill="none" stroke="black" d="M181.2,-350.73C181.58,-317.56 182.41,-245.28 182.8,-211.96"/>
<text text-anchor="middle" x="186.38" y="-275.82" font-family="Times New Roman,serif" font-size="14.00">8</text>
</g>
<!-- F -->
<g id="node10" class="node">
<title>F</title>
<ellipse fill="none" stroke="black" cx="293" cy="-193.5" rx="27" ry="18"/>
<text text-anchor="middle" x="293" y="-188.07" font-family="Times New Roman,serif" font-size="14.00">F</text>
</g>
<!-- E&#45;&#45;F -->
<g id="edge11" class="edge">
<title>E&#45;&#45;F</title>
<path fill="none" stroke="black" d="M201.04,-356.71C220.28,-344.85 248.75,-324.43 265,-299.25 282.66,-271.89 289.24,-233.67 291.65,-211.76"/>
<text text-anchor="middle" x="284.38" y="-275.82" font-family="Times New Roman,serif" font-size="14.00">2</text>
</g>
<!-- H&#45;&#45;G -->
<g id="edge18" class="edge">
<title>H&#45;&#45;G</title>
<path fill="none" stroke="black" d="M123.1,-89.4C115.07,-79.2 104.13,-65.6 94,-54 88.07,-47.21 81.27,-39.91 75.39,-33.76"/>
<text text-anchor="middle" x="113.75" y="-56.45" font-family="Times New Roman,serif" font-size="14.00">15</text>
</g>
<!-- D&#45;&#45;C -->
<g id="edge13" class="edge">
<title>D&#45;&#45;C</title>
<path fill="none" stroke="black" d="M220.35,-264.12C212.18,-248.89 199.98,-226.15 191.77,-210.85"/>
<text text-anchor="middle" x="216.75" y="-231.95" font-family="Times New Roman,serif" font-size="14.00">14</text>
</g>
<!-- D&#45;&#45;F -->
<g id="edge14" class="edge">
<title>D&#45;&#45;F</title>
<path fill="none" stroke="black" d="M240.74,-264.52C252.29,-249.05 269.81,-225.57 281.34,-210.13"/>
<text text-anchor="middle" x="269.38" y="-231.95" font-family="Times New Roman,serif" font-size="14.00">3</text>
</g>
<!-- B -->
<g id="node11" class="node">
<title>B</title>
<ellipse fill="none" stroke="black" cx="284" cy="-18" rx="27" ry="18"/>
<text text-anchor="middle" x="284" y="-12.57" font-family="Times New Roman,serif" font-size="14.00">B</text>
</g>
<!-- D&#45;&#45;B -->
<g id="edge12" class="edge">
<title>D&#45;&#45;B</title>
<path fill="none" stroke="black" d="M231.54,-262.87C236.64,-228.97 248.92,-151.73 264,-87.75 268.19,-69.96 274.16,-49.94 278.49,-36.1"/>
<text text-anchor="middle" x="255.38" y="-144.2" font-family="Times New Roman,serif" font-size="14.00">1</text>
</g>
<!-- C&#45;&#45;H -->
<g id="edge15" class="edge">
<title>C&#45;&#45;H</title>
<path fill="none" stroke="black" d="M173.97,-176.37C165.44,-161.14 152.72,-138.4 144.15,-123.1"/>
<text text-anchor="middle" x="170.75" y="-144.2" font-family="Times New Roman,serif" font-size="14.00">20</text>
</g>
<!-- C&#45;&#45;B -->
<g id="edge17" class="edge">
<title>C&#45;&#45;B</title>
<path fill="none" stroke="black" d="M207.34,-185.18C221.47,-179.72 238.51,-170.87 249,-157.5 277.48,-121.21 283.05,-64.54 283.97,-36.26"/>
<text text-anchor="middle" x="280.38" y="-100.33" font-family="Times New Roman,serif" font-size="14.00">7</text>
</g>
<!-- A -->
<g id="node12" class="node">
<title>A</title>
<ellipse fill="none" stroke="black" cx="336" cy="-105.75" rx="27" ry="18"/>
<text text-anchor="middle" x="336" y="-100.33" font-family="Times New Roman,serif" font-size="14.00">A</text>
</g>
<!-- C&#45;&#45;A -->
<g id="edge16" class="edge">
<title>C&#45;&#45;A</title>
<path fill="none" stroke="black" d="M208.56,-186.69C237.8,-179.71 283.52,-167.66 298,-157.5 310.61,-148.65 320.8,-134.3 327.43,-123.12"/>
<text text-anchor="middle" x="317.38" y="-144.2" font-family="Times New Roman,serif" font-size="14.00">6</text>
</g>
<!-- A&#45;&#45;B -->
<g id="edge20" class="edge">
<title>A&#45;&#45;B</title>
<path fill="none" stroke="black" d="M326.22,-88.62C316.92,-73.29 303.02,-50.36 293.74,-35.06"/>
<text text-anchor="middle" x="320.75" y="-56.45" font-family="Times New Roman,serif" font-size="14.00">13</text>
</g>
</g>
</svg>
