<?xml version="1.0" encoding="UTF-8" standalone="no"?>
<!DOCTYPE svg PUBLIC "-//W3C//DTD SVG 1.1//EN"
 "http://www.w3.org/Graphics/SVG/1.1/DTD/svg11.dtd">
<!-- Generated by graphviz version 9.0.0 (20230911.1827)
 -->
<!-- Pages: 1 -->
<svg width="557pt" height="328pt"
 viewBox="0.00 0.00 557.37 327.50" xmlns="http://www.w3.org/2000/svg" xmlns:xlink="http://www.w3.org/1999/xlink">
<g id="graph0" class="graph" transform="scale(1 1) rotate(0) translate(4 323.5)">
<polygon fill="white" stroke="none" points="-4,4 -4,-323.5 553.37,-323.5 553.37,4 -4,4"/>
<!-- G -->
<g id="node1" class="node">
<title>G</title>
<ellipse fill="none" stroke="black" cx="76.37" cy="-301.5" rx="27" ry="18"/>
<text text-anchor="middle" x="76.37" y="-296.07" font-family="Times New Roman,serif" font-size="14.00">G</text>
</g>
<!-- J -->
<g id="node2" class="node">
<title>J</title>
<ellipse fill="none" stroke="black" cx="219.37" cy="-213.75" rx="27" ry="18"/>
<text text-anchor="middle" x="219.37" y="-208.32" font-family="Times New Roman,serif" font-size="14.00">J</text>
</g>
<!-- G&#45;&#45;J -->
<g id="edge1" class="edge">
<title>G&#45;&#45;J</title>
<path fill="none" stroke="black" d="M95.95,-288.76C123.34,-272.34 172.77,-242.7 200.02,-226.35"/>
<text text-anchor="middle" x="168.12" y="-252.2" font-family="Times New Roman,serif" font-size="14.00">19</text>
</g>
<!-- K -->
<g id="node3" class="node">
<title>K</title>
<ellipse fill="none" stroke="black" cx="94.37" cy="-18" rx="27" ry="18"/>
<text text-anchor="middle" x="94.37" y="-12.57" font-family="Times New Roman,serif" font-size="14.00">K</text>
</g>
<!-- G&#45;&#45;K -->
<g id="edge2" class="edge">
<title>G&#45;&#45;K</title>
<path fill="none" stroke="black" d="M61.76,-286.1C35.9,-258.79 -13.64,-197.23 3.87,-141.75 18.21,-96.3 57.13,-54.08 78.97,-33.02"/>
<text text-anchor="middle" x="11.12" y="-154.32" font-family="Times New Roman,serif" font-size="14.00">10</text>
</g>
<!-- H -->
<g id="node4" class="node">
<title>H</title>
<ellipse fill="none" stroke="black" cx="112.37" cy="-105.75" rx="27" ry="18"/>
<text text-anchor="middle" x="112.37" y="-100.33" font-family="Times New Roman,serif" font-size="14.00">H</text>
</g>
<!-- G&#45;&#45;H -->
<g id="edge3" class="edge">
<title>G&#45;&#45;H</title>
<path fill="none" stroke="black" d="M79.56,-283.31C86.4,-246.54 102.36,-160.64 109.18,-123.91"/>
<text text-anchor="middle" x="103.12" y="-208.32" font-family="Times New Roman,serif" font-size="14.00">15</text>
</g>
<!-- I -->
<g id="node5" class="node">
<title>I</title>
<ellipse fill="none" stroke="black" cx="53.37" cy="-159.75" rx="27" ry="18"/>
<text text-anchor="middle" x="53.37" y="-154.32" font-family="Times New Roman,serif" font-size="14.00">I</text>
</g>
<!-- G&#45;&#45;I -->
<g id="edge4" class="edge">
<title>G&#45;&#45;I</title>
<path fill="none" stroke="black" d="M73.55,-283.36C69.13,-256.54 60.64,-204.93 56.21,-178.03"/>
<text text-anchor="middle" x="74.74" y="-252.2" font-family="Times New Roman,serif" font-size="14.00">5</text>
</g>
<!-- J&#45;&#45;K -->
<g id="edge13" class="edge">
<title>J&#45;&#45;K</title>
<path fill="none" stroke="black" d="M224.52,-195.68C231.11,-170.32 239.55,-122.03 220.37,-87.75 199.56,-50.56 150.33,-32.38 119.94,-24.41"/>
<text text-anchor="middle" x="238.12" y="-100.33" font-family="Times New Roman,serif" font-size="14.00">16</text>
</g>
<!-- J&#45;&#45;H -->
<g id="edge12" class="edge">
<title>J&#45;&#45;H</title>
<path fill="none" stroke="black" d="M201.99,-199.61C194.61,-193.49 186.25,-185.79 179.87,-177.75 168.55,-163.5 172.35,-155.45 160.37,-141.75 152.36,-132.59 141.53,-124.44 132.19,-118.31"/>
<text text-anchor="middle" x="187.12" y="-154.32" font-family="Times New Roman,serif" font-size="14.00">17</text>
</g>
<!-- E -->
<g id="node9" class="node">
<title>E</title>
<ellipse fill="none" stroke="black" cx="351.37" cy="-105.75" rx="27" ry="18"/>
<text text-anchor="middle" x="351.37" y="-100.33" font-family="Times New Roman,serif" font-size="14.00">E</text>
</g>
<!-- J&#45;&#45;E -->
<g id="edge11" class="edge">
<title>J&#45;&#45;E</title>
<path fill="none" stroke="black" d="M244.54,-206.71C262.67,-201.39 286.91,-192.2 304.37,-177.75 319.09,-165.56 317.32,-157.68 327.87,-141.75 331.99,-135.53 336.56,-128.7 340.56,-122.75"/>
<text text-anchor="middle" x="335.12" y="-154.32" font-family="Times New Roman,serif" font-size="14.00">18</text>
</g>
<!-- L -->
<g id="node11" class="node">
<title>L</title>
<ellipse fill="none" stroke="black" cx="184.37" cy="-105.75" rx="27" ry="18"/>
<text text-anchor="middle" x="184.37" y="-100.33" font-family="Times New Roman,serif" font-size="14.00">L</text>
</g>
<!-- J&#45;&#45;L -->
<g id="edge10" class="edge">
<title>J&#45;&#45;L</title>
<path fill="none" stroke="black" d="M214.39,-195.74C210.09,-181.3 203.61,-160.07 197.37,-141.75 195.32,-135.74 192.94,-129.2 190.77,-123.42"/>
<text text-anchor="middle" x="212.74" y="-154.32" font-family="Times New Roman,serif" font-size="14.00">4</text>
</g>
<!-- I&#45;&#45;K -->
<g id="edge16" class="edge">
<title>I&#45;&#45;K</title>
<path fill="none" stroke="black" d="M54.24,-141.53C55.32,-126.97 57.69,-105.67 62.87,-87.75 68.26,-69.08 77.95,-49.02 85.16,-35.42"/>
<text text-anchor="middle" x="70.12" y="-100.33" font-family="Times New Roman,serif" font-size="14.00">11</text>
</g>
<!-- C -->
<g id="node6" class="node">
<title>C</title>
<ellipse fill="none" stroke="black" cx="355.37" cy="-301.5" rx="27" ry="18"/>
<text text-anchor="middle" x="355.37" y="-296.07" font-family="Times New Roman,serif" font-size="14.00">C</text>
</g>
<!-- C&#45;&#45;H -->
<g id="edge9" class="edge">
<title>C&#45;&#45;H</title>
<path fill="none" stroke="black" d="M328.49,-298.95C281.61,-295.73 187.57,-286.73 163.37,-265.5 141.72,-246.5 122.91,-161.11 115.61,-124.03"/>
<text text-anchor="middle" x="151.12" y="-208.32" font-family="Times New Roman,serif" font-size="14.00">20</text>
</g>
<!-- A -->
<g id="node7" class="node">
<title>A</title>
<ellipse fill="none" stroke="black" cx="522.37" cy="-213.75" rx="27" ry="18"/>
<text text-anchor="middle" x="522.37" y="-208.32" font-family="Times New Roman,serif" font-size="14.00">A</text>
</g>
<!-- C&#45;&#45;A -->
<g id="edge5" class="edge">
<title>C&#45;&#45;A</title>
<path fill="none" stroke="black" d="M382.45,-298.32C410.14,-294.97 453.36,-286.55 484.37,-265.5 497.12,-256.84 507.29,-242.48 513.89,-231.23"/>
<text text-anchor="middle" x="504.74" y="-252.2" font-family="Times New Roman,serif" font-size="14.00">6</text>
</g>
<!-- B -->
<g id="node8" class="node">
<title>B</title>
<ellipse fill="none" stroke="black" cx="470.37" cy="-105.75" rx="27" ry="18"/>
<text text-anchor="middle" x="470.37" y="-100.33" font-family="Times New Roman,serif" font-size="14.00">B</text>
</g>
<!-- C&#45;&#45;B -->
<g id="edge6" class="edge">
<title>C&#45;&#45;B</title>
<path fill="none" stroke="black" d="M376.26,-289.83C396.63,-278.31 426.89,-258.03 443.37,-231.75 464.72,-197.71 469.38,-149.32 470.27,-123.88"/>
<text text-anchor="middle" x="462.74" y="-208.32" font-family="Times New Roman,serif" font-size="14.00">7</text>
</g>
<!-- C&#45;&#45;E -->
<g id="edge7" class="edge">
<title>C&#45;&#45;E</title>
<path fill="none" stroke="black" d="M355.01,-283.31C354.26,-246.63 352.49,-161.07 351.73,-124.18"/>
<text text-anchor="middle" x="357.74" y="-208.32" font-family="Times New Roman,serif" font-size="14.00">8</text>
</g>
<!-- D -->
<g id="node10" class="node">
<title>D</title>
<ellipse fill="none" stroke="black" cx="398.37" cy="-18" rx="27" ry="18"/>
<text text-anchor="middle" x="398.37" y="-12.57" font-family="Times New Roman,serif" font-size="14.00">D</text>
</g>
<!-- C&#45;&#45;D -->
<g id="edge8" class="edge">
<title>C&#45;&#45;D</title>
<path fill="none" stroke="black" d="M341.7,-285.76C318,-258.38 273.08,-197.4 286.87,-141.75 293.39,-115.41 298.26,-108.81 315.37,-87.75 334.13,-64.66 361.6,-43.73 379.73,-31.19"/>
<text text-anchor="middle" x="294.12" y="-154.32" font-family="Times New Roman,serif" font-size="14.00">14</text>
</g>
<!-- A&#45;&#45;B -->
<g id="edge17" class="edge">
<title>A&#45;&#45;B</title>
<path fill="none" stroke="black" d="M514.24,-196.19C504.48,-176.27 488.18,-143.06 478.44,-123.2"/>
<text text-anchor="middle" x="511.12" y="-154.32" font-family="Times New Roman,serif" font-size="14.00">13</text>
</g>
<!-- B&#45;&#45;D -->
<g id="edge19" class="edge">
<title>B&#45;&#45;D</title>
<path fill="none" stroke="black" d="M457.94,-89.59C449.62,-79.48 438.39,-65.9 428.37,-54 422.8,-47.39 416.59,-40.13 411.27,-33.94"/>
<text text-anchor="middle" x="444.74" y="-56.45" font-family="Times New Roman,serif" font-size="14.00">1</text>
</g>
<!-- E&#45;&#45;D -->
<g id="edge20" class="edge">
<title>E&#45;&#45;D</title>
<path fill="none" stroke="black" d="M360.21,-88.62C368.56,-73.39 381.02,-50.65 389.41,-35.35"/>
<text text-anchor="middle" x="382.74" y="-56.45" font-family="Times New Roman,serif" font-size="14.00">9</text>
</g>
<!-- L&#45;&#45;K -->
<g id="edge18" class="edge">
<title>L&#45;&#45;K</title>
<path fill="none" stroke="black" d="M169.51,-90.59C152.83,-74.7 125.94,-49.08 109.25,-33.18"/>
<text text-anchor="middle" x="155.12" y="-56.45" font-family="Times New Roman,serif" font-size="14.00">12</text>
</g>
<!-- F -->
<g id="node12" class="node">
<title>F</title>
<ellipse fill="none" stroke="black" cx="407.37" cy="-213.75" rx="27" ry="18"/>
<text text-anchor="middle" x="407.37" y="-208.32" font-family="Times New Roman,serif" font-size="14.00">F</text>
</g>
<!-- F&#45;&#45;E -->
<g id="edge15" class="edge">
<title>F&#45;&#45;E</title>
<path fill="none" stroke="black" d="M398.86,-196.65C388.34,-176.73 370.52,-142.99 359.95,-123"/>
<text text-anchor="middle" x="391.74" y="-154.32" font-family="Times New Roman,serif" font-size="14.00">2</text>
</g>
<!-- F&#45;&#45;D -->
<g id="edge14" class="edge">
<title>F&#45;&#45;D</title>
<path fill="none" stroke="black" d="M406.57,-195.56C404.87,-158.88 400.89,-73.32 399.18,-36.43"/>
<text text-anchor="middle" x="406.74" y="-100.33" font-family="Times New Roman,serif" font-size="14.00">3</text>
</g>
</g>
</svg>
