<?xml version="1.0" encoding="UTF-8" standalone="no"?>
<!DOCTYPE svg PUBLIC "-//W3C//DTD SVG 1.1//EN"
 "http://www.w3.org/Graphics/SVG/1.1/DTD/svg11.dtd">
<!-- Generated by graphviz version 9.0.0 (20230911.1827)
 -->
<!-- Pages: 1 -->
<svg width="380pt" height="483pt"
 viewBox="0.00 0.00 380.21 482.75" xmlns="http://www.w3.org/2000/svg" xmlns:xlink="http://www.w3.org/1999/xlink">
<g id="graph0" class="graph" transform="scale(1 1) rotate(0) translate(4 478.75)">
<polygon fill="white" stroke="none" points="-4,4 -4,-478.75 376.21,-478.75 376.21,4 -4,4"/>
<!-- E -->
<g id="node1" class="node">
<title>E</title>
<ellipse fill="none" stroke="black" cx="63.71" cy="-369" rx="27" ry="18"/>
<text text-anchor="middle" x="63.71" y="-363.57" font-family="Times New Roman,serif" font-size="14.00">E</text>
</g>
<!-- F -->
<g id="node2" class="node">
<title>F</title>
<ellipse fill="none" stroke="black" cx="63.71" cy="-281.25" rx="27" ry="18"/>
<text text-anchor="middle" x="63.71" y="-275.82" font-family="Times New Roman,serif" font-size="14.00">F</text>
</g>
<!-- E&#45;&#45;F -->
<g id="edge1" class="edge">
<title>E&#45;&#45;F</title>
<path fill="none" stroke="black" d="M63.71,-350.65C63.71,-335.77 63.71,-314.45 63.71,-299.58"/>
<text text-anchor="middle" x="67.09" y="-319.7" font-family="Times New Roman,serif" font-size="14.00">2</text>
</g>
<!-- C -->
<g id="node3" class="node">
<title>C</title>
<ellipse fill="none" stroke="black" cx="135.71" cy="-281.25" rx="27" ry="18"/>
<text text-anchor="middle" x="135.71" y="-275.82" font-family="Times New Roman,serif" font-size="14.00">C</text>
</g>
<!-- E&#45;&#45;C -->
<g id="edge2" class="edge">
<title>E&#45;&#45;C</title>
<path fill="none" stroke="black" d="M76.24,-352.87C84.63,-342.76 95.92,-329.18 105.96,-317.25 111.51,-310.66 117.67,-303.4 122.94,-297.21"/>
<text text-anchor="middle" x="110.09" y="-319.7" font-family="Times New Roman,serif" font-size="14.00">8</text>
</g>
<!-- J -->
<g id="node4" class="node">
<title>J</title>
<ellipse fill="none" stroke="black" cx="207.71" cy="-281.25" rx="27" ry="18"/>
<text text-anchor="middle" x="207.71" y="-275.82" font-family="Times New Roman,serif" font-size="14.00">J</text>
</g>
<!-- E&#45;&#45;J -->
<g id="edge3" class="edge">
<title>E&#45;&#45;J</title>
<path fill="none" stroke="black" d="M85.64,-358.29C91.75,-355.75 98.44,-353.13 104.71,-351 133.9,-341.07 146.41,-350.62 171.71,-333 184.12,-324.36 193.73,-309.99 199.88,-298.74"/>
<text text-anchor="middle" x="193.46" y="-319.7" font-family="Times New Roman,serif" font-size="14.00">18</text>
</g>
<!-- D -->
<g id="node5" class="node">
<title>D</title>
<ellipse fill="none" stroke="black" cx="37.71" cy="-193.5" rx="27" ry="18"/>
<text text-anchor="middle" x="37.71" y="-188.07" font-family="Times New Roman,serif" font-size="14.00">D</text>
</g>
<!-- E&#45;&#45;D -->
<g id="edge4" class="edge">
<title>E&#45;&#45;D</title>
<path fill="none" stroke="black" d="M50.77,-352.83C40.43,-339.64 26.75,-319.52 20.96,-299.25 12.26,-268.79 22.81,-231.98 30.68,-211.09"/>
<text text-anchor="middle" x="25.09" y="-275.82" font-family="Times New Roman,serif" font-size="14.00">9</text>
</g>
<!-- F&#45;&#45;D -->
<g id="edge8" class="edge">
<title>F&#45;&#45;D</title>
<path fill="none" stroke="black" d="M58.57,-263.31C54.02,-248.28 47.39,-226.43 42.84,-211.41"/>
<text text-anchor="middle" x="57.09" y="-231.95" font-family="Times New Roman,serif" font-size="14.00">3</text>
</g>
<!-- C&#45;&#45;D -->
<g id="edge18" class="edge">
<title>C&#45;&#45;D</title>
<path fill="none" stroke="black" d="M119.97,-266.47C101.79,-250.57 72.04,-224.54 53.74,-208.53"/>
<text text-anchor="middle" x="102.46" y="-231.95" font-family="Times New Roman,serif" font-size="14.00">14</text>
</g>
<!-- H -->
<g id="node12" class="node">
<title>H</title>
<ellipse fill="none" stroke="black" cx="185.71" cy="-193.5" rx="27" ry="18"/>
<text text-anchor="middle" x="185.71" y="-188.07" font-family="Times New Roman,serif" font-size="14.00">H</text>
</g>
<!-- C&#45;&#45;H -->
<g id="edge17" class="edge">
<title>C&#45;&#45;H</title>
<path fill="none" stroke="black" d="M145.12,-264.12C154,-248.89 167.25,-226.15 176.18,-210.85"/>
<text text-anchor="middle" x="171.46" y="-231.95" font-family="Times New Roman,serif" font-size="14.00">20</text>
</g>
<!-- L -->
<g id="node9" class="node">
<title>L</title>
<ellipse fill="none" stroke="black" cx="257.71" cy="-193.5" rx="27" ry="18"/>
<text text-anchor="middle" x="257.71" y="-188.07" font-family="Times New Roman,serif" font-size="14.00">L</text>
</g>
<!-- J&#45;&#45;L -->
<g id="edge16" class="edge">
<title>J&#45;&#45;L</title>
<path fill="none" stroke="black" d="M217.12,-264.12C226,-248.89 239.25,-226.15 248.18,-210.85"/>
<text text-anchor="middle" x="240.09" y="-231.95" font-family="Times New Roman,serif" font-size="14.00">4</text>
</g>
<!-- G -->
<g id="node11" class="node">
<title>G</title>
<ellipse fill="none" stroke="black" cx="269.71" cy="-105.75" rx="27" ry="18"/>
<text text-anchor="middle" x="269.71" y="-100.33" font-family="Times New Roman,serif" font-size="14.00">G</text>
</g>
<!-- J&#45;&#45;G -->
<g id="edge15" class="edge">
<title>J&#45;&#45;G</title>
<path fill="none" stroke="black" d="M185.61,-270.3C174.32,-264.33 161.02,-255.84 151.71,-245.25 130.74,-221.4 119.68,-202.61 136.21,-175.5 159.63,-137.11 212.1,-119.24 243.84,-111.67"/>
<text text-anchor="middle" x="142.46" y="-188.07" font-family="Times New Roman,serif" font-size="14.00">19</text>
</g>
<!-- J&#45;&#45;H -->
<g id="edge14" class="edge">
<title>J&#45;&#45;H</title>
<path fill="none" stroke="black" d="M203.37,-263.31C199.53,-248.37 193.98,-226.71 190.12,-211.7"/>
<text text-anchor="middle" x="204.46" y="-231.95" font-family="Times New Roman,serif" font-size="14.00">17</text>
</g>
<!-- B -->
<g id="node6" class="node">
<title>B</title>
<ellipse fill="none" stroke="black" cx="126.71" cy="-456.75" rx="27" ry="18"/>
<text text-anchor="middle" x="126.71" y="-451.32" font-family="Times New Roman,serif" font-size="14.00">B</text>
</g>
<!-- B&#45;&#45;C -->
<g id="edge6" class="edge">
<title>B&#45;&#45;C</title>
<path fill="none" stroke="black" d="M127.61,-438.48C129.33,-405.31 133.08,-333.03 134.81,-299.71"/>
<text text-anchor="middle" x="136.09" y="-363.57" font-family="Times New Roman,serif" font-size="14.00">7</text>
</g>
<!-- B&#45;&#45;D -->
<g id="edge7" class="edge">
<title>B&#45;&#45;D</title>
<path fill="none" stroke="black" d="M104.31,-446.48C81.25,-435.72 46.15,-415.69 27.71,-387 -10.21,-327.99 -4.26,-296.11 17.71,-229.5 19.9,-222.85 23.43,-216.06 26.92,-210.25"/>
<text text-anchor="middle" x="7.09" y="-319.7" font-family="Times New Roman,serif" font-size="14.00">1</text>
</g>
<!-- A -->
<g id="node7" class="node">
<title>A</title>
<ellipse fill="none" stroke="black" cx="178.71" cy="-369" rx="27" ry="18"/>
<text text-anchor="middle" x="178.71" y="-363.57" font-family="Times New Roman,serif" font-size="14.00">A</text>
</g>
<!-- B&#45;&#45;A -->
<g id="edge5" class="edge">
<title>B&#45;&#45;A</title>
<path fill="none" stroke="black" d="M136.49,-439.62C145.79,-424.29 159.69,-401.36 168.97,-386.06"/>
<text text-anchor="middle" x="163.46" y="-407.45" font-family="Times New Roman,serif" font-size="14.00">13</text>
</g>
<!-- A&#45;&#45;C -->
<g id="edge13" class="edge">
<title>A&#45;&#45;C</title>
<path fill="none" stroke="black" d="M170.42,-351.47C162.81,-336.28 151.58,-313.9 143.98,-298.73"/>
<text text-anchor="middle" x="164.09" y="-319.7" font-family="Times New Roman,serif" font-size="14.00">6</text>
</g>
<!-- K -->
<g id="node8" class="node">
<title>K</title>
<ellipse fill="none" stroke="black" cx="291.71" cy="-369" rx="27" ry="18"/>
<text text-anchor="middle" x="291.71" y="-363.57" font-family="Times New Roman,serif" font-size="14.00">K</text>
</g>
<!-- K&#45;&#45;J -->
<g id="edge11" class="edge">
<title>K&#45;&#45;J</title>
<path fill="none" stroke="black" d="M272.12,-356.06C262.79,-349.85 251.81,-341.73 243.21,-333 232.95,-322.58 223.57,-308.91 217.03,-298.38"/>
<text text-anchor="middle" x="249.46" y="-319.7" font-family="Times New Roman,serif" font-size="14.00">16</text>
</g>
<!-- K&#45;&#45;L -->
<g id="edge9" class="edge">
<title>K&#45;&#45;L</title>
<path fill="none" stroke="black" d="M288.33,-350.73C281.81,-317.47 267.59,-244.9 261.08,-211.7"/>
<text text-anchor="middle" x="284.46" y="-275.82" font-family="Times New Roman,serif" font-size="14.00">12</text>
</g>
<!-- I -->
<g id="node10" class="node">
<title>I</title>
<ellipse fill="none" stroke="black" cx="331.71" cy="-18" rx="27" ry="18"/>
<text text-anchor="middle" x="331.71" y="-12.57" font-family="Times New Roman,serif" font-size="14.00">I</text>
</g>
<!-- K&#45;&#45;I -->
<g id="edge10" class="edge">
<title>K&#45;&#45;I</title>
<path fill="none" stroke="black" d="M310.37,-355.55C330.2,-340.68 358.71,-313.8 358.71,-282.25 358.71,-282.25 358.71,-282.25 358.71,-104.75 358.71,-79.62 348.03,-52.18 340.11,-35.28"/>
<text text-anchor="middle" x="365.46" y="-188.07" font-family="Times New Roman,serif" font-size="14.00">11</text>
</g>
<!-- K&#45;&#45;G -->
<g id="edge12" class="edge">
<title>K&#45;&#45;G</title>
<path fill="none" stroke="black" d="M294.64,-350.96C295.49,-345.27 296.29,-338.88 296.71,-333 297.21,-326.02 296.78,-324.25 296.71,-317.25 296.13,-254.24 304.95,-237.5 293.71,-175.5 290.37,-157.09 282.87,-136.99 277.14,-123.3"/>
<text text-anchor="middle" x="305.46" y="-231.95" font-family="Times New Roman,serif" font-size="14.00">10</text>
</g>
<!-- G&#45;&#45;I -->
<g id="edge20" class="edge">
<title>G&#45;&#45;I</title>
<path fill="none" stroke="black" d="M281.08,-89.02C292.27,-73.55 309.25,-50.07 320.41,-34.63"/>
<text text-anchor="middle" x="309.09" y="-56.45" font-family="Times New Roman,serif" font-size="14.00">5</text>
</g>
<!-- H&#45;&#45;G -->
<g id="edge19" class="edge">
<title>H&#45;&#45;G</title>
<path fill="none" stroke="black" d="M199.96,-177.95C215.41,-162.19 239.92,-137.16 255.39,-121.37"/>
<text text-anchor="middle" x="241.46" y="-144.2" font-family="Times New Roman,serif" font-size="14.00">15</text>
</g>
</g>
</svg>
