<?xml version="1.0" encoding="UTF-8" standalone="no"?>
<!DOCTYPE svg PUBLIC "-//W3C//DTD SVG 1.1//EN"
 "http://www.w3.org/Graphics/SVG/1.1/DTD/svg11.dtd">
<!-- Generated by graphviz version 9.0.0 (20230911.1827)
 -->
<!-- Pages: 1 -->
<svg width="535pt" height="395pt"
 viewBox="0.00 0.00 534.50 395.00" xmlns="http://www.w3.org/2000/svg" xmlns:xlink="http://www.w3.org/1999/xlink">
<g id="graph0" class="graph" transform="scale(1 1) rotate(0) translate(4 391)">
<polygon fill="white" stroke="none" points="-4,4 -4,-391 530.5,-391 530.5,4 -4,4"/>
<!-- A -->
<g id="node1" class="node">
<title>A</title>
<ellipse fill="none" stroke="black" cx="76" cy="-369" rx="27" ry="18"/>
<text text-anchor="middle" x="76" y="-363.57" font-family="Times New Roman,serif" font-size="14.00">A</text>
</g>
<!-- C -->
<g id="node2" class="node">
<title>C</title>
<ellipse fill="none" stroke="black" cx="79" cy="-193.5" rx="27" ry="18"/>
<text text-anchor="middle" x="79" y="-188.07" font-family="Times New Roman,serif" font-size="14.00">C</text>
</g>
<!-- A&#45;&#45;C -->
<g id="edge1" class="edge">
<title>A&#45;&#45;C</title>
<path fill="none" stroke="black" d="M76.3,-350.73C76.87,-317.56 78.12,-245.28 78.7,-211.96"/>
<text text-anchor="middle" x="81.38" y="-275.82" font-family="Times New Roman,serif" font-size="14.00">6</text>
</g>
<!-- B -->
<g id="node3" class="node">
<title>B</title>
<ellipse fill="none" stroke="black" cx="27" cy="-281.25" rx="27" ry="18"/>
<text text-anchor="middle" x="27" y="-275.82" font-family="Times New Roman,serif" font-size="14.00">B</text>
</g>
<!-- A&#45;&#45;B -->
<g id="edge2" class="edge">
<title>A&#45;&#45;B</title>
<path fill="none" stroke="black" d="M66.78,-351.87C58.08,-336.64 45.09,-313.9 36.34,-298.6"/>
<text text-anchor="middle" x="62.75" y="-319.7" font-family="Times New Roman,serif" font-size="14.00">13</text>
</g>
<!-- D -->
<g id="node4" class="node">
<title>D</title>
<ellipse fill="none" stroke="black" cx="106" cy="-105.75" rx="27" ry="18"/>
<text text-anchor="middle" x="106" y="-100.33" font-family="Times New Roman,serif" font-size="14.00">D</text>
</g>
<!-- C&#45;&#45;D -->
<g id="edge17" class="edge">
<title>C&#45;&#45;D</title>
<path fill="none" stroke="black" d="M84.33,-175.56C89.07,-160.53 95.95,-138.68 100.68,-123.66"/>
<text text-anchor="middle" x="101.75" y="-144.2" font-family="Times New Roman,serif" font-size="14.00">14</text>
</g>
<!-- B&#45;&#45;C -->
<g id="edge3" class="edge">
<title>B&#45;&#45;C</title>
<path fill="none" stroke="black" d="M36.78,-264.12C46.08,-248.79 59.98,-225.86 69.26,-210.56"/>
<text text-anchor="middle" x="61.38" y="-231.95" font-family="Times New Roman,serif" font-size="14.00">7</text>
</g>
<!-- B&#45;&#45;D -->
<g id="edge4" class="edge">
<title>B&#45;&#45;D</title>
<path fill="none" stroke="black" d="M25.01,-262.99C23.29,-241.43 22.87,-203.91 36.25,-175.5 47.48,-151.66 70.68,-131.49 87.24,-119.28"/>
<text text-anchor="middle" x="40.38" y="-188.07" font-family="Times New Roman,serif" font-size="14.00">1</text>
</g>
<!-- E -->
<g id="node5" class="node">
<title>E</title>
<ellipse fill="none" stroke="black" cx="198" cy="-281.25" rx="27" ry="18"/>
<text text-anchor="middle" x="198" y="-275.82" font-family="Times New Roman,serif" font-size="14.00">E</text>
</g>
<!-- E&#45;&#45;C -->
<g id="edge6" class="edge">
<title>E&#45;&#45;C</title>
<path fill="none" stroke="black" d="M180.18,-267.41C157.75,-251.25 119.43,-223.63 96.94,-207.43"/>
<text text-anchor="middle" x="153.38" y="-231.95" font-family="Times New Roman,serif" font-size="14.00">8</text>
</g>
<!-- E&#45;&#45;D -->
<g id="edge7" class="edge">
<title>E&#45;&#45;D</title>
<path fill="none" stroke="black" d="M199.97,-262.8C201.6,-241.04 201.69,-203.31 187,-175.5 173.39,-149.73 145.73,-129.58 126.54,-117.93"/>
<text text-anchor="middle" x="202.38" y="-188.07" font-family="Times New Roman,serif" font-size="14.00">9</text>
</g>
<!-- F -->
<g id="node6" class="node">
<title>F</title>
<ellipse fill="none" stroke="black" cx="151" cy="-193.5" rx="27" ry="18"/>
<text text-anchor="middle" x="151" y="-188.07" font-family="Times New Roman,serif" font-size="14.00">F</text>
</g>
<!-- E&#45;&#45;F -->
<g id="edge5" class="edge">
<title>E&#45;&#45;F</title>
<path fill="none" stroke="black" d="M189.16,-264.12C180.81,-248.89 168.35,-226.15 159.96,-210.85"/>
<text text-anchor="middle" x="182.38" y="-231.95" font-family="Times New Roman,serif" font-size="14.00">2</text>
</g>
<!-- J -->
<g id="node7" class="node">
<title>J</title>
<ellipse fill="none" stroke="black" cx="389" cy="-105.75" rx="27" ry="18"/>
<text text-anchor="middle" x="389" y="-100.33" font-family="Times New Roman,serif" font-size="14.00">J</text>
</g>
<!-- E&#45;&#45;J -->
<g id="edge8" class="edge">
<title>E&#45;&#45;J</title>
<path fill="none" stroke="black" d="M211.88,-265.53C231.62,-244.8 269.25,-206.12 303.5,-175.5 326.22,-155.19 353.94,-133.41 371.53,-119.93"/>
<text text-anchor="middle" x="310.75" y="-188.07" font-family="Times New Roman,serif" font-size="14.00">18</text>
</g>
<!-- F&#45;&#45;D -->
<g id="edge16" class="edge">
<title>F&#45;&#45;D</title>
<path fill="none" stroke="black" d="M142.32,-175.97C134.36,-160.78 122.61,-138.4 114.65,-123.23"/>
<text text-anchor="middle" x="136.38" y="-144.2" font-family="Times New Roman,serif" font-size="14.00">3</text>
</g>
<!-- L -->
<g id="node9" class="node">
<title>L</title>
<ellipse fill="none" stroke="black" cx="451" cy="-18" rx="27" ry="18"/>
<text text-anchor="middle" x="451" y="-12.57" font-family="Times New Roman,serif" font-size="14.00">L</text>
</g>
<!-- J&#45;&#45;L -->
<g id="edge20" class="edge">
<title>J&#45;&#45;L</title>
<path fill="none" stroke="black" d="M400.37,-89.02C411.56,-73.55 428.54,-50.07 439.7,-34.63"/>
<text text-anchor="middle" x="428.38" y="-56.45" font-family="Times New Roman,serif" font-size="14.00">4</text>
</g>
<!-- K -->
<g id="node8" class="node">
<title>K</title>
<ellipse fill="none" stroke="black" cx="446" cy="-369" rx="27" ry="18"/>
<text text-anchor="middle" x="446" y="-363.57" font-family="Times New Roman,serif" font-size="14.00">K</text>
</g>
<!-- K&#45;&#45;J -->
<g id="edge9" class="edge">
<title>K&#45;&#45;J</title>
<path fill="none" stroke="black" d="M446.63,-350.71C447.34,-316.33 446.27,-237.33 425,-175.5 418.47,-156.52 407.35,-136.34 399.19,-122.79"/>
<text text-anchor="middle" x="446.75" y="-231.95" font-family="Times New Roman,serif" font-size="14.00">16</text>
</g>
<!-- K&#45;&#45;L -->
<g id="edge10" class="edge">
<title>K&#45;&#45;L</title>
<path fill="none" stroke="black" d="M464.66,-355.55C484.49,-340.68 513,-313.8 513,-282.25 513,-282.25 513,-282.25 513,-104.75 513,-74.25 486.93,-47.25 468.6,-32.04"/>
<text text-anchor="middle" x="519.75" y="-188.07" font-family="Times New Roman,serif" font-size="14.00">12</text>
</g>
<!-- I -->
<g id="node10" class="node">
<title>I</title>
<ellipse fill="none" stroke="black" cx="362" cy="-281.25" rx="27" ry="18"/>
<text text-anchor="middle" x="362" y="-275.82" font-family="Times New Roman,serif" font-size="14.00">I</text>
</g>
<!-- K&#45;&#45;I -->
<g id="edge11" class="edge">
<title>K&#45;&#45;I</title>
<path fill="none" stroke="black" d="M426.41,-356.06C417.08,-349.85 406.1,-341.73 397.5,-333 387.24,-322.58 377.86,-308.91 371.32,-298.38"/>
<text text-anchor="middle" x="403.75" y="-319.7" font-family="Times New Roman,serif" font-size="14.00">11</text>
</g>
<!-- G -->
<g id="node11" class="node">
<title>G</title>
<ellipse fill="none" stroke="black" cx="389" cy="-193.5" rx="27" ry="18"/>
<text text-anchor="middle" x="389" y="-188.07" font-family="Times New Roman,serif" font-size="14.00">G</text>
</g>
<!-- K&#45;&#45;G -->
<g id="edge12" class="edge">
<title>K&#45;&#45;G</title>
<path fill="none" stroke="black" d="M440.43,-351.05C429.53,-317.88 405.51,-244.74 394.59,-211.52"/>
<text text-anchor="middle" x="429.75" y="-275.82" font-family="Times New Roman,serif" font-size="14.00">10</text>
</g>
<!-- I&#45;&#45;G -->
<g id="edge18" class="edge">
<title>I&#45;&#45;G</title>
<path fill="none" stroke="black" d="M367.33,-263.31C372.07,-248.28 378.95,-226.43 383.68,-211.41"/>
<text text-anchor="middle" x="381.38" y="-231.95" font-family="Times New Roman,serif" font-size="14.00">5</text>
</g>
<!-- G&#45;&#45;J -->
<g id="edge19" class="edge">
<title>G&#45;&#45;J</title>
<path fill="none" stroke="black" d="M389,-175.15C389,-160.27 389,-138.95 389,-124.08"/>
<text text-anchor="middle" x="395.75" y="-144.2" font-family="Times New Roman,serif" font-size="14.00">19</text>
</g>
<!-- H -->
<g id="node12" class="node">
<title>H</title>
<ellipse fill="none" stroke="black" cx="290" cy="-281.25" rx="27" ry="18"/>
<text text-anchor="middle" x="290" y="-275.82" font-family="Times New Roman,serif" font-size="14.00">H</text>
</g>
<!-- H&#45;&#45;C -->
<g id="edge14" class="edge">
<title>H&#45;&#45;C</title>
<path fill="none" stroke="black" d="M270.32,-268.52C250.59,-257.18 219.05,-240.19 190,-229.5 157.83,-217.66 147.34,-222.88 115,-211.5 110.04,-209.76 104.86,-207.55 100.02,-205.31"/>
<text text-anchor="middle" x="230.75" y="-231.95" font-family="Times New Roman,serif" font-size="14.00">20</text>
</g>
<!-- H&#45;&#45;J -->
<g id="edge13" class="edge">
<title>H&#45;&#45;J</title>
<path fill="none" stroke="black" d="M296.82,-263.44C305.62,-242.34 321.93,-205.3 339.5,-175.5 350.85,-156.24 366.18,-135.62 376.75,-122.04"/>
<text text-anchor="middle" x="346.75" y="-188.07" font-family="Times New Roman,serif" font-size="14.00">17</text>
</g>
<!-- H&#45;&#45;G -->
<g id="edge15" class="edge">
<title>H&#45;&#45;G</title>
<path fill="none" stroke="black" d="M305.91,-266.47C324.38,-250.47 354.68,-224.23 373.13,-208.24"/>
<text text-anchor="middle" x="355.75" y="-231.95" font-family="Times New Roman,serif" font-size="14.00">15</text>
</g>
</g>
</svg>
