<?xml version="1.0" encoding="UTF-8" standalone="no"?>
<!DOCTYPE svg PUBLIC "-//W3C//DTD SVG 1.1//EN"
 "http://www.w3.org/Graphics/SVG/1.1/DTD/svg11.dtd">
<!-- Generated by graphviz version 9.0.0 (20230911.1827)
 -->
<!-- Pages: 1 -->
<svg width="206pt" height="332pt"
 viewBox="0.00 0.00 206.00 332.00" xmlns="http://www.w3.org/2000/svg" xmlns:xlink="http://www.w3.org/1999/xlink">
<g id="graph0" class="graph" transform="scale(1 1) rotate(0) translate(4 328)">
<polygon fill="white" stroke="none" points="-4,4 -4,-328 202,-328 202,4 -4,4"/>
<!-- A -->
<g id="node1" class="node">
<title>A</title>
<ellipse fill="none" stroke="black" cx="63" cy="-306" rx="27" ry="18"/>
<text text-anchor="middle" x="63" y="-300.57" font-family="Times New Roman,serif" font-size="14.00">A</text>
</g>
<!-- B -->
<g id="node2" class="node">
<title>B</title>
<ellipse fill="none" stroke="black" cx="27" cy="-234" rx="27" ry="18"/>
<text text-anchor="middle" x="27" y="-228.57" font-family="Times New Roman,serif" font-size="14.00">B</text>
</g>
<!-- A&#45;&#45;B -->
<g id="edge1" class="edge">
<title>A&#45;&#45;B</title>
<path fill="none" stroke="black" d="M54.65,-288.76C48.83,-277.46 41.11,-262.44 35.3,-251.15"/>
</g>
<!-- C -->
<g id="node3" class="node">
<title>C</title>
<ellipse fill="none" stroke="black" cx="99" cy="-234" rx="27" ry="18"/>
<text text-anchor="middle" x="99" y="-228.57" font-family="Times New Roman,serif" font-size="14.00">C</text>
</g>
<!-- A&#45;&#45;C -->
<g id="edge2" class="edge">
<title>A&#45;&#45;C</title>
<path fill="none" stroke="black" d="M71.35,-288.76C77.17,-277.46 84.89,-262.44 90.7,-251.15"/>
</g>
<!-- D -->
<g id="node4" class="node">
<title>D</title>
<ellipse fill="none" stroke="black" cx="27" cy="-162" rx="27" ry="18"/>
<text text-anchor="middle" x="27" y="-156.57" font-family="Times New Roman,serif" font-size="14.00">D</text>
</g>
<!-- B&#45;&#45;D -->
<g id="edge3" class="edge">
<title>B&#45;&#45;D</title>
<path fill="none" stroke="black" d="M27,-215.7C27,-204.85 27,-190.92 27,-180.1"/>
</g>
<!-- H -->
<g id="node5" class="node">
<title>H</title>
<ellipse fill="none" stroke="black" cx="99" cy="-162" rx="27" ry="18"/>
<text text-anchor="middle" x="99" y="-156.57" font-family="Times New Roman,serif" font-size="14.00">H</text>
</g>
<!-- C&#45;&#45;H -->
<g id="edge4" class="edge">
<title>C&#45;&#45;H</title>
<path fill="none" stroke="black" d="M99,-215.7C99,-204.85 99,-190.92 99,-180.1"/>
</g>
<!-- E -->
<g id="node6" class="node">
<title>E</title>
<ellipse fill="none" stroke="black" cx="171" cy="-162" rx="27" ry="18"/>
<text text-anchor="middle" x="171" y="-156.57" font-family="Times New Roman,serif" font-size="14.00">E</text>
</g>
<!-- C&#45;&#45;E -->
<g id="edge5" class="edge">
<title>C&#45;&#45;E</title>
<path fill="none" stroke="black" d="M113.92,-218.5C126.28,-206.48 143.75,-189.49 156.1,-177.49"/>
</g>
<!-- F -->
<g id="node7" class="node">
<title>F</title>
<ellipse fill="none" stroke="black" cx="27" cy="-90" rx="27" ry="18"/>
<text text-anchor="middle" x="27" y="-84.58" font-family="Times New Roman,serif" font-size="14.00">F</text>
</g>
<!-- D&#45;&#45;F -->
<g id="edge6" class="edge">
<title>D&#45;&#45;F</title>
<path fill="none" stroke="black" d="M27,-143.7C27,-132.85 27,-118.92 27,-108.1"/>
</g>
<!-- J -->
<g id="node8" class="node">
<title>J</title>
<ellipse fill="none" stroke="black" cx="99" cy="-90" rx="27" ry="18"/>
<text text-anchor="middle" x="99" y="-84.58" font-family="Times New Roman,serif" font-size="14.00">J</text>
</g>
<!-- H&#45;&#45;J -->
<g id="edge7" class="edge">
<title>H&#45;&#45;J</title>
<path fill="none" stroke="black" d="M99,-143.7C99,-132.85 99,-118.92 99,-108.1"/>
</g>
<!-- G -->
<g id="node9" class="node">
<title>G</title>
<ellipse fill="none" stroke="black" cx="171" cy="-90" rx="27" ry="18"/>
<text text-anchor="middle" x="171" y="-84.58" font-family="Times New Roman,serif" font-size="14.00">G</text>
</g>
<!-- H&#45;&#45;G -->
<g id="edge8" class="edge">
<title>H&#45;&#45;G</title>
<path fill="none" stroke="black" d="M113.92,-146.5C126.28,-134.48 143.75,-117.49 156.1,-105.49"/>
</g>
<!-- K -->
<g id="node10" class="node">
<title>K</title>
<ellipse fill="none" stroke="black" cx="27" cy="-18" rx="27" ry="18"/>
<text text-anchor="middle" x="27" y="-12.57" font-family="Times New Roman,serif" font-size="14.00">K</text>
</g>
<!-- J&#45;&#45;K -->
<g id="edge9" class="edge">
<title>J&#45;&#45;K</title>
<path fill="none" stroke="black" d="M84.08,-74.5C71.72,-62.48 54.25,-45.49 41.9,-33.49"/>
</g>
<!-- L -->
<g id="node11" class="node">
<title>L</title>
<ellipse fill="none" stroke="black" cx="99" cy="-18" rx="27" ry="18"/>
<text text-anchor="middle" x="99" y="-12.57" font-family="Times New Roman,serif" font-size="14.00">L</text>
</g>
<!-- J&#45;&#45;L -->
<g id="edge10" class="edge">
<title>J&#45;&#45;L</title>
<path fill="none" stroke="black" d="M99,-71.7C99,-60.85 99,-46.92 99,-36.1"/>
</g>
<!-- I -->
<g id="node12" class="node">
<title>I</title>
<ellipse fill="none" stroke="black" cx="171" cy="-18" rx="27" ry="18"/>
<text text-anchor="middle" x="171" y="-12.57" font-family="Times New Roman,serif" font-size="14.00">I</text>
</g>
<!-- G&#45;&#45;I -->
<g id="edge11" class="edge">
<title>G&#45;&#45;I</title>
<path fill="none" stroke="black" d="M171,-71.7C171,-60.85 171,-46.92 171,-36.1"/>
</g>
</g>
</svg>
