<?xml version="1.0" encoding="UTF-8" standalone="no"?>
<!DOCTYPE svg PUBLIC "-//W3C//DTD SVG 1.1//EN"
 "http://www.w3.org/Graphics/SVG/1.1/DTD/svg11.dtd">
<!-- Generated by graphviz version 9.0.0 (20230911.1827)
 -->
<!-- Pages: 1 -->
<svg width="206pt" height="483pt"
 viewBox="0.00 0.00 206.00 482.75" xmlns="http://www.w3.org/2000/svg" xmlns:xlink="http://www.w3.org/1999/xlink">
<g id="graph0" class="graph" transform="scale(1 1) rotate(0) translate(4 478.75)">
<polygon fill="white" stroke="none" points="-4,4 -4,-478.75 202,-478.75 202,4 -4,4"/>
<!-- E -->
<g id="node1" class="node">
<title>E</title>
<ellipse fill="none" stroke="black" cx="63" cy="-456.75" rx="27" ry="18"/>
<text text-anchor="middle" x="63" y="-451.32" font-family="Times New Roman,serif" font-size="14.00">E</text>
</g>
<!-- F -->
<g id="node2" class="node">
<title>F</title>
<ellipse fill="none" stroke="black" cx="27" cy="-369" rx="27" ry="18"/>
<text text-anchor="middle" x="27" y="-363.57" font-family="Times New Roman,serif" font-size="14.00">F</text>
</g>
<!-- E&#45;&#45;F -->
<g id="edge1" class="edge">
<title>E&#45;&#45;F</title>
<path fill="none" stroke="black" d="M56.06,-439.22C49.72,-424.13 40.41,-401.94 34.04,-386.78"/>
<text text-anchor="middle" x="52.38" y="-407.45" font-family="Times New Roman,serif" font-size="14.00">2</text>
</g>
<!-- J -->
<g id="node7" class="node">
<title>J</title>
<ellipse fill="none" stroke="black" cx="99" cy="-369" rx="27" ry="18"/>
<text text-anchor="middle" x="99" y="-363.57" font-family="Times New Roman,serif" font-size="14.00">J</text>
</g>
<!-- E&#45;&#45;J -->
<g id="edge6" class="edge">
<title>E&#45;&#45;J</title>
<path fill="none" stroke="black" d="M69.94,-439.22C76.28,-424.13 85.59,-401.94 91.96,-386.78"/>
<text text-anchor="middle" x="91.75" y="-407.45" font-family="Times New Roman,serif" font-size="14.00">18</text>
</g>
<!-- D -->
<g id="node3" class="node">
<title>D</title>
<ellipse fill="none" stroke="black" cx="27" cy="-281.25" rx="27" ry="18"/>
<text text-anchor="middle" x="27" y="-275.82" font-family="Times New Roman,serif" font-size="14.00">D</text>
</g>
<!-- F&#45;&#45;D -->
<g id="edge2" class="edge">
<title>F&#45;&#45;D</title>
<path fill="none" stroke="black" d="M27,-350.65C27,-335.77 27,-314.45 27,-299.58"/>
<text text-anchor="middle" x="30.38" y="-319.7" font-family="Times New Roman,serif" font-size="14.00">3</text>
</g>
<!-- B -->
<g id="node4" class="node">
<title>B</title>
<ellipse fill="none" stroke="black" cx="27" cy="-193.5" rx="27" ry="18"/>
<text text-anchor="middle" x="27" y="-188.07" font-family="Times New Roman,serif" font-size="14.00">B</text>
</g>
<!-- D&#45;&#45;B -->
<g id="edge3" class="edge">
<title>D&#45;&#45;B</title>
<path fill="none" stroke="black" d="M27,-262.9C27,-248.02 27,-226.7 27,-211.83"/>
<text text-anchor="middle" x="30.38" y="-231.95" font-family="Times New Roman,serif" font-size="14.00">1</text>
</g>
<!-- C -->
<g id="node5" class="node">
<title>C</title>
<ellipse fill="none" stroke="black" cx="27" cy="-105.75" rx="27" ry="18"/>
<text text-anchor="middle" x="27" y="-100.33" font-family="Times New Roman,serif" font-size="14.00">C</text>
</g>
<!-- B&#45;&#45;C -->
<g id="edge4" class="edge">
<title>B&#45;&#45;C</title>
<path fill="none" stroke="black" d="M27,-175.15C27,-160.27 27,-138.95 27,-124.08"/>
<text text-anchor="middle" x="30.38" y="-144.2" font-family="Times New Roman,serif" font-size="14.00">7</text>
</g>
<!-- A -->
<g id="node6" class="node">
<title>A</title>
<ellipse fill="none" stroke="black" cx="27" cy="-18" rx="27" ry="18"/>
<text text-anchor="middle" x="27" y="-12.57" font-family="Times New Roman,serif" font-size="14.00">A</text>
</g>
<!-- C&#45;&#45;A -->
<g id="edge5" class="edge">
<title>C&#45;&#45;A</title>
<path fill="none" stroke="black" d="M27,-87.4C27,-72.52 27,-51.2 27,-36.33"/>
<text text-anchor="middle" x="30.38" y="-56.45" font-family="Times New Roman,serif" font-size="14.00">6</text>
</g>
<!-- L -->
<g id="node8" class="node">
<title>L</title>
<ellipse fill="none" stroke="black" cx="99" cy="-281.25" rx="27" ry="18"/>
<text text-anchor="middle" x="99" y="-275.82" font-family="Times New Roman,serif" font-size="14.00">L</text>
</g>
<!-- J&#45;&#45;L -->
<g id="edge7" class="edge">
<title>J&#45;&#45;L</title>
<path fill="none" stroke="black" d="M99,-350.65C99,-335.77 99,-314.45 99,-299.58"/>
<text text-anchor="middle" x="102.38" y="-319.7" font-family="Times New Roman,serif" font-size="14.00">4</text>
</g>
<!-- K -->
<g id="node9" class="node">
<title>K</title>
<ellipse fill="none" stroke="black" cx="99" cy="-193.5" rx="27" ry="18"/>
<text text-anchor="middle" x="99" y="-188.07" font-family="Times New Roman,serif" font-size="14.00">K</text>
</g>
<!-- L&#45;&#45;K -->
<g id="edge8" class="edge">
<title>L&#45;&#45;K</title>
<path fill="none" stroke="black" d="M99,-262.9C99,-248.02 99,-226.7 99,-211.83"/>
<text text-anchor="middle" x="105.75" y="-231.95" font-family="Times New Roman,serif" font-size="14.00">12</text>
</g>
<!-- G -->
<g id="node10" class="node">
<title>G</title>
<ellipse fill="none" stroke="black" cx="99" cy="-105.75" rx="27" ry="18"/>
<text text-anchor="middle" x="99" y="-100.33" font-family="Times New Roman,serif" font-size="14.00">G</text>
</g>
<!-- K&#45;&#45;G -->
<g id="edge9" class="edge">
<title>K&#45;&#45;G</title>
<path fill="none" stroke="black" d="M99,-175.15C99,-160.27 99,-138.95 99,-124.08"/>
<text text-anchor="middle" x="105.75" y="-144.2" font-family="Times New Roman,serif" font-size="14.00">10</text>
</g>
<!-- I -->
<g id="node11" class="node">
<title>I</title>
<ellipse fill="none" stroke="black" cx="99" cy="-18" rx="27" ry="18"/>
<text text-anchor="middle" x="99" y="-12.57" font-family="Times New Roman,serif" font-size="14.00">I</text>
</g>
<!-- G&#45;&#45;I -->
<g id="edge10" class="edge">
<title>G&#45;&#45;I</title>
<path fill="none" stroke="black" d="M99,-87.4C99,-72.52 99,-51.2 99,-36.33"/>
<text text-anchor="middle" x="102.38" y="-56.45" font-family="Times New Roman,serif" font-size="14.00">5</text>
</g>
<!-- H -->
<g id="node12" class="node">
<title>H</title>
<ellipse fill="none" stroke="black" cx="171" cy="-18" rx="27" ry="18"/>
<text text-anchor="middle" x="171" y="-12.57" font-family="Times New Roman,serif" font-size="14.00">H</text>
</g>
<!-- G&#45;&#45;H -->
<g id="edge11" class="edge">
<title>G&#45;&#45;H</title>
<path fill="none" stroke="black" d="M111.87,-89.42C124.98,-73.81 145.17,-49.76 158.24,-34.2"/>
<text text-anchor="middle" x="147.75" y="-56.45" font-family="Times New Roman,serif" font-size="14.00">15</text>
</g>
</g>
</svg>
