<?xml version="1.0" encoding="UTF-8" standalone="no"?>
<!DOCTYPE svg PUBLIC "-//W3C//DTD SVG 1.1//EN"
 "http://www.w3.org/Graphics/SVG/1.1/DTD/svg11.dtd">
<!-- Generated by graphviz version 9.0.0 (20230911.1827)
 -->
<!-- Pages: 1 -->
<svg width="422pt" height="307pt"
 viewBox="0.00 0.00 422.00 307.25" xmlns="http://www.w3.org/2000/svg" xmlns:xlink="http://www.w3.org/1999/xlink">
<g id="graph0" class="graph" transform="scale(1 1) rotate(0) translate(4 303.25)">
<polygon fill="white" stroke="none" points="-4,4 -4,-303.25 418,-303.25 418,4 -4,4"/>
<!-- E -->
<g id="node1" class="node">
<title>E</title>
<ellipse fill="none" stroke="black" cx="279" cy="-281.25" rx="27" ry="18"/>
<text text-anchor="middle" x="279" y="-275.82" font-family="Times New Roman,serif" font-size="14.00">E</text>
</g>
<!-- J -->
<g id="node2" class="node">
<title>J</title>
<ellipse fill="none" stroke="black" cx="171" cy="-193.5" rx="27" ry="18"/>
<text text-anchor="middle" x="171" y="-188.07" font-family="Times New Roman,serif" font-size="14.00">J</text>
</g>
<!-- E&#45;&#45;J -->
<g id="edge1" class="edge">
<title>E&#45;&#45;J</title>
<path fill="none" stroke="black" d="M262.12,-266.85C241.84,-250.74 207.99,-223.87 187.76,-207.8"/>
<text text-anchor="middle" x="241.75" y="-231.95" font-family="Times New Roman,serif" font-size="14.00">18</text>
</g>
<!-- F -->
<g id="node3" class="node">
<title>F</title>
<ellipse fill="none" stroke="black" cx="243" cy="-193.5" rx="27" ry="18"/>
<text text-anchor="middle" x="243" y="-188.07" font-family="Times New Roman,serif" font-size="14.00">F</text>
</g>
<!-- E&#45;&#45;F -->
<g id="edge2" class="edge">
<title>E&#45;&#45;F</title>
<path fill="none" stroke="black" d="M272.06,-263.72C265.72,-248.63 256.41,-226.44 250.04,-211.28"/>
<text text-anchor="middle" x="268.38" y="-231.95" font-family="Times New Roman,serif" font-size="14.00">2</text>
</g>
<!-- C -->
<g id="node4" class="node">
<title>C</title>
<ellipse fill="none" stroke="black" cx="315" cy="-193.5" rx="27" ry="18"/>
<text text-anchor="middle" x="315" y="-188.07" font-family="Times New Roman,serif" font-size="14.00">C</text>
</g>
<!-- E&#45;&#45;C -->
<g id="edge3" class="edge">
<title>E&#45;&#45;C</title>
<path fill="none" stroke="black" d="M285.94,-263.72C292.28,-248.63 301.59,-226.44 307.96,-211.28"/>
<text text-anchor="middle" x="304.38" y="-231.95" font-family="Times New Roman,serif" font-size="14.00">8</text>
</g>
<!-- D -->
<g id="node5" class="node">
<title>D</title>
<ellipse fill="none" stroke="black" cx="387" cy="-193.5" rx="27" ry="18"/>
<text text-anchor="middle" x="387" y="-188.07" font-family="Times New Roman,serif" font-size="14.00">D</text>
</g>
<!-- E&#45;&#45;D -->
<g id="edge4" class="edge">
<title>E&#45;&#45;D</title>
<path fill="none" stroke="black" d="M295.88,-266.85C316.16,-250.74 350.01,-223.87 370.24,-207.8"/>
<text text-anchor="middle" x="346.38" y="-231.95" font-family="Times New Roman,serif" font-size="14.00">9</text>
</g>
<!-- L -->
<g id="node6" class="node">
<title>L</title>
<ellipse fill="none" stroke="black" cx="27" cy="-105.75" rx="27" ry="18"/>
<text text-anchor="middle" x="27" y="-100.33" font-family="Times New Roman,serif" font-size="14.00">L</text>
</g>
<!-- J&#45;&#45;L -->
<g id="edge5" class="edge">
<title>J&#45;&#45;L</title>
<path fill="none" stroke="black" d="M151.28,-180.76C123.7,-164.34 73.93,-134.7 46.48,-118.35"/>
<text text-anchor="middle" x="115.38" y="-144.2" font-family="Times New Roman,serif" font-size="14.00">4</text>
</g>
<!-- K -->
<g id="node7" class="node">
<title>K</title>
<ellipse fill="none" stroke="black" cx="99" cy="-105.75" rx="27" ry="18"/>
<text text-anchor="middle" x="99" y="-100.33" font-family="Times New Roman,serif" font-size="14.00">K</text>
</g>
<!-- J&#45;&#45;K -->
<g id="edge6" class="edge">
<title>J&#45;&#45;K</title>
<path fill="none" stroke="black" d="M158.13,-177.17C145.02,-161.56 124.83,-137.51 111.76,-121.95"/>
<text text-anchor="middle" x="148.75" y="-144.2" font-family="Times New Roman,serif" font-size="14.00">16</text>
</g>
<!-- H -->
<g id="node8" class="node">
<title>H</title>
<ellipse fill="none" stroke="black" cx="171" cy="-105.75" rx="27" ry="18"/>
<text text-anchor="middle" x="171" y="-100.33" font-family="Times New Roman,serif" font-size="14.00">H</text>
</g>
<!-- J&#45;&#45;H -->
<g id="edge7" class="edge">
<title>J&#45;&#45;H</title>
<path fill="none" stroke="black" d="M171,-175.15C171,-160.27 171,-138.95 171,-124.08"/>
<text text-anchor="middle" x="177.75" y="-144.2" font-family="Times New Roman,serif" font-size="14.00">17</text>
</g>
<!-- G -->
<g id="node9" class="node">
<title>G</title>
<ellipse fill="none" stroke="black" cx="243" cy="-105.75" rx="27" ry="18"/>
<text text-anchor="middle" x="243" y="-100.33" font-family="Times New Roman,serif" font-size="14.00">G</text>
</g>
<!-- J&#45;&#45;G -->
<g id="edge8" class="edge">
<title>J&#45;&#45;G</title>
<path fill="none" stroke="black" d="M183.87,-177.17C196.98,-161.56 217.17,-137.51 230.24,-121.95"/>
<text text-anchor="middle" x="220.75" y="-144.2" font-family="Times New Roman,serif" font-size="14.00">19</text>
</g>
<!-- A -->
<g id="node10" class="node">
<title>A</title>
<ellipse fill="none" stroke="black" cx="315" cy="-105.75" rx="27" ry="18"/>
<text text-anchor="middle" x="315" y="-100.33" font-family="Times New Roman,serif" font-size="14.00">A</text>
</g>
<!-- C&#45;&#45;A -->
<g id="edge9" class="edge">
<title>C&#45;&#45;A</title>
<path fill="none" stroke="black" d="M315,-175.15C315,-160.27 315,-138.95 315,-124.08"/>
<text text-anchor="middle" x="318.38" y="-144.2" font-family="Times New Roman,serif" font-size="14.00">6</text>
</g>
<!-- B -->
<g id="node11" class="node">
<title>B</title>
<ellipse fill="none" stroke="black" cx="387" cy="-105.75" rx="27" ry="18"/>
<text text-anchor="middle" x="387" y="-100.33" font-family="Times New Roman,serif" font-size="14.00">B</text>
</g>
<!-- C&#45;&#45;B -->
<g id="edge10" class="edge">
<title>C&#45;&#45;B</title>
<path fill="none" stroke="black" d="M327.87,-177.17C340.98,-161.56 361.17,-137.51 374.24,-121.95"/>
<text text-anchor="middle" x="361.38" y="-144.2" font-family="Times New Roman,serif" font-size="14.00">7</text>
</g>
<!-- I -->
<g id="node12" class="node">
<title>I</title>
<ellipse fill="none" stroke="black" cx="99" cy="-18" rx="27" ry="18"/>
<text text-anchor="middle" x="99" y="-12.57" font-family="Times New Roman,serif" font-size="14.00">I</text>
</g>
<!-- K&#45;&#45;I -->
<g id="edge11" class="edge">
<title>K&#45;&#45;I</title>
<path fill="none" stroke="black" d="M99,-87.4C99,-72.52 99,-51.2 99,-36.33"/>
<text text-anchor="middle" x="105.75" y="-56.45" font-family="Times New Roman,serif" font-size="14.00">11</text>
</g>
</g>
</svg>
