<?xml version="1.0" encoding="UTF-8" standalone="no"?>
<!DOCTYPE svg PUBLIC "-//W3C//DTD SVG 1.1//EN"
 "http://www.w3.org/Graphics/SVG/1.1/DTD/svg11.dtd">
<!-- Generated by graphviz version 9.0.0 (20230911.1827)
 -->
<!-- Pages: 1 -->
<svg width="303pt" height="307pt"
 viewBox="0.00 0.00 303.00 307.25" xmlns="http://www.w3.org/2000/svg" xmlns:xlink="http://www.w3.org/1999/xlink">
<g id="graph0" class="graph" transform="scale(1 1) rotate(0) translate(4 303.25)">
<polygon fill="white" stroke="none" points="-4,4 -4,-303.25 299,-303.25 299,4 -4,4"/>
<!-- G -->
<g id="node1" class="node">
<title>G</title>
<ellipse fill="none" stroke="black" cx="160" cy="-281.25" rx="27" ry="18"/>
<text text-anchor="middle" x="160" y="-275.82" font-family="Times New Roman,serif" font-size="14.00">G</text>
</g>
<!-- J -->
<g id="node2" class="node">
<title>J</title>
<ellipse fill="none" stroke="black" cx="52" cy="-193.5" rx="27" ry="18"/>
<text text-anchor="middle" x="52" y="-188.07" font-family="Times New Roman,serif" font-size="14.00">J</text>
</g>
<!-- G&#45;&#45;J -->
<g id="edge1" class="edge">
<title>G&#45;&#45;J</title>
<path fill="none" stroke="black" d="M143.12,-266.85C122.84,-250.74 88.99,-223.87 68.76,-207.8"/>
<text text-anchor="middle" x="122.75" y="-231.95" font-family="Times New Roman,serif" font-size="14.00">19</text>
</g>
<!-- K -->
<g id="node3" class="node">
<title>K</title>
<ellipse fill="none" stroke="black" cx="124" cy="-193.5" rx="27" ry="18"/>
<text text-anchor="middle" x="124" y="-188.07" font-family="Times New Roman,serif" font-size="14.00">K</text>
</g>
<!-- G&#45;&#45;K -->
<g id="edge2" class="edge">
<title>G&#45;&#45;K</title>
<path fill="none" stroke="black" d="M151.86,-263.63C149.11,-257.85 146.09,-251.3 143.5,-245.25 138.68,-233.97 133.73,-221.06 130.02,-211.08"/>
<text text-anchor="middle" x="150.75" y="-231.95" font-family="Times New Roman,serif" font-size="14.00">10</text>
</g>
<!-- H -->
<g id="node4" class="node">
<title>H</title>
<ellipse fill="none" stroke="black" cx="196" cy="-193.5" rx="27" ry="18"/>
<text text-anchor="middle" x="196" y="-188.07" font-family="Times New Roman,serif" font-size="14.00">H</text>
</g>
<!-- G&#45;&#45;H -->
<g id="edge3" class="edge">
<title>G&#45;&#45;H</title>
<path fill="none" stroke="black" d="M166.94,-263.72C173.28,-248.63 182.59,-226.44 188.96,-211.28"/>
<text text-anchor="middle" x="188.75" y="-231.95" font-family="Times New Roman,serif" font-size="14.00">15</text>
</g>
<!-- I -->
<g id="node5" class="node">
<title>I</title>
<ellipse fill="none" stroke="black" cx="268" cy="-193.5" rx="27" ry="18"/>
<text text-anchor="middle" x="268" y="-188.07" font-family="Times New Roman,serif" font-size="14.00">I</text>
</g>
<!-- G&#45;&#45;I -->
<g id="edge4" class="edge">
<title>G&#45;&#45;I</title>
<path fill="none" stroke="black" d="M176.88,-266.85C197.16,-250.74 231.01,-223.87 251.24,-207.8"/>
<text text-anchor="middle" x="227.38" y="-231.95" font-family="Times New Roman,serif" font-size="14.00">5</text>
</g>
<!-- L -->
<g id="node6" class="node">
<title>L</title>
<ellipse fill="none" stroke="black" cx="27" cy="-105.75" rx="27" ry="18"/>
<text text-anchor="middle" x="27" y="-100.33" font-family="Times New Roman,serif" font-size="14.00">L</text>
</g>
<!-- J&#45;&#45;L -->
<g id="edge5" class="edge">
<title>J&#45;&#45;L</title>
<path fill="none" stroke="black" d="M47.06,-175.56C42.68,-160.53 36.31,-138.68 31.93,-123.66"/>
<text text-anchor="middle" x="45.38" y="-144.2" font-family="Times New Roman,serif" font-size="14.00">4</text>
</g>
<!-- E -->
<g id="node7" class="node">
<title>E</title>
<ellipse fill="none" stroke="black" cx="99" cy="-105.75" rx="27" ry="18"/>
<text text-anchor="middle" x="99" y="-100.33" font-family="Times New Roman,serif" font-size="14.00">E</text>
</g>
<!-- J&#45;&#45;E -->
<g id="edge6" class="edge">
<title>J&#45;&#45;E</title>
<path fill="none" stroke="black" d="M60.84,-176.37C69.19,-161.14 81.65,-138.4 90.04,-123.1"/>
<text text-anchor="middle" x="86.75" y="-144.2" font-family="Times New Roman,serif" font-size="14.00">18</text>
</g>
<!-- C -->
<g id="node8" class="node">
<title>C</title>
<ellipse fill="none" stroke="black" cx="196" cy="-105.75" rx="27" ry="18"/>
<text text-anchor="middle" x="196" y="-100.33" font-family="Times New Roman,serif" font-size="14.00">C</text>
</g>
<!-- H&#45;&#45;C -->
<g id="edge7" class="edge">
<title>H&#45;&#45;C</title>
<path fill="none" stroke="black" d="M196,-175.15C196,-160.27 196,-138.95 196,-124.08"/>
<text text-anchor="middle" x="202.75" y="-144.2" font-family="Times New Roman,serif" font-size="14.00">20</text>
</g>
<!-- D -->
<g id="node9" class="node">
<title>D</title>
<ellipse fill="none" stroke="black" cx="39" cy="-18" rx="27" ry="18"/>
<text text-anchor="middle" x="39" y="-12.57" font-family="Times New Roman,serif" font-size="14.00">D</text>
</g>
<!-- E&#45;&#45;D -->
<g id="edge8" class="edge">
<title>E&#45;&#45;D</title>
<path fill="none" stroke="black" d="M88,-89.02C77.17,-73.55 60.74,-50.07 49.94,-34.63"/>
<text text-anchor="middle" x="78.38" y="-56.45" font-family="Times New Roman,serif" font-size="14.00">9</text>
</g>
<!-- F -->
<g id="node10" class="node">
<title>F</title>
<ellipse fill="none" stroke="black" cx="111" cy="-18" rx="27" ry="18"/>
<text text-anchor="middle" x="111" y="-12.57" font-family="Times New Roman,serif" font-size="14.00">F</text>
</g>
<!-- E&#45;&#45;F -->
<g id="edge9" class="edge">
<title>E&#45;&#45;F</title>
<path fill="none" stroke="black" d="M101.43,-87.4C103.51,-72.52 106.49,-51.2 108.58,-36.33"/>
<text text-anchor="middle" x="110.38" y="-56.45" font-family="Times New Roman,serif" font-size="14.00">2</text>
</g>
<!-- A -->
<g id="node11" class="node">
<title>A</title>
<ellipse fill="none" stroke="black" cx="183" cy="-18" rx="27" ry="18"/>
<text text-anchor="middle" x="183" y="-12.57" font-family="Times New Roman,serif" font-size="14.00">A</text>
</g>
<!-- C&#45;&#45;A -->
<g id="edge10" class="edge">
<title>C&#45;&#45;A</title>
<path fill="none" stroke="black" d="M193.37,-87.4C191.11,-72.52 187.88,-51.2 185.63,-36.33"/>
<text text-anchor="middle" x="194.38" y="-56.45" font-family="Times New Roman,serif" font-size="14.00">6</text>
</g>
<!-- B -->
<g id="node12" class="node">
<title>B</title>
<ellipse fill="none" stroke="black" cx="255" cy="-18" rx="27" ry="18"/>
<text text-anchor="middle" x="255" y="-12.57" font-family="Times New Roman,serif" font-size="14.00">B</text>
</g>
<!-- C&#45;&#45;B -->
<g id="edge11" class="edge">
<title>C&#45;&#45;B</title>
<path fill="none" stroke="black" d="M206.82,-89.02C217.4,-73.65 233.42,-50.36 244.05,-34.92"/>
<text text-anchor="middle" x="234.38" y="-56.45" font-family="Times New Roman,serif" font-size="14.00">7</text>
</g>
</g>
</svg>
