<?xml version="1.0" encoding="UTF-8" standalone="no"?>
<!DOCTYPE svg PUBLIC "-//W3C//DTD SVG 1.1//EN"
 "http://www.w3.org/Graphics/SVG/1.1/DTD/svg11.dtd">
<!-- Generated by graphviz version 9.0.0 (20230911.1827)
 -->
<!-- Pages: 1 -->
<svg width="350pt" height="307pt"
 viewBox="0.00 0.00 350.00 307.25" xmlns="http://www.w3.org/2000/svg" xmlns:xlink="http://www.w3.org/1999/xlink">
<g id="graph0" class="graph" transform="scale(1 1) rotate(0) translate(4 303.25)">
<polygon fill="white" stroke="none" points="-4,4 -4,-303.25 346,-303.25 346,4 -4,4"/>
<!-- C -->
<g id="node1" class="node">
<title>C</title>
<ellipse fill="none" stroke="black" cx="171" cy="-281.25" rx="27" ry="18"/>
<text text-anchor="middle" x="171" y="-275.82" font-family="Times New Roman,serif" font-size="14.00">C</text>
</g>
<!-- D -->
<g id="node2" class="node">
<title>D</title>
<ellipse fill="none" stroke="black" cx="27" cy="-193.5" rx="27" ry="18"/>
<text text-anchor="middle" x="27" y="-188.07" font-family="Times New Roman,serif" font-size="14.00">D</text>
</g>
<!-- C&#45;&#45;D -->
<g id="edge1" class="edge">
<title>C&#45;&#45;D</title>
<path fill="none" stroke="black" d="M151.14,-268.63C139.56,-261.84 124.69,-253.09 111.5,-245.25 89.14,-231.96 63.54,-216.56 46.44,-206.24"/>
<text text-anchor="middle" x="118.75" y="-231.95" font-family="Times New Roman,serif" font-size="14.00">14</text>
</g>
<!-- E -->
<g id="node3" class="node">
<title>E</title>
<ellipse fill="none" stroke="black" cx="99" cy="-193.5" rx="27" ry="18"/>
<text text-anchor="middle" x="99" y="-188.07" font-family="Times New Roman,serif" font-size="14.00">E</text>
</g>
<!-- C&#45;&#45;E -->
<g id="edge2" class="edge">
<title>C&#45;&#45;E</title>
<path fill="none" stroke="black" d="M158.13,-264.92C145.02,-249.31 124.83,-225.26 111.76,-209.7"/>
<text text-anchor="middle" x="145.38" y="-231.95" font-family="Times New Roman,serif" font-size="14.00">8</text>
</g>
<!-- H -->
<g id="node4" class="node">
<title>H</title>
<ellipse fill="none" stroke="black" cx="171" cy="-193.5" rx="27" ry="18"/>
<text text-anchor="middle" x="171" y="-188.07" font-family="Times New Roman,serif" font-size="14.00">H</text>
</g>
<!-- C&#45;&#45;H -->
<g id="edge3" class="edge">
<title>C&#45;&#45;H</title>
<path fill="none" stroke="black" d="M171,-262.9C171,-248.02 171,-226.7 171,-211.83"/>
<text text-anchor="middle" x="177.75" y="-231.95" font-family="Times New Roman,serif" font-size="14.00">20</text>
</g>
<!-- A -->
<g id="node5" class="node">
<title>A</title>
<ellipse fill="none" stroke="black" cx="243" cy="-193.5" rx="27" ry="18"/>
<text text-anchor="middle" x="243" y="-188.07" font-family="Times New Roman,serif" font-size="14.00">A</text>
</g>
<!-- C&#45;&#45;A -->
<g id="edge4" class="edge">
<title>C&#45;&#45;A</title>
<path fill="none" stroke="black" d="M183.87,-264.92C196.98,-249.31 217.17,-225.26 230.24,-209.7"/>
<text text-anchor="middle" x="217.38" y="-231.95" font-family="Times New Roman,serif" font-size="14.00">6</text>
</g>
<!-- B -->
<g id="node6" class="node">
<title>B</title>
<ellipse fill="none" stroke="black" cx="315" cy="-193.5" rx="27" ry="18"/>
<text text-anchor="middle" x="315" y="-188.07" font-family="Times New Roman,serif" font-size="14.00">B</text>
</g>
<!-- C&#45;&#45;B -->
<g id="edge5" class="edge">
<title>C&#45;&#45;B</title>
<path fill="none" stroke="black" d="M190.72,-268.51C218.3,-252.09 268.07,-222.45 295.52,-206.1"/>
<text text-anchor="middle" x="259.38" y="-231.95" font-family="Times New Roman,serif" font-size="14.00">7</text>
</g>
<!-- F -->
<g id="node7" class="node">
<title>F</title>
<ellipse fill="none" stroke="black" cx="27" cy="-105.75" rx="27" ry="18"/>
<text text-anchor="middle" x="27" y="-100.33" font-family="Times New Roman,serif" font-size="14.00">F</text>
</g>
<!-- D&#45;&#45;F -->
<g id="edge6" class="edge">
<title>D&#45;&#45;F</title>
<path fill="none" stroke="black" d="M27,-175.15C27,-160.27 27,-138.95 27,-124.08"/>
<text text-anchor="middle" x="30.38" y="-144.2" font-family="Times New Roman,serif" font-size="14.00">3</text>
</g>
<!-- J -->
<g id="node8" class="node">
<title>J</title>
<ellipse fill="none" stroke="black" cx="99" cy="-105.75" rx="27" ry="18"/>
<text text-anchor="middle" x="99" y="-100.33" font-family="Times New Roman,serif" font-size="14.00">J</text>
</g>
<!-- E&#45;&#45;J -->
<g id="edge7" class="edge">
<title>E&#45;&#45;J</title>
<path fill="none" stroke="black" d="M99,-175.15C99,-160.27 99,-138.95 99,-124.08"/>
<text text-anchor="middle" x="105.75" y="-144.2" font-family="Times New Roman,serif" font-size="14.00">18</text>
</g>
<!-- G -->
<g id="node9" class="node">
<title>G</title>
<ellipse fill="none" stroke="black" cx="171" cy="-105.75" rx="27" ry="18"/>
<text text-anchor="middle" x="171" y="-100.33" font-family="Times New Roman,serif" font-size="14.00">G</text>
</g>
<!-- H&#45;&#45;G -->
<g id="edge8" class="edge">
<title>H&#45;&#45;G</title>
<path fill="none" stroke="black" d="M171,-175.15C171,-160.27 171,-138.95 171,-124.08"/>
<text text-anchor="middle" x="177.75" y="-144.2" font-family="Times New Roman,serif" font-size="14.00">15</text>
</g>
<!-- K -->
<g id="node10" class="node">
<title>K</title>
<ellipse fill="none" stroke="black" cx="27" cy="-18" rx="27" ry="18"/>
<text text-anchor="middle" x="27" y="-12.57" font-family="Times New Roman,serif" font-size="14.00">K</text>
</g>
<!-- J&#45;&#45;K -->
<g id="edge9" class="edge">
<title>J&#45;&#45;K</title>
<path fill="none" stroke="black" d="M86.13,-89.42C73.02,-73.81 52.83,-49.76 39.76,-34.2"/>
<text text-anchor="middle" x="76.75" y="-56.45" font-family="Times New Roman,serif" font-size="14.00">16</text>
</g>
<!-- L -->
<g id="node11" class="node">
<title>L</title>
<ellipse fill="none" stroke="black" cx="99" cy="-18" rx="27" ry="18"/>
<text text-anchor="middle" x="99" y="-12.57" font-family="Times New Roman,serif" font-size="14.00">L</text>
</g>
<!-- J&#45;&#45;L -->
<g id="edge10" class="edge">
<title>J&#45;&#45;L</title>
<path fill="none" stroke="black" d="M99,-87.4C99,-72.52 99,-51.2 99,-36.33"/>
<text text-anchor="middle" x="102.38" y="-56.45" font-family="Times New Roman,serif" font-size="14.00">4</text>
</g>
<!-- I -->
<g id="node12" class="node">
<title>I</title>
<ellipse fill="none" stroke="black" cx="171" cy="-18" rx="27" ry="18"/>
<text text-anchor="middle" x="171" y="-12.57" font-family="Times New Roman,serif" font-size="14.00">I</text>
</g>
<!-- G&#45;&#45;I -->
<g id="edge11" class="edge">
<title>G&#45;&#45;I</title>
<path fill="none" stroke="black" d="M171,-87.4C171,-72.52 171,-51.2 171,-36.33"/>
<text text-anchor="middle" x="174.38" y="-56.45" font-family="Times New Roman,serif" font-size="14.00">5</text>
</g>
</g>
</svg>
