<?xml version="1.0" encoding="UTF-8" standalone="no"?>
<!DOCTYPE svg PUBLIC "-//W3C//DTD SVG 1.1//EN"
 "http://www.w3.org/Graphics/SVG/1.1/DTD/svg11.dtd">
<!-- Generated by graphviz version 9.0.0 (20230911.1827)
 -->
<!-- Pages: 1 -->
<svg width="319pt" height="260pt"
 viewBox="0.00 0.00 319.18 260.00" xmlns="http://www.w3.org/2000/svg" xmlns:xlink="http://www.w3.org/1999/xlink">
<g id="graph0" class="graph" transform="scale(1 1) rotate(0) translate(4 256)">
<polygon fill="white" stroke="none" points="-4,4 -4,-256 315.18,-256 315.18,4 -4,4"/>
<!-- IN1010 -->
<g id="node1" class="node">
<title>IN1010</title>
<ellipse fill="none" stroke="black" cx="85.09" cy="-162" rx="38.09" ry="18"/>
<text text-anchor="middle" x="85.09" y="-156.57" font-family="Times New Roman,serif" font-size="14.00">IN1010</text>
</g>
<!-- IN2010 -->
<g id="node2" class="node">
<title>IN2010</title>
<ellipse fill="none" stroke="black" cx="85.09" cy="-90" rx="38.09" ry="18"/>
<text text-anchor="middle" x="85.09" y="-84.58" font-family="Times New Roman,serif" font-size="14.00">IN2010</text>
</g>
<!-- IN1010&#45;&gt;IN2010 -->
<g id="edge1" class="edge">
<title>IN1010&#45;&gt;IN2010</title>
<path fill="none" stroke="black" d="M85.09,-143.7C85.09,-136.41 85.09,-127.73 85.09,-119.54"/>
<polygon fill="black" stroke="black" points="88.59,-119.62 85.09,-109.62 81.59,-119.62 88.59,-119.62"/>
</g>
<!-- IN3040 -->
<g id="node3" class="node">
<title>IN3040</title>
<ellipse fill="none" stroke="black" cx="38.09" cy="-18" rx="38.09" ry="18"/>
<text text-anchor="middle" x="38.09" y="-12.57" font-family="Times New Roman,serif" font-size="14.00">IN3040</text>
</g>
<!-- IN2010&#45;&gt;IN3040 -->
<g id="edge2" class="edge">
<title>IN2010&#45;&gt;IN3040</title>
<path fill="none" stroke="black" d="M73.95,-72.41C68.45,-64.22 61.68,-54.14 55.52,-44.95"/>
<polygon fill="black" stroke="black" points="58.47,-43.08 49.99,-36.73 52.66,-46.98 58.47,-43.08"/>
</g>
<!-- IN3130 -->
<g id="node5" class="node">
<title>IN3130</title>
<ellipse fill="none" stroke="black" cx="132.09" cy="-18" rx="38.09" ry="18"/>
<text text-anchor="middle" x="132.09" y="-12.57" font-family="Times New Roman,serif" font-size="14.00">IN3130</text>
</g>
<!-- IN2010&#45;&gt;IN3130 -->
<g id="edge3" class="edge">
<title>IN2010&#45;&gt;IN3130</title>
<path fill="none" stroke="black" d="M96.23,-72.41C101.73,-64.22 108.5,-54.14 114.66,-44.95"/>
<polygon fill="black" stroke="black" points="117.52,-46.98 120.19,-36.73 111.71,-43.08 117.52,-46.98"/>
</g>
<!-- IN2080 -->
<g id="node4" class="node">
<title>IN2080</title>
<ellipse fill="none" stroke="black" cx="273.09" cy="-162" rx="38.09" ry="18"/>
<text text-anchor="middle" x="273.09" y="-156.57" font-family="Times New Roman,serif" font-size="14.00">IN2080</text>
</g>
<!-- IN1150 -->
<g id="node6" class="node">
<title>IN1150</title>
<ellipse fill="none" stroke="black" cx="273.09" cy="-234" rx="38.09" ry="18"/>
<text text-anchor="middle" x="273.09" y="-228.57" font-family="Times New Roman,serif" font-size="14.00">IN1150</text>
</g>
<!-- IN1150&#45;&gt;IN2080 -->
<g id="edge4" class="edge">
<title>IN1150&#45;&gt;IN2080</title>
<path fill="none" stroke="black" d="M273.09,-215.7C273.09,-208.41 273.09,-199.73 273.09,-191.54"/>
<polygon fill="black" stroke="black" points="276.59,-191.62 273.09,-181.62 269.59,-191.62 276.59,-191.62"/>
</g>
<!-- IN1000 -->
<g id="node7" class="node">
<title>IN1000</title>
<ellipse fill="none" stroke="black" cx="132.09" cy="-234" rx="38.09" ry="18"/>
<text text-anchor="middle" x="132.09" y="-228.57" font-family="Times New Roman,serif" font-size="14.00">IN1000</text>
</g>
<!-- IN1000&#45;&gt;IN1010 -->
<g id="edge6" class="edge">
<title>IN1000&#45;&gt;IN1010</title>
<path fill="none" stroke="black" d="M120.95,-216.41C115.45,-208.22 108.68,-198.14 102.52,-188.95"/>
<polygon fill="black" stroke="black" points="105.47,-187.08 96.99,-180.73 99.66,-190.98 105.47,-187.08"/>
</g>
<!-- IN2040 -->
<g id="node8" class="node">
<title>IN2040</title>
<ellipse fill="none" stroke="black" cx="179.09" cy="-162" rx="38.09" ry="18"/>
<text text-anchor="middle" x="179.09" y="-156.57" font-family="Times New Roman,serif" font-size="14.00">IN2040</text>
</g>
<!-- IN1000&#45;&gt;IN2040 -->
<g id="edge5" class="edge">
<title>IN1000&#45;&gt;IN2040</title>
<path fill="none" stroke="black" d="M143.23,-216.41C148.73,-208.22 155.5,-198.14 161.66,-188.95"/>
<polygon fill="black" stroke="black" points="164.52,-190.98 167.19,-180.73 158.71,-187.08 164.52,-190.98"/>
</g>
</g>
</svg>
