<?xml version="1.0" encoding="UTF-8" standalone="no"?>
<!DOCTYPE svg PUBLIC "-//W3C//DTD SVG 1.1//EN"
 "http://www.w3.org/Graphics/SVG/1.1/DTD/svg11.dtd">
<!-- Generated by graphviz version 9.0.0 (20230911.1827)
 -->
<!-- Pages: 1 -->
<svg width="2559pt" height="220pt"
 viewBox="0.00 0.00 2559.09 219.50" xmlns="http://www.w3.org/2000/svg" xmlns:xlink="http://www.w3.org/1999/xlink">
<g id="graph0" class="graph" transform="scale(1 1) rotate(0) translate(4 215.5)">
<polygon fill="white" stroke="none" points="-4,4 -4,-215.5 2555.09,-215.5 2555.09,4 -4,4"/>
<!-- William Hurt -->
<g id="node1" class="node">
<title>William Hurt</title>
<ellipse fill="none" stroke="black" cx="372.52" cy="-105.75" rx="57.55" ry="18"/>
<text text-anchor="middle" x="372.52" y="-100.33" font-family="Times New Roman,serif" font-size="14.00">William Hurt</text>
</g>
<!-- Robert Downey Jr. -->
<g id="node2" class="node">
<title>Robert Downey Jr.</title>
<ellipse fill="none" stroke="black" cx="1712.52" cy="-18" rx="81.5" ry="18"/>
<text text-anchor="middle" x="1712.52" y="-12.57" font-family="Times New Roman,serif" font-size="14.00">Robert Downey Jr.</text>
</g>
<!-- William Hurt&#45;&#45;Robert Downey Jr. -->
<g id="edge1" class="edge">
<title>William Hurt&#45;&#45;Robert Downey Jr.</title>
<path fill="none" stroke="black" d="M414.21,-92.97C422.23,-91 430.6,-89.14 438.52,-87.75 592.44,-60.68 632.6,-64.46 788.52,-54 1099.66,-33.12 1470.63,-23.78 1631.49,-20.48"/>
<text text-anchor="middle" x="851.52" y="-56.45" font-family="Times New Roman,serif" font-size="14.00">Avengers: Infinity War</text>
</g>
<!-- Samuel L. Jackson -->
<g id="node3" class="node">
<title>Samuel L. Jackson</title>
<ellipse fill="none" stroke="black" cx="528.52" cy="-105.75" rx="80.5" ry="18"/>
<text text-anchor="middle" x="528.52" y="-100.33" font-family="Times New Roman,serif" font-size="14.00">Samuel L. Jackson</text>
</g>
<!-- Samuel L. Jackson&#45;&#45;Robert Downey Jr. -->
<g id="edge2" class="edge">
<title>Samuel L. Jackson&#45;&#45;Robert Downey Jr.</title>
<path fill="none" stroke="black" d="M601.06,-97.75C711.11,-87.27 926.92,-67.34 1110.52,-54 1297.95,-40.38 1518.51,-28.65 1633.59,-22.86"/>
<text text-anchor="middle" x="1173.52" y="-56.45" font-family="Times New Roman,serif" font-size="14.00">Avengers: Infinity War</text>
</g>
<!-- Josh Brolin -->
<g id="node4" class="node">
<title>Josh Brolin</title>
<ellipse fill="none" stroke="black" cx="995.52" cy="-105.75" rx="52.56" ry="18"/>
<text text-anchor="middle" x="995.52" y="-100.33" font-family="Times New Roman,serif" font-size="14.00">Josh Brolin</text>
</g>
<!-- Josh Brolin&#45;&#45;Robert Downey Jr. -->
<g id="edge3" class="edge">
<title>Josh Brolin&#45;&#45;Robert Downey Jr.</title>
<path fill="none" stroke="black" d="M1042.99,-97.55C1112.55,-87.13 1246.33,-67.61 1360.52,-54 1456.11,-42.61 1566.61,-32.04 1637.93,-25.57"/>
<text text-anchor="middle" x="1423.52" y="-56.45" font-family="Times New Roman,serif" font-size="14.00">Avengers: Infinity War</text>
</g>
<!-- Scarlett Johansson -->
<g id="node5" class="node">
<title>Scarlett Johansson</title>
<ellipse fill="none" stroke="black" cx="1478.52" cy="-105.75" rx="80.01" ry="18"/>
<text text-anchor="middle" x="1478.52" y="-100.33" font-family="Times New Roman,serif" font-size="14.00">Scarlett Johansson</text>
</g>
<!-- Scarlett Johansson&#45;&#45;Robert Downey Jr. -->
<g id="edge4" class="edge">
<title>Scarlett Johansson&#45;&#45;Robert Downey Jr.</title>
<path fill="none" stroke="black" d="M1482.63,-87.5C1486.23,-76.2 1492.65,-62.09 1503.52,-54 1524.26,-38.58 1585.19,-29.54 1635.95,-24.53"/>
<text text-anchor="middle" x="1566.52" y="-56.45" font-family="Times New Roman,serif" font-size="14.00">Avengers: Infinity War</text>
</g>
<!-- Mark Ruffalo -->
<g id="node6" class="node">
<title>Mark Ruffalo</title>
<ellipse fill="none" stroke="black" cx="1637.52" cy="-105.75" rx="60.54" ry="18"/>
<text text-anchor="middle" x="1637.52" y="-100.33" font-family="Times New Roman,serif" font-size="14.00">Mark Ruffalo</text>
</g>
<!-- Mark Ruffalo&#45;&#45;Robert Downey Jr. -->
<g id="edge5" class="edge">
<title>Mark Ruffalo&#45;&#45;Robert Downey Jr.</title>
<path fill="none" stroke="black" d="M1633.98,-87.41C1632.8,-76.91 1633.13,-63.73 1639.52,-54 1645.55,-44.84 1654.68,-38.01 1664.46,-32.95"/>
<text text-anchor="middle" x="1702.52" y="-56.45" font-family="Times New Roman,serif" font-size="14.00">Avengers: Infinity War</text>
</g>
<!-- Anthony Mackie -->
<g id="node7" class="node">
<title>Anthony Mackie</title>
<ellipse fill="none" stroke="black" cx="1788.52" cy="-105.75" rx="72.02" ry="18"/>
<text text-anchor="middle" x="1788.52" y="-100.33" font-family="Times New Roman,serif" font-size="14.00">Anthony Mackie</text>
</g>
<!-- Anthony Mackie&#45;&#45;Robert Downey Jr. -->
<g id="edge6" class="edge">
<title>Anthony Mackie&#45;&#45;Robert Downey Jr.</title>
<path fill="none" stroke="black" d="M1783.4,-87.4C1779.67,-76.9 1773.81,-63.71 1765.52,-54 1759.3,-46.7 1751.18,-40.32 1743.18,-35.08"/>
<text text-anchor="middle" x="1838.52" y="-56.45" font-family="Times New Roman,serif" font-size="14.00">Avengers: Infinity War</text>
</g>
<!-- Harry Dean Stanton -->
<g id="node8" class="node">
<title>Harry Dean Stanton</title>
<ellipse fill="none" stroke="black" cx="1962.52" cy="-105.75" rx="84" ry="18"/>
<text text-anchor="middle" x="1962.52" y="-100.33" font-family="Times New Roman,serif" font-size="14.00">Harry Dean Stanton</text>
</g>
<!-- Harry Dean Stanton&#45;&#45;Robert Downey Jr. -->
<g id="edge7" class="edge">
<title>Harry Dean Stanton&#45;&#45;Robert Downey Jr.</title>
<path fill="none" stroke="black" d="M1948.29,-87.94C1937.68,-76.54 1922.2,-62.13 1905.52,-54 1870.01,-36.7 1827.06,-27.89 1790.69,-23.43"/>
<text text-anchor="middle" x="1966.52" y="-56.45" font-family="Times New Roman,serif" font-size="14.00">The Avengers</text>
</g>
<!-- Stellan Skarsgård -->
<g id="node9" class="node">
<title>Stellan Skarsgård</title>
<ellipse fill="none" stroke="black" cx="2139.52" cy="-105.75" rx="75.02" ry="18"/>
<text text-anchor="middle" x="2139.52" y="-100.33" font-family="Times New Roman,serif" font-size="14.00">Stellan Skarsgård</text>
</g>
<!-- Stellan Skarsgård&#45;&#45;Robert Downey Jr. -->
<g id="edge8" class="edge">
<title>Stellan Skarsgård&#45;&#45;Robert Downey Jr.</title>
<path fill="none" stroke="black" d="M2106.62,-89.2C2080.79,-77.66 2043.61,-62.51 2009.52,-54 1936.99,-35.88 1852.08,-27.07 1791.67,-22.83"/>
<text text-anchor="middle" x="2095.52" y="-56.45" font-family="Times New Roman,serif" font-size="14.00">The Avengers</text>
</g>
<!-- Jeff Bridges -->
<g id="node10" class="node">
<title>Jeff Bridges</title>
<ellipse fill="none" stroke="black" cx="2287.52" cy="-105.75" rx="55.06" ry="18"/>
<text text-anchor="middle" x="2287.52" y="-100.33" font-family="Times New Roman,serif" font-size="14.00">Jeff Bridges</text>
</g>
<!-- Jeff Bridges&#45;&#45;Robert Downey Jr. -->
<g id="edge9" class="edge">
<title>Jeff Bridges&#45;&#45;Robert Downey Jr.</title>
<path fill="none" stroke="black" d="M2254.74,-90.97C2224.98,-79.09 2179.59,-62.54 2138.52,-54 2020.28,-29.4 1880.21,-21.93 1793.85,-19.76"/>
<text text-anchor="middle" x="2218.4" y="-56.45" font-family="Times New Roman,serif" font-size="14.00">Iron Man</text>
</g>
<!-- Terrence Howard -->
<g id="node11" class="node">
<title>Terrence Howard</title>
<ellipse fill="none" stroke="black" cx="2436.52" cy="-105.75" rx="76.01" ry="18"/>
<text text-anchor="middle" x="2436.52" y="-100.33" font-family="Times New Roman,serif" font-size="14.00">Terrence Howard</text>
</g>
<!-- Terrence Howard&#45;&#45;Robert Downey Jr. -->
<g id="edge10" class="edge">
<title>Terrence Howard&#45;&#45;Robert Downey Jr.</title>
<path fill="none" stroke="black" d="M2393.38,-90.48C2355.62,-78.62 2299.05,-62.38 2248.52,-54 2088.91,-27.52 1899.45,-20.85 1793.92,-19.31"/>
<text text-anchor="middle" x="2341.4" y="-56.45" font-family="Times New Roman,serif" font-size="14.00">Iron Man</text>
</g>
<!-- Robert Redford -->
<g id="node12" class="node">
<title>Robert Redford</title>
<ellipse fill="none" stroke="black" cx="70.52" cy="-193.5" rx="70.52" ry="18"/>
<text text-anchor="middle" x="70.52" y="-188.07" font-family="Times New Roman,serif" font-size="14.00">Robert Redford</text>
</g>
<!-- Robert Redford&#45;&#45;Samuel L. Jackson -->
<g id="edge11" class="edge">
<title>Robert Redford&#45;&#45;Samuel L. Jackson</title>
<path fill="none" stroke="black" d="M74.79,-175.31C78.63,-163.74 85.53,-149.26 97.27,-141.75 129.35,-121.23 401.72,-128.33 439.52,-123.75 449.99,-122.48 461.07,-120.71 471.73,-118.79"/>
<text text-anchor="middle" x="200.65" y="-144.2" font-family="Times New Roman,serif" font-size="14.00">Captain America: The Winter Soldier</text>
</g>
<!-- Toby Jones -->
<g id="node13" class="node">
<title>Toby Jones</title>
<ellipse fill="none" stroke="black" cx="299.52" cy="-193.5" rx="54.56" ry="18"/>
<text text-anchor="middle" x="299.52" y="-188.07" font-family="Times New Roman,serif" font-size="14.00">Toby Jones</text>
</g>
<!-- Toby Jones&#45;&#45;Samuel L. Jackson -->
<g id="edge12" class="edge">
<title>Toby Jones&#45;&#45;Samuel L. Jackson</title>
<path fill="none" stroke="black" d="M301.39,-175.3C303.55,-164.03 308.21,-149.92 318.27,-141.75 339.42,-124.58 412.67,-128.31 439.52,-123.75 449.3,-122.09 459.65,-120.22 469.7,-118.34"/>
<text text-anchor="middle" x="421.65" y="-144.2" font-family="Times New Roman,serif" font-size="14.00">Captain America: The Winter Soldier</text>
</g>
<!-- Thomas Kretschmann -->
<g id="node14" class="node">
<title>Thomas Kretschmann</title>
<ellipse fill="none" stroke="black" cx="528.52" cy="-193.5" rx="92.48" ry="18"/>
<text text-anchor="middle" x="528.52" y="-188.07" font-family="Times New Roman,serif" font-size="14.00">Thomas Kretschmann</text>
</g>
<!-- Thomas Kretschmann&#45;&#45;Samuel L. Jackson -->
<g id="edge13" class="edge">
<title>Thomas Kretschmann&#45;&#45;Samuel L. Jackson</title>
<path fill="none" stroke="black" d="M528.52,-175.15C528.52,-160.27 528.52,-138.95 528.52,-124.08"/>
<text text-anchor="middle" x="631.65" y="-144.2" font-family="Times New Roman,serif" font-size="14.00">Captain America: The Winter Soldier</text>
</g>
<!-- Lloyd Kaufman -->
<g id="node15" class="node">
<title>Lloyd Kaufman</title>
<ellipse fill="none" stroke="black" cx="757.52" cy="-193.5" rx="68.53" ry="18"/>
<text text-anchor="middle" x="757.52" y="-188.07" font-family="Times New Roman,serif" font-size="14.00">Lloyd Kaufman</text>
</g>
<!-- Lloyd Kaufman&#45;&#45;Josh Brolin -->
<g id="edge14" class="edge">
<title>Lloyd Kaufman&#45;&#45;Josh Brolin</title>
<path fill="none" stroke="black" d="M757.1,-175C757.81,-163.9 760.7,-150.1 769.77,-141.75 794.36,-119.12 884.38,-111.12 943.05,-108.29"/>
<text text-anchor="middle" x="838.4" y="-144.2" font-family="Times New Roman,serif" font-size="14.00">Guardians of the Galaxy</text>
</g>
<!-- Michael Rooker -->
<g id="node16" class="node">
<title>Michael Rooker</title>
<ellipse fill="none" stroke="black" cx="916.52" cy="-193.5" rx="70.03" ry="18"/>
<text text-anchor="middle" x="916.52" y="-188.07" font-family="Times New Roman,serif" font-size="14.00">Michael Rooker</text>
</g>
<!-- Michael Rooker&#45;&#45;Josh Brolin -->
<g id="edge15" class="edge">
<title>Michael Rooker&#45;&#45;Josh Brolin</title>
<path fill="none" stroke="black" d="M910.7,-175.16C908.29,-164.66 907.36,-151.47 913.77,-141.75 922.28,-128.86 936.61,-120.7 950.92,-115.54"/>
<text text-anchor="middle" x="982.4" y="-144.2" font-family="Times New Roman,serif" font-size="14.00">Guardians of the Galaxy</text>
</g>
<!-- John C. Reilly -->
<g id="node17" class="node">
<title>John C. Reilly</title>
<ellipse fill="none" stroke="black" cx="1071.52" cy="-193.5" rx="63.04" ry="18"/>
<text text-anchor="middle" x="1071.52" y="-188.07" font-family="Times New Roman,serif" font-size="14.00">John C. Reilly</text>
</g>
<!-- John C. Reilly&#45;&#45;Josh Brolin -->
<g id="edge16" class="edge">
<title>John C. Reilly&#45;&#45;Josh Brolin</title>
<path fill="none" stroke="black" d="M1068.44,-175.04C1065.87,-164.51 1061.33,-151.31 1053.52,-141.75 1046.46,-133.09 1036.65,-126.04 1027.11,-120.6"/>
<text text-anchor="middle" x="1130.4" y="-144.2" font-family="Times New Roman,serif" font-size="14.00">Guardians of the Galaxy</text>
</g>
<!-- Anthony Hopkins -->
<g id="node18" class="node">
<title>Anthony Hopkins</title>
<ellipse fill="none" stroke="black" cx="1229.52" cy="-193.5" rx="76.51" ry="18"/>
<text text-anchor="middle" x="1229.52" y="-188.07" font-family="Times New Roman,serif" font-size="14.00">Anthony Hopkins</text>
</g>
<!-- Anthony Hopkins&#45;&#45;Mark Ruffalo -->
<g id="edge17" class="edge">
<title>Anthony Hopkins&#45;&#45;Mark Ruffalo</title>
<path fill="none" stroke="black" d="M1253.45,-176.17C1272.08,-164.37 1299.05,-149.25 1325.02,-141.75 1428.85,-111.75 1460.77,-140.56 1567.52,-123.75 1576.05,-122.41 1585.06,-120.55 1593.68,-118.56"/>
<text text-anchor="middle" x="1368.77" y="-144.2" font-family="Times New Roman,serif" font-size="14.00">Thor: Ragnarok</text>
</g>
<!-- Jeff Goldblum -->
<g id="node19" class="node">
<title>Jeff Goldblum</title>
<ellipse fill="none" stroke="black" cx="1388.52" cy="-193.5" rx="64.04" ry="18"/>
<text text-anchor="middle" x="1388.52" y="-188.07" font-family="Times New Roman,serif" font-size="14.00">Jeff Goldblum</text>
</g>
<!-- Jeff Goldblum&#45;&#45;Mark Ruffalo -->
<g id="edge18" class="edge">
<title>Jeff Goldblum&#45;&#45;Mark Ruffalo</title>
<path fill="none" stroke="black" d="M1400.65,-175.48C1409.82,-163.98 1423.46,-149.53 1439.02,-141.75 1490.61,-115.97 1510.88,-134.57 1567.52,-123.75 1575.76,-122.18 1584.47,-120.26 1592.86,-118.3"/>
<text text-anchor="middle" x="1482.77" y="-144.2" font-family="Times New Roman,serif" font-size="14.00">Thor: Ragnarok</text>
</g>
<!-- Sam Neill -->
<g id="node20" class="node">
<title>Sam Neill</title>
<ellipse fill="none" stroke="black" cx="1516.52" cy="-193.5" rx="46.07" ry="18"/>
<text text-anchor="middle" x="1516.52" y="-188.07" font-family="Times New Roman,serif" font-size="14.00">Sam Neill</text>
</g>
<!-- Sam Neill&#45;&#45;Mark Ruffalo -->
<g id="edge19" class="edge">
<title>Sam Neill&#45;&#45;Mark Ruffalo</title>
<path fill="none" stroke="black" d="M1522.57,-175.41C1527.21,-164.48 1534.61,-150.71 1545.02,-141.75 1558.04,-130.55 1575,-122.76 1590.84,-117.43"/>
<text text-anchor="middle" x="1588.77" y="-144.2" font-family="Times New Roman,serif" font-size="14.00">Thor: Ragnarok</text>
</g>
<!-- Matt Damon -->
<g id="node21" class="node">
<title>Matt Damon</title>
<ellipse fill="none" stroke="black" cx="1637.52" cy="-193.5" rx="57.05" ry="18"/>
<text text-anchor="middle" x="1637.52" y="-188.07" font-family="Times New Roman,serif" font-size="14.00">Matt Damon</text>
</g>
<!-- Matt Damon&#45;&#45;Mark Ruffalo -->
<g id="edge20" class="edge">
<title>Matt Damon&#45;&#45;Mark Ruffalo</title>
<path fill="none" stroke="black" d="M1637.52,-175.15C1637.52,-160.27 1637.52,-138.95 1637.52,-124.08"/>
<text text-anchor="middle" x="1681.77" y="-144.2" font-family="Times New Roman,serif" font-size="14.00">Thor: Ragnarok</text>
</g>
<!-- Tadanobu Asano -->
<g id="node22" class="node">
<title>Tadanobu Asano</title>
<ellipse fill="none" stroke="black" cx="1787.52" cy="-193.5" rx="75.02" ry="18"/>
<text text-anchor="middle" x="1787.52" y="-188.07" font-family="Times New Roman,serif" font-size="14.00">Tadanobu Asano</text>
</g>
<!-- Tadanobu Asano&#45;&#45;Mark Ruffalo -->
<g id="edge21" class="edge">
<title>Tadanobu Asano&#45;&#45;Mark Ruffalo</title>
<path fill="none" stroke="black" d="M1771.86,-175.65C1761.07,-164.81 1745.95,-151.07 1730.52,-141.75 1714.88,-132.29 1696.24,-124.66 1679.78,-118.97"/>
<text text-anchor="middle" x="1794.77" y="-144.2" font-family="Times New Roman,serif" font-size="14.00">Thor: Ragnarok</text>
</g>
<!-- Cate Blanchett -->
<g id="node23" class="node">
<title>Cate Blanchett</title>
<ellipse fill="none" stroke="black" cx="1945.52" cy="-193.5" rx="64.54" ry="18"/>
<text text-anchor="middle" x="1945.52" y="-188.07" font-family="Times New Roman,serif" font-size="14.00">Cate Blanchett</text>
</g>
<!-- Cate Blanchett&#45;&#45;Mark Ruffalo -->
<g id="edge22" class="edge">
<title>Cate Blanchett&#45;&#45;Mark Ruffalo</title>
<path fill="none" stroke="black" d="M1919.68,-176.64C1899.63,-165.09 1870.76,-150.08 1843.52,-141.75 1785.22,-123.93 1767.46,-134.96 1707.52,-123.75 1699.29,-122.21 1690.57,-120.31 1682.18,-118.35"/>
<text text-anchor="middle" x="1924.77" y="-144.2" font-family="Times New Roman,serif" font-size="14.00">Thor: Ragnarok</text>
</g>
<!-- Michael Douglas -->
<g id="node24" class="node">
<title>Michael Douglas</title>
<ellipse fill="none" stroke="black" cx="2100.52" cy="-193.5" rx="72.52" ry="18"/>
<text text-anchor="middle" x="2100.52" y="-188.07" font-family="Times New Roman,serif" font-size="14.00">Michael Douglas</text>
</g>
<!-- Michael Douglas&#45;&#45;Anthony Mackie -->
<g id="edge23" class="edge">
<title>Michael Douglas&#45;&#45;Anthony Mackie</title>
<path fill="none" stroke="black" d="M2067.5,-177.09C2042.24,-165.85 2006.31,-151.03 1973.52,-141.75 1928.39,-128.98 1915.6,-132.57 1869.52,-123.75 1860.49,-122.02 1850.91,-120.09 1841.63,-118.18"/>
<text text-anchor="middle" x="2044.27" y="-144.2" font-family="Times New Roman,serif" font-size="14.00">Ant&#45;Man</text>
</g>
<!-- Michael Peña -->
<g id="node25" class="node">
<title>Michael Peña</title>
<ellipse fill="none" stroke="black" cx="2251.52" cy="-193.5" rx="60.05" ry="18"/>
<text text-anchor="middle" x="2251.52" y="-188.07" font-family="Times New Roman,serif" font-size="14.00">Michael Peña</text>
</g>
<!-- Michael Peña&#45;&#45;Anthony Mackie -->
<g id="edge24" class="edge">
<title>Michael Peña&#45;&#45;Anthony Mackie</title>
<path fill="none" stroke="black" d="M2213.14,-179.26C2177.42,-167.5 2122.5,-150.81 2073.52,-141.75 1984.02,-125.2 1959.56,-137.12 1869.52,-123.75 1860,-122.34 1849.92,-120.5 1840.21,-118.55"/>
<text text-anchor="middle" x="2162.27" y="-144.2" font-family="Times New Roman,serif" font-size="14.00">Ant&#45;Man</text>
</g>
<!-- Paul Rudd -->
<g id="node26" class="node">
<title>Paul Rudd</title>
<ellipse fill="none" stroke="black" cx="2379.52" cy="-193.5" rx="50.07" ry="18"/>
<text text-anchor="middle" x="2379.52" y="-188.07" font-family="Times New Roman,serif" font-size="14.00">Paul Rudd</text>
</g>
<!-- Paul Rudd&#45;&#45;Anthony Mackie -->
<g id="edge25" class="edge">
<title>Paul Rudd&#45;&#45;Anthony Mackie</title>
<path fill="none" stroke="black" d="M2343.98,-180.44C2306.54,-168.32 2245.63,-150.25 2191.52,-141.75 2049.93,-119.5 2011.62,-142.52 1869.52,-123.75 1859.84,-122.47 1849.58,-120.67 1839.74,-118.72"/>
<text text-anchor="middle" x="2289.27" y="-144.2" font-family="Times New Roman,serif" font-size="14.00">Ant&#45;Man</text>
</g>
<!-- Judy Greer -->
<g id="node27" class="node">
<title>Judy Greer</title>
<ellipse fill="none" stroke="black" cx="2499.52" cy="-193.5" rx="51.56" ry="18"/>
<text text-anchor="middle" x="2499.52" y="-188.07" font-family="Times New Roman,serif" font-size="14.00">Judy Greer</text>
</g>
<!-- Judy Greer&#45;&#45;Anthony Mackie -->
<g id="edge26" class="edge">
<title>Judy Greer&#45;&#45;Anthony Mackie</title>
<path fill="none" stroke="black" d="M2464.35,-179.99C2428.27,-167.8 2370.26,-149.93 2318.52,-141.75 2121.26,-110.58 2067.72,-148.35 1869.52,-123.75 1859.83,-122.55 1849.57,-120.78 1839.73,-118.84"/>
<text text-anchor="middle" x="2413.27" y="-144.2" font-family="Times New Roman,serif" font-size="14.00">Ant&#45;Man</text>
</g>
</g>
</svg>
