<?xml version="1.0" encoding="UTF-8" standalone="no"?>
<!DOCTYPE svg PUBLIC "-//W3C//DTD SVG 1.1//EN"
 "http://www.w3.org/Graphics/SVG/1.1/DTD/svg11.dtd">
<!-- Generated by graphviz version 9.0.0 (20230911.1827)
 -->
<!-- Pages: 1 -->
<svg width="2716pt" height="746pt"
 viewBox="0.00 0.00 2715.75 746.00" xmlns="http://www.w3.org/2000/svg" xmlns:xlink="http://www.w3.org/1999/xlink">
<g id="graph0" class="graph" transform="scale(1 1) rotate(0) translate(4 742)">
<polygon fill="white" stroke="none" points="-4,4 -4,-742 2711.75,-742 2711.75,4 -4,4"/>
<!-- nm0000313 -->
<g id="node1" class="node">
<title>nm0000313</title>
<ellipse fill="none" stroke="black" cx="865" cy="-720" rx="53.56" ry="18"/>
<text text-anchor="middle" x="865" y="-714.58" font-family="Times New Roman,serif" font-size="14.00">nm0000313</text>
</g>
<!-- nm0005024 -->
<g id="node2" class="node">
<title>nm0005024</title>
<ellipse fill="none" stroke="black" cx="177" cy="-369" rx="53.56" ry="18"/>
<text text-anchor="middle" x="177" y="-363.57" font-family="Times New Roman,serif" font-size="14.00">nm0005024</text>
</g>
<!-- nm0000313&#45;&#45;nm0005024 -->
<g id="edge1" class="edge">
<title>nm0000313&#45;&#45;nm0005024</title>
<path fill="none" stroke="black" d="M811.39,-717.81C651.5,-713.57 189,-695.88 189,-633.25 189,-633.25 189,-633.25 189,-455.75 189,-431.85 184.37,-404.56 180.86,-387.31"/>
<text text-anchor="middle" x="226.88" y="-539.08" font-family="Times New Roman,serif" font-size="14.00">tt0371746 7.9</text>
</g>
<!-- nm0000168 -->
<g id="node3" class="node">
<title>nm0000168</title>
<ellipse fill="none" stroke="black" cx="1046" cy="-456.75" rx="53.56" ry="18"/>
<text text-anchor="middle" x="1046" y="-451.32" font-family="Times New Roman,serif" font-size="14.00">nm0000168</text>
</g>
<!-- nm0000313&#45;&#45;nm0000168 -->
<g id="edge2" class="edge">
<title>nm0000313&#45;&#45;nm0000168</title>
<path fill="none" stroke="black" d="M863.05,-701.78C859.87,-665.03 857.76,-578.09 901,-526.5 927.04,-495.43 970.32,-477.47 1002.83,-467.75"/>
<text text-anchor="middle" x="910.88" y="-582.95" font-family="Times New Roman,serif" font-size="14.00">tt0371746 7.9</text>
</g>
<!-- nm0000375 -->
<g id="node4" class="node">
<title>nm0000375</title>
<ellipse fill="none" stroke="black" cx="1119" cy="-632.25" rx="53.56" ry="18"/>
<text text-anchor="middle" x="1119" y="-626.83" font-family="Times New Roman,serif" font-size="14.00">nm0000375</text>
</g>
<!-- nm0000313&#45;&#45;nm0000375 -->
<g id="edge3" class="edge">
<title>nm0000313&#45;&#45;nm0000375</title>
<path fill="none" stroke="black" d="M901.93,-706.53C950.09,-690.27 1033.84,-662 1082.02,-645.73"/>
<text text-anchor="middle" x="1051.88" y="-670.7" font-family="Times New Roman,serif" font-size="14.00">tt0371746 7.9</text>
</g>
<!-- nm0000168&#45;&#45;nm0005024 -->
<g id="edge53" class="edge">
<title>nm0000168&#45;&#45;nm0005024</title>
<path fill="none" stroke="black" d="M995.72,-450.12C961.22,-446.43 914.39,-441.75 873,-438.75 701.82,-426.35 657.97,-438.44 487.25,-420.75 393.55,-411.04 370.95,-402.32 278,-387 260.37,-384.09 241.01,-380.85 224.01,-377.98"/>
<text text-anchor="middle" x="525.88" y="-407.45" font-family="Times New Roman,serif" font-size="14.00">tt0371746 7.9</text>
</g>
<!-- nm0424060 -->
<g id="node7" class="node">
<title>nm0424060</title>
<ellipse fill="none" stroke="black" cx="1349" cy="-193.5" rx="53.56" ry="18"/>
<text text-anchor="middle" x="1349" y="-188.07" font-family="Times New Roman,serif" font-size="14.00">nm0424060</text>
</g>
<!-- nm0000168&#45;&#45;nm0424060 -->
<g id="edge57" class="edge">
<title>nm0000168&#45;&#45;nm0424060</title>
<path fill="none" stroke="black" d="M1080.6,-442.55C1095.23,-436.52 1112.26,-428.91 1127,-420.75 1150.14,-407.94 1155.96,-404.26 1176,-387 1208.17,-359.3 1205.41,-340 1241.25,-317.25 1263.23,-303.3 1277.27,-316.24 1297,-299.25 1304.23,-293.02 1328.88,-239.45 1341.47,-211.43"/>
<text text-anchor="middle" x="1278.88" y="-319.7" font-family="Times New Roman,serif" font-size="14.00">tt1843866 7.8</text>
</g>
<!-- nm0749263 -->
<g id="node8" class="node">
<title>nm0749263</title>
<ellipse fill="none" stroke="black" cx="1831" cy="-105.75" rx="53.56" ry="18"/>
<text text-anchor="middle" x="1831" y="-100.33" font-family="Times New Roman,serif" font-size="14.00">nm0749263</text>
</g>
<!-- nm0000168&#45;&#45;nm0749263 -->
<g id="edge58" class="edge">
<title>nm0000168&#45;&#45;nm0749263</title>
<path fill="none" stroke="black" d="M1092.5,-447.48C1110.43,-444.46 1131.13,-441.2 1150,-438.75 1232.8,-428.01 1259.19,-451.02 1337,-420.75 1528.94,-346.08 1522.51,-233.29 1707,-141.75 1731.55,-129.57 1760.99,-121.03 1785.03,-115.44"/>
<text text-anchor="middle" x="1582.88" y="-275.82" font-family="Times New Roman,serif" font-size="14.00">tt0848228 8.0</text>
</g>
<!-- nm0470981 -->
<g id="node10" class="node">
<title>nm0470981</title>
<ellipse fill="none" stroke="black" cx="1117" cy="-281.25" rx="53.56" ry="18"/>
<text text-anchor="middle" x="1117" y="-275.82" font-family="Times New Roman,serif" font-size="14.00">nm0470981</text>
</g>
<!-- nm0000168&#45;&#45;nm0470981 -->
<g id="edge52" class="edge">
<title>nm0000168&#45;&#45;nm0470981</title>
<path fill="none" stroke="black" d="M1022.35,-440.39C994.32,-420.2 953.84,-383.48 974.25,-351 986.36,-331.73 1042.47,-308.64 1080.63,-294.72"/>
<text text-anchor="middle" x="1011.88" y="-363.57" font-family="Times New Roman,serif" font-size="14.00">tt1843866 7.8</text>
</g>
<!-- nm1107001 -->
<g id="node11" class="node">
<title>nm1107001</title>
<ellipse fill="none" stroke="black" cx="802" cy="-18" rx="53.56" ry="18"/>
<text text-anchor="middle" x="802" y="-12.57" font-family="Times New Roman,serif" font-size="14.00">nm1107001</text>
</g>
<!-- nm0000168&#45;&#45;nm1107001 -->
<g id="edge54" class="edge">
<title>nm0000168&#45;&#45;nm1107001</title>
<path fill="none" stroke="black" d="M1015.86,-441.47C955.08,-411.96 821.59,-343.36 798,-299.25 790.45,-285.14 793.99,-278.74 798,-263.25 800.3,-254.39 805.7,-254.11 808,-245.25 827.61,-169.56 813.11,-74.83 805.68,-36.4"/>
<text text-anchor="middle" x="849.88" y="-231.95" font-family="Times New Roman,serif" font-size="14.00">tt1843866 7.8</text>
</g>
<!-- nm0429363 -->
<g id="node12" class="node">
<title>nm0429363</title>
<ellipse fill="none" stroke="black" cx="1113" cy="-369" rx="53.56" ry="18"/>
<text text-anchor="middle" x="1113" y="-363.57" font-family="Times New Roman,serif" font-size="14.00">nm0429363</text>
</g>
<!-- nm0000168&#45;&#45;nm0429363 -->
<g id="edge56" class="edge">
<title>nm0000168&#45;&#45;nm0429363</title>
<path fill="none" stroke="black" d="M1042.29,-438.53C1041,-428.08 1041.14,-414.9 1047.25,-405 1053.64,-394.66 1064.2,-387.19 1075.01,-381.88"/>
<text text-anchor="middle" x="1084.88" y="-407.45" font-family="Times New Roman,serif" font-size="14.00">tt1843866 7.8</text>
</g>
<!-- nm0000982 -->
<g id="node23" class="node">
<title>nm0000982</title>
<ellipse fill="none" stroke="black" cx="698" cy="-369" rx="53.56" ry="18"/>
<text text-anchor="middle" x="698" y="-363.57" font-family="Times New Roman,serif" font-size="14.00">nm0000982</text>
</g>
<!-- nm0000168&#45;&#45;nm0000982 -->
<g id="edge55" class="edge">
<title>nm0000168&#45;&#45;nm0000982</title>
<path fill="none" stroke="black" d="M997.81,-448.43C959.67,-442.24 905.21,-432.52 858.25,-420.75 852.13,-419.22 781.1,-396.58 735.68,-382.06"/>
<text text-anchor="middle" x="896.88" y="-407.45" font-family="Times New Roman,serif" font-size="14.00">tt4154756 8.4</text>
</g>
<!-- nm0000375&#45;&#45;nm0005024 -->
<g id="edge24" class="edge">
<title>nm0000375&#45;&#45;nm0005024</title>
<path fill="none" stroke="black" d="M1067.1,-627.19C1010.96,-622.22 919,-612.42 841,-596.25 651.98,-557.07 605.84,-539.55 424,-474.75 344.36,-446.37 253.49,-405.58 207.35,-384.24"/>
<text text-anchor="middle" x="553.88" y="-495.2" font-family="Times New Roman,serif" font-size="14.00">tt0371746 7.9</text>
</g>
<!-- nm0000375&#45;&#45;nm0000168 -->
<g id="edge27" class="edge">
<title>nm0000375&#45;&#45;nm0000168</title>
<path fill="none" stroke="black" d="M1106.73,-614.46C1097.32,-600.97 1084.59,-581.25 1076.25,-562.5 1063.09,-532.93 1054.01,-496.12 1049.44,-474.95"/>
<text text-anchor="middle" x="1113.88" y="-539.08" font-family="Times New Roman,serif" font-size="14.00">tt0371746 7.9</text>
</g>
<!-- nm0001745 -->
<g id="node6" class="node">
<title>nm0001745</title>
<ellipse fill="none" stroke="black" cx="1577" cy="-544.5" rx="53.56" ry="18"/>
<text text-anchor="middle" x="1577" y="-539.08" font-family="Times New Roman,serif" font-size="14.00">nm0001745</text>
</g>
<!-- nm0000375&#45;&#45;nm0001745 -->
<g id="edge28" class="edge">
<title>nm0000375&#45;&#45;nm0001745</title>
<path fill="none" stroke="black" d="M1171.89,-628.49C1233.15,-624.54 1336.82,-615.49 1424,-596.25 1465.95,-586.99 1512.6,-570.59 1543.23,-558.94"/>
<text text-anchor="middle" x="1516.88" y="-582.95" font-family="Times New Roman,serif" font-size="14.00">tt0848228 8.0</text>
</g>
<!-- nm0000375&#45;&#45;nm0424060 -->
<g id="edge30" class="edge">
<title>nm0000375&#45;&#45;nm0424060</title>
<path fill="none" stroke="black" d="M1157.99,-619.65C1198.42,-607.18 1263.12,-585.95 1317,-562.5 1364.03,-542.03 1377.4,-538.51 1419,-508.5 1472.98,-469.56 1474.4,-445.47 1527.25,-405 1539.52,-395.6 1549.41,-400.46 1557,-387 1593.48,-322.28 1564.25,-268.48 1501,-229.5 1470.92,-210.96 1432,-202.23 1401.08,-198.12"/>
<text text-anchor="middle" x="1564.88" y="-407.45" font-family="Times New Roman,serif" font-size="14.00">tt0848228 8.0</text>
</g>
<!-- nm0000375&#45;&#45;nm0749263 -->
<g id="edge31" class="edge">
<title>nm0000375&#45;&#45;nm0749263</title>
<path fill="none" stroke="black" d="M1171.99,-629.12C1272.43,-624.75 1486.93,-613.66 1559,-596.25 1635.57,-577.75 1660.21,-566.97 1713,-508.5 1818.47,-391.69 1829.94,-185.12 1830.97,-124.15"/>
<text text-anchor="middle" x="1833.88" y="-363.57" font-family="Times New Roman,serif" font-size="14.00">tt0848228 8.0</text>
</g>
<!-- nm0000375&#45;&#45;nm1107001 -->
<g id="edge25" class="edge">
<title>nm0000375&#45;&#45;nm1107001</title>
<path fill="none" stroke="black" d="M1172.09,-629.05C1401.42,-619.46 2297.96,-580.94 2355,-562.5 2521.27,-508.76 2696.6,-415.02 2610,-263.25 2560.18,-175.95 2308.08,-70.94 2209,-54 2074.05,-30.93 1096.96,-21.43 855.73,-19.42"/>
<text text-anchor="middle" x="2669.88" y="-319.7" font-family="Times New Roman,serif" font-size="14.00">tt4154756 8.4</text>
</g>
<!-- nm0000375&#45;&#45;nm0000982 -->
<g id="edge26" class="edge">
<title>nm0000375&#45;&#45;nm0000982</title>
<path fill="none" stroke="black" d="M1066.16,-628.5C1002.29,-624.4 899.24,-615.05 866,-596.25 778.49,-546.74 723.22,-430.93 704.82,-387.16"/>
<text text-anchor="middle" x="809.88" y="-495.2" font-family="Times New Roman,serif" font-size="14.00">tt4154756 8.4</text>
</g>
<!-- nm0000458 -->
<g id="node24" class="node">
<title>nm0000458</title>
<ellipse fill="none" stroke="black" cx="964" cy="-544.5" rx="53.56" ry="18"/>
<text text-anchor="middle" x="964" y="-539.08" font-family="Times New Roman,serif" font-size="14.00">nm0000458</text>
</g>
<!-- nm0000375&#45;&#45;nm0000458 -->
<g id="edge29" class="edge">
<title>nm0000375&#45;&#45;nm0000458</title>
<path fill="none" stroke="black" d="M1068.04,-626.34C1028.47,-621.36 978.21,-612.09 965.25,-596.25 957.77,-587.11 957.78,-573.63 959.49,-562.86"/>
<text text-anchor="middle" x="1002.88" y="-582.95" font-family="Times New Roman,serif" font-size="14.00">tt4154756 8.4</text>
</g>
<!-- nm0001765 -->
<g id="node5" class="node">
<title>nm0001765</title>
<ellipse fill="none" stroke="black" cx="1577" cy="-720" rx="53.56" ry="18"/>
<text text-anchor="middle" x="1577" y="-714.58" font-family="Times New Roman,serif" font-size="14.00">nm0001765</text>
</g>
<!-- nm0001765&#45;&#45;nm0000168 -->
<g id="edge7" class="edge">
<title>nm0001765&#45;&#45;nm0000168</title>
<path fill="none" stroke="black" d="M1536.39,-707.83C1463.45,-686.66 1307.02,-636.1 1191,-562.5 1171.08,-549.86 1170.63,-540.97 1152,-526.5 1125.84,-506.18 1093.66,-485.91 1071.67,-472.71"/>
<text text-anchor="middle" x="1284.88" y="-582.95" font-family="Times New Roman,serif" font-size="14.00">tt0848228 8.0</text>
</g>
<!-- nm0001765&#45;&#45;nm0000375 -->
<g id="edge6" class="edge">
<title>nm0001765&#45;&#45;nm0000375</title>
<path fill="none" stroke="black" d="M1523.76,-717.31C1459.2,-714.33 1347.46,-706.17 1254.25,-684 1217.29,-675.21 1176.7,-659.05 1149.73,-647.32"/>
<text text-anchor="middle" x="1291.88" y="-670.7" font-family="Times New Roman,serif" font-size="14.00">tt0848228 8.0</text>
</g>
<!-- nm0001765&#45;&#45;nm0001745 -->
<g id="edge4" class="edge">
<title>nm0001765&#45;&#45;nm0001745</title>
<path fill="none" stroke="black" d="M1577,-701.73C1577,-668.56 1577,-596.28 1577,-562.96"/>
<text text-anchor="middle" x="1614.88" y="-626.83" font-family="Times New Roman,serif" font-size="14.00">tt0848228 8.0</text>
</g>
<!-- nm0001765&#45;&#45;nm0424060 -->
<g id="edge5" class="edge">
<title>nm0001765&#45;&#45;nm0424060</title>
<path fill="none" stroke="black" d="M1616.06,-707.4C1663.02,-691.11 1739.65,-656.49 1773,-596.25 1795.28,-556.01 1784.21,-537.36 1773,-492.75 1756.27,-426.13 1669.78,-265.04 1611,-229.5 1576.88,-208.87 1468.39,-200.12 1402.19,-196.63"/>
<text text-anchor="middle" x="1804.88" y="-451.32" font-family="Times New Roman,serif" font-size="14.00">tt0848228 8.0</text>
</g>
<!-- nm0001765&#45;&#45;nm0749263 -->
<g id="edge8" class="edge">
<title>nm0001765&#45;&#45;nm0749263</title>
<path fill="none" stroke="black" d="M1629.61,-716.27C1723.22,-709.96 1909,-690.25 1909,-633.25 1909,-633.25 1909,-633.25 1909,-411.88 1909,-298.97 1858.25,-169.68 1838.62,-123.9"/>
<text text-anchor="middle" x="1946.88" y="-407.45" font-family="Times New Roman,serif" font-size="14.00">tt0848228 8.0</text>
</g>
<!-- nm0001745&#45;&#45;nm0000168 -->
<g id="edge40" class="edge">
<title>nm0001745&#45;&#45;nm0000168</title>
<path fill="none" stroke="black" d="M1529.05,-536C1464.37,-525.92 1345.56,-507.57 1244,-492.75 1186.72,-484.39 1171.85,-485.69 1115,-474.75 1105.91,-473 1096.23,-470.82 1087.08,-468.61"/>
<text text-anchor="middle" x="1381.88" y="-495.2" font-family="Times New Roman,serif" font-size="14.00">tt0848228 8.0</text>
</g>
<!-- nm0001745&#45;&#45;nm0424060 -->
<g id="edge41" class="edge">
<title>nm0001745&#45;&#45;nm0424060</title>
<path fill="none" stroke="black" d="M1590.1,-526.83C1601.76,-510.29 1617,-483.7 1617,-457.75 1617,-457.75 1617,-457.75 1617,-280.25 1617,-254.49 1610.18,-244.17 1589,-229.5 1559.58,-209.12 1463.4,-200.37 1402.1,-196.8"/>
<text text-anchor="middle" x="1654.88" y="-363.57" font-family="Times New Roman,serif" font-size="14.00">tt0848228 8.0</text>
</g>
<!-- nm0001745&#45;&#45;nm0749263 -->
<g id="edge42" class="edge">
<title>nm0001745&#45;&#45;nm0749263</title>
<path fill="none" stroke="black" d="M1624.15,-535.63C1666.15,-525.61 1721,-503.72 1721,-457.75 1721,-457.75 1721,-457.75 1721,-192.5 1721,-154.97 1761.33,-131.45 1793.14,-118.73"/>
<text text-anchor="middle" x="1758.88" y="-319.7" font-family="Times New Roman,serif" font-size="14.00">tt0848228 8.0</text>
</g>
<!-- nm0424060&#45;&#45;nm0749263 -->
<g id="edge76" class="edge">
<title>nm0424060&#45;&#45;nm0749263</title>
<path fill="none" stroke="black" d="M1362.33,-175.68C1372.67,-163.97 1388.11,-149.16 1405.25,-141.75 1470.69,-113.46 1677.95,-107.92 1777.12,-106.92"/>
<text text-anchor="middle" x="1442.88" y="-144.2" font-family="Times New Roman,serif" font-size="14.00">tt0848228 8.0</text>
</g>
<!-- nm0424060&#45;&#45;nm1107001 -->
<g id="edge75" class="edge">
<title>nm0424060&#45;&#45;nm1107001</title>
<path fill="none" stroke="black" d="M1318.81,-178.44C1258.4,-150.8 1117.8,-89.08 994,-54 946.41,-40.51 890.65,-31.03 851.52,-25.36"/>
<text text-anchor="middle" x="1226.88" y="-100.33" font-family="Times New Roman,serif" font-size="14.00">tt1843866 7.8</text>
</g>
<!-- nm0749263&#45;&#45;nm1107001 -->
<g id="edge80" class="edge">
<title>nm0749263&#45;&#45;nm1107001</title>
<path fill="none" stroke="black" d="M1779.27,-100.44C1603.31,-85.78 1029.18,-37.93 853.53,-23.29"/>
<text text-anchor="middle" x="1445.88" y="-56.45" font-family="Times New Roman,serif" font-size="14.00">tt4154756 8.4</text>
</g>
<!-- nm0000949 -->
<g id="node19" class="node">
<title>nm0000949</title>
<ellipse fill="none" stroke="black" cx="2373" cy="-18" rx="53.56" ry="18"/>
<text text-anchor="middle" x="2373" y="-12.57" font-family="Times New Roman,serif" font-size="14.00">nm0000949</text>
</g>
<!-- nm0749263&#45;&#45;nm0000949 -->
<g id="edge81" class="edge">
<title>nm0749263&#45;&#45;nm0000949</title>
<path fill="none" stroke="black" d="M1877.43,-96.47C1936.05,-86.1 2040,-68 2129.25,-54 2196.62,-43.43 2274.66,-32.45 2323.92,-25.67"/>
<text text-anchor="middle" x="2166.88" y="-56.45" font-family="Times New Roman,serif" font-size="14.00">tt3501632 7.9</text>
</g>
<!-- nm0000602 -->
<g id="node9" class="node">
<title>nm0000602</title>
<ellipse fill="none" stroke="black" cx="1254" cy="-544.5" rx="53.56" ry="18"/>
<text text-anchor="middle" x="1254" y="-539.08" font-family="Times New Roman,serif" font-size="14.00">nm0000602</text>
</g>
<!-- nm0000602&#45;&#45;nm0000168 -->
<g id="edge13" class="edge">
<title>nm0000602&#45;&#45;nm0000168</title>
<path fill="none" stroke="black" d="M1216.93,-531.16C1200.43,-525.14 1180.98,-517.29 1164.25,-508.5 1153.2,-502.7 1152.1,-498.45 1141,-492.75 1123.02,-483.52 1102.02,-475.52 1084.35,-469.51"/>
<text text-anchor="middle" x="1201.88" y="-495.2" font-family="Times New Roman,serif" font-size="14.00">tt1843866 7.8</text>
</g>
<!-- nm0000602&#45;&#45;nm0424060 -->
<g id="edge12" class="edge">
<title>nm0000602&#45;&#45;nm0424060</title>
<path fill="none" stroke="black" d="M1297.54,-533.75C1338.11,-524.52 1392.96,-511.63 1397,-508.5 1459.72,-459.84 1441.75,-419.86 1481.25,-351 1494.68,-327.59 1505.67,-325.22 1513,-299.25 1517.35,-283.85 1521.86,-276.57 1513,-263.25 1487.78,-225.33 1437.18,-208.29 1398.82,-200.65"/>
<text text-anchor="middle" x="1518.88" y="-363.57" font-family="Times New Roman,serif" font-size="14.00">tt1843866 7.8</text>
</g>
<!-- nm0000602&#45;&#45;nm0470981 -->
<g id="edge9" class="edge">
<title>nm0000602&#45;&#45;nm0470981</title>
<path fill="none" stroke="black" d="M1260.3,-526.27C1267.05,-505.05 1275.48,-468.21 1265,-438.75 1242.12,-374.45 1176.65,-322.29 1140.94,-297.64"/>
<text text-anchor="middle" x="1294.88" y="-407.45" font-family="Times New Roman,serif" font-size="14.00">tt1843866 7.8</text>
</g>
<!-- nm0000602&#45;&#45;nm1107001 -->
<g id="edge10" class="edge">
<title>nm0000602&#45;&#45;nm1107001</title>
<path fill="none" stroke="black" d="M1211.27,-533.33C1140.39,-516.37 1004.15,-483.29 983,-474.75 953.1,-462.67 950.09,-450.34 920,-438.75 885.18,-425.34 863.43,-448.05 838,-420.75 789.99,-369.2 776.92,-318.79 820.25,-263.25 840.47,-237.33 860.73,-255.4 892,-245.25 930.27,-232.83 953.47,-244.83 976,-211.5 993.36,-185.82 987.02,-170.73 976,-141.75 957.46,-92.98 941.16,-83.33 898,-54 881.86,-43.03 861.87,-35.03 844.31,-29.46"/>
<text text-anchor="middle" x="858.88" y="-275.82" font-family="Times New Roman,serif" font-size="14.00">tt1843866 7.8</text>
</g>
<!-- nm0000602&#45;&#45;nm0429363 -->
<g id="edge11" class="edge">
<title>nm0000602&#45;&#45;nm0429363</title>
<path fill="none" stroke="black" d="M1253.18,-526.02C1251.79,-515.2 1248.34,-501.71 1240,-492.75 1223.69,-475.23 1208.43,-489.07 1189.25,-474.75 1157.34,-450.93 1133.11,-409.98 1121.19,-386.97"/>
<text text-anchor="middle" x="1226.88" y="-451.32" font-family="Times New Roman,serif" font-size="14.00">tt1843866 7.8</text>
</g>
<!-- nm0470981&#45;&#45;nm0424060 -->
<g id="edge72" class="edge">
<title>nm0470981&#45;&#45;nm0424060</title>
<path fill="none" stroke="black" d="M1111.95,-263.23C1109.83,-252.32 1109.41,-238.56 1117.25,-229.5 1139.8,-203.41 1234.09,-196.53 1295.23,-194.85"/>
<text text-anchor="middle" x="1154.88" y="-231.95" font-family="Times New Roman,serif" font-size="14.00">tt1843866 7.8</text>
</g>
<!-- nm0470981&#45;&#45;nm1107001 -->
<g id="edge71" class="edge">
<title>nm0470981&#45;&#45;nm1107001</title>
<path fill="none" stroke="black" d="M1102.57,-263.64C1067.09,-223.54 971.4,-119.87 875,-54 862.82,-45.67 848.34,-38.29 835.51,-32.48"/>
<text text-anchor="middle" x="1035.88" y="-144.2" font-family="Times New Roman,serif" font-size="14.00">tt1843866 7.8</text>
</g>
<!-- nm0429363&#45;&#45;nm0424060 -->
<g id="edge70" class="edge">
<title>nm0429363&#45;&#45;nm0424060</title>
<path fill="none" stroke="black" d="M1136.84,-352.73C1145.14,-346.96 1154.3,-340.08 1162,-333 1191.94,-305.47 1189.63,-288.83 1221.25,-263.25 1250.43,-239.65 1288.92,-220.23 1315.99,-208.12"/>
<text text-anchor="middle" x="1258.88" y="-275.82" font-family="Times New Roman,serif" font-size="14.00">tt1843866 7.8</text>
</g>
<!-- nm0429363&#45;&#45;nm0470981 -->
<g id="edge68" class="edge">
<title>nm0429363&#45;&#45;nm0470981</title>
<path fill="none" stroke="black" d="M1096.25,-351.57C1088.44,-341.87 1081.75,-329.18 1086.25,-317.25 1088.87,-310.29 1093.58,-303.81 1098.54,-298.37"/>
<text text-anchor="middle" x="1123.88" y="-319.7" font-family="Times New Roman,serif" font-size="14.00">tt1843866 7.8</text>
</g>
<!-- nm0429363&#45;&#45;nm1107001 -->
<g id="edge69" class="edge">
<title>nm0429363&#45;&#45;nm1107001</title>
<path fill="none" stroke="black" d="M1073.81,-356.43C1028.64,-342.46 958.05,-318.43 938,-299.25 913.49,-275.79 921.46,-260.19 907,-229.5 872.79,-156.91 829.23,-71.74 810.83,-36.06"/>
<text text-anchor="middle" x="935.88" y="-188.07" font-family="Times New Roman,serif" font-size="14.00">tt1843866 7.8</text>
</g>
<!-- nm0000140 -->
<g id="node13" class="node">
<title>nm0000140</title>
<ellipse fill="none" stroke="black" cx="341" cy="-369" rx="53.56" ry="18"/>
<text text-anchor="middle" x="341" y="-363.57" font-family="Times New Roman,serif" font-size="14.00">nm0000140</text>
</g>
<!-- nm0000140&#45;&#45;nm1107001 -->
<g id="edge14" class="edge">
<title>nm0000140&#45;&#45;nm1107001</title>
<path fill="none" stroke="black" d="M352.33,-351.14C367.48,-328.03 394.47,-284.87 412,-245.25 425.17,-215.49 412.5,-199.7 434.25,-175.5 520.53,-79.53 675.57,-40.4 753.9,-26.18"/>
<text text-anchor="middle" x="472.88" y="-188.07" font-family="Times New Roman,serif" font-size="14.00">tt0478970 7.3</text>
</g>
<!-- nm0748620 -->
<g id="node14" class="node">
<title>nm0748620</title>
<ellipse fill="none" stroke="black" cx="183" cy="-193.5" rx="53.56" ry="18"/>
<text text-anchor="middle" x="183" y="-188.07" font-family="Times New Roman,serif" font-size="14.00">nm0748620</text>
</g>
<!-- nm0000140&#45;&#45;nm0748620 -->
<g id="edge15" class="edge">
<title>nm0000140&#45;&#45;nm0748620</title>
<path fill="none" stroke="black" d="M300.75,-356.79C238.58,-339.3 125.75,-306.73 120.25,-299.25 98.26,-269.37 135.66,-231.39 161.52,-210.35"/>
<text text-anchor="middle" x="158.88" y="-275.82" font-family="Times New Roman,serif" font-size="14.00">tt0478970 7.3</text>
</g>
<!-- nm0339460 -->
<g id="node15" class="node">
<title>nm0339460</title>
<ellipse fill="none" stroke="black" cx="336" cy="-105.75" rx="53.56" ry="18"/>
<text text-anchor="middle" x="336" y="-100.33" font-family="Times New Roman,serif" font-size="14.00">nm0339460</text>
</g>
<!-- nm0000140&#45;&#45;nm0339460 -->
<g id="edge16" class="edge">
<title>nm0000140&#45;&#45;nm0339460</title>
<path fill="none" stroke="black" d="M335.28,-351.02C327.13,-323.62 315.33,-268.79 336.25,-229.5 342.98,-216.85 356.27,-224.15 363,-211.5 370.52,-197.38 365.98,-191.22 363,-175.5 359.52,-157.1 351.23,-137.33 344.74,-123.73"/>
<text text-anchor="middle" x="374.88" y="-231.95" font-family="Times New Roman,serif" font-size="14.00">tt0478970 7.3</text>
</g>
<!-- nm0671567 -->
<g id="node16" class="node">
<title>nm0671567</title>
<ellipse fill="none" stroke="black" cx="259" cy="-281.25" rx="53.56" ry="18"/>
<text text-anchor="middle" x="259" y="-275.82" font-family="Times New Roman,serif" font-size="14.00">nm0671567</text>
</g>
<!-- nm0000140&#45;&#45;nm0671567 -->
<g id="edge17" class="edge">
<title>nm0000140&#45;&#45;nm0671567</title>
<path fill="none" stroke="black" d="M300.16,-356.97C279.38,-350.45 257.24,-341.77 251.25,-333 244.51,-323.14 246.95,-309.7 250.81,-299.12"/>
<text text-anchor="middle" x="289.88" y="-319.7" font-family="Times New Roman,serif" font-size="14.00">tt0478970 7.3</text>
</g>
<!-- nm0748620&#45;&#45;nm1107001 -->
<g id="edge83" class="edge">
<title>nm0748620&#45;&#45;nm1107001</title>
<path fill="none" stroke="black" d="M180.03,-175.29C177.13,-152.37 175.83,-111.93 197.25,-87.75 233.57,-46.74 607.88,-27.06 748.77,-21.06"/>
<text text-anchor="middle" x="235.88" y="-100.33" font-family="Times New Roman,serif" font-size="14.00">tt0478970 7.3</text>
</g>
<!-- nm0748620&#45;&#45;nm0339460 -->
<g id="edge82" class="edge">
<title>nm0748620&#45;&#45;nm0339460</title>
<path fill="none" stroke="black" d="M192.61,-175.68C199.75,-164.58 210.45,-150.52 223.25,-141.75 234.92,-133.76 266.77,-124.21 293.65,-117.11"/>
<text text-anchor="middle" x="261.88" y="-144.2" font-family="Times New Roman,serif" font-size="14.00">tt0478970 7.3</text>
</g>
<!-- nm0339460&#45;&#45;nm1107001 -->
<g id="edge84" class="edge">
<title>nm0339460&#45;&#45;nm1107001</title>
<path fill="none" stroke="black" d="M330.73,-87.53C328.52,-76.54 328.08,-62.76 336.25,-54 363.86,-24.38 631.95,-19.68 748.42,-19.04"/>
<text text-anchor="middle" x="374.88" y="-56.45" font-family="Times New Roman,serif" font-size="14.00">tt0478970 7.3</text>
</g>
<!-- nm0671567&#45;&#45;nm1107001 -->
<g id="edge79" class="edge">
<title>nm0671567&#45;&#45;nm1107001</title>
<path fill="none" stroke="black" d="M221.65,-268.06C165.12,-247.4 67.6,-201.83 99.25,-141.75 133.08,-77.53 167.46,-74.81 237,-54 331.62,-25.69 625.96,-20.26 748.07,-19.23"/>
<text text-anchor="middle" x="137.88" y="-144.2" font-family="Times New Roman,serif" font-size="14.00">tt0478970 7.3</text>
</g>
<!-- nm0671567&#45;&#45;nm0748620 -->
<g id="edge77" class="edge">
<title>nm0671567&#45;&#45;nm0748620</title>
<path fill="none" stroke="black" d="M216.03,-270.03C203.3,-264.79 190.77,-256.95 183.25,-245.25 176.96,-235.47 177.09,-222.28 178.69,-211.8"/>
<text text-anchor="middle" x="221.88" y="-231.95" font-family="Times New Roman,serif" font-size="14.00">tt0478970 7.3</text>
</g>
<!-- nm0671567&#45;&#45;nm0339460 -->
<g id="edge78" class="edge">
<title>nm0671567&#45;&#45;nm0339460</title>
<path fill="none" stroke="black" d="M261.74,-262.91C265.53,-241.59 273.53,-204.64 287.25,-175.5 289.87,-169.94 310.04,-142.07 323.61,-123.57"/>
<text text-anchor="middle" x="325.88" y="-188.07" font-family="Times New Roman,serif" font-size="14.00">tt0478970 7.3</text>
</g>
<!-- nm0000164 -->
<g id="node17" class="node">
<title>nm0000164</title>
<ellipse fill="none" stroke="black" cx="2292" cy="-544.5" rx="53.56" ry="18"/>
<text text-anchor="middle" x="2292" y="-539.08" font-family="Times New Roman,serif" font-size="14.00">nm0000164</text>
</g>
<!-- nm0000164&#45;&#45;nm0749263 -->
<g id="edge23" class="edge">
<title>nm0000164&#45;&#45;nm0749263</title>
<path fill="none" stroke="black" d="M2242.2,-537.73C2195,-530.11 2124.2,-512.88 2075,-474.75 1995.03,-412.77 1982.34,-385.84 1930,-299.25 1890.74,-234.3 1905.37,-205.38 1864,-141.75 1859.72,-135.17 1854.14,-128.7 1848.78,-123.15"/>
<text text-anchor="middle" x="1987.88" y="-319.7" font-family="Times New Roman,serif" font-size="14.00">tt3501632 7.9</text>
</g>
<!-- nm0000554 -->
<g id="node18" class="node">
<title>nm0000554</title>
<ellipse fill="none" stroke="black" cx="2328" cy="-369" rx="53.56" ry="18"/>
<text text-anchor="middle" x="2328" y="-363.57" font-family="Times New Roman,serif" font-size="14.00">nm0000554</text>
</g>
<!-- nm0000164&#45;&#45;nm0000554 -->
<g id="edge18" class="edge">
<title>nm0000164&#45;&#45;nm0000554</title>
<path fill="none" stroke="black" d="M2306.12,-526.67C2309.97,-521.2 2313.72,-514.88 2316,-508.5 2330.89,-466.92 2330.62,-414.01 2329.26,-387.22"/>
<text text-anchor="middle" x="2365.88" y="-451.32" font-family="Times New Roman,serif" font-size="14.00">tt3501632 7.9</text>
</g>
<!-- nm0000164&#45;&#45;nm0000949 -->
<g id="edge19" class="edge">
<title>nm0000164&#45;&#45;nm0000949</title>
<path fill="none" stroke="black" d="M2336.16,-533.85C2388.97,-519.55 2474.2,-486.97 2506,-420.75 2571.54,-284.25 2510.47,-218.44 2434,-87.75 2424.96,-72.3 2423.65,-67.6 2412,-54 2406.32,-47.37 2399.41,-40.79 2393,-35.15"/>
<text text-anchor="middle" x="2570.88" y="-275.82" font-family="Times New Roman,serif" font-size="14.00">tt3501632 7.9</text>
</g>
<!-- nm0038355 -->
<g id="node20" class="node">
<title>nm0038355</title>
<ellipse fill="none" stroke="black" cx="2114" cy="-193.5" rx="53.56" ry="18"/>
<text text-anchor="middle" x="2114" y="-188.07" font-family="Times New Roman,serif" font-size="14.00">nm0038355</text>
</g>
<!-- nm0000164&#45;&#45;nm0038355 -->
<g id="edge20" class="edge">
<title>nm0000164&#45;&#45;nm0038355</title>
<path fill="none" stroke="black" d="M2249.86,-532.93C2189.03,-514.96 2079.97,-471.87 2044.25,-387 2017.36,-323.11 2071.91,-244.86 2099.43,-211.2"/>
<text text-anchor="middle" x="2081.88" y="-363.57" font-family="Times New Roman,serif" font-size="14.00">tt3501632 7.9</text>
</g>
<!-- nm0000156 -->
<g id="node21" class="node">
<title>nm0000156</title>
<ellipse fill="none" stroke="black" cx="2197" cy="-456.75" rx="53.56" ry="18"/>
<text text-anchor="middle" x="2197" y="-451.32" font-family="Times New Roman,serif" font-size="14.00">nm0000156</text>
</g>
<!-- nm0000164&#45;&#45;nm0000156 -->
<g id="edge21" class="edge">
<title>nm0000164&#45;&#45;nm0000156</title>
<path fill="none" stroke="black" d="M2266.51,-528.23C2257.81,-522.52 2248.25,-515.66 2240.25,-508.5 2228.69,-498.16 2217.38,-484.74 2209.23,-474.3"/>
<text text-anchor="middle" x="2277.88" y="-495.2" font-family="Times New Roman,serif" font-size="14.00">tt3501632 7.9</text>
</g>
<!-- nm0000354 -->
<g id="node22" class="node">
<title>nm0000354</title>
<ellipse fill="none" stroke="black" cx="2307" cy="-281.25" rx="53.56" ry="18"/>
<text text-anchor="middle" x="2307" y="-275.82" font-family="Times New Roman,serif" font-size="14.00">nm0000354</text>
</g>
<!-- nm0000164&#45;&#45;nm0000354 -->
<g id="edge22" class="edge">
<title>nm0000164&#45;&#45;nm0000354</title>
<path fill="none" stroke="black" d="M2331.02,-531.82C2357.89,-521.5 2391.6,-503.53 2408,-474.75 2443.24,-412.91 2426.46,-370.29 2379,-317.25 2369.92,-307.1 2357.24,-299.59 2345.04,-294.19"/>
<text text-anchor="middle" x="2463.88" y="-407.45" font-family="Times New Roman,serif" font-size="14.00">tt3501632 7.9</text>
</g>
<!-- nm0000554&#45;&#45;nm0749263 -->
<g id="edge45" class="edge">
<title>nm0000554&#45;&#45;nm0749263</title>
<path fill="none" stroke="black" d="M2289.83,-355.99C2282.94,-354.11 2275.8,-352.35 2269,-351 2198.81,-337.04 2172.82,-365.37 2109,-333 2009.91,-282.73 2039.64,-204.58 1948,-141.75 1927.54,-127.72 1901.34,-119.21 1878.93,-114.09"/>
<text text-anchor="middle" x="2064.88" y="-231.95" font-family="Times New Roman,serif" font-size="14.00">tt3501632 7.9</text>
</g>
<!-- nm0000554&#45;&#45;nm0000949 -->
<g id="edge43" class="edge">
<title>nm0000554&#45;&#45;nm0000949</title>
<path fill="none" stroke="black" d="M2355.98,-353.61C2363.55,-348.24 2370.8,-341.36 2375,-333 2406.44,-270.39 2342.61,-240.7 2368.25,-175.5 2372.25,-165.33 2381,-167.67 2385,-157.5 2387.56,-150.99 2385.34,-148.74 2385,-141.75 2383.16,-104.11 2378.18,-60.21 2375.25,-36.44"/>
<text text-anchor="middle" x="2405.88" y="-188.07" font-family="Times New Roman,serif" font-size="14.00">tt3501632 7.9</text>
</g>
<!-- nm0000554&#45;&#45;nm0038355 -->
<g id="edge44" class="edge">
<title>nm0000554&#45;&#45;nm0038355</title>
<path fill="none" stroke="black" d="M2291.29,-355.47C2250.19,-340.88 2186.87,-316.58 2168.25,-299.25 2154.46,-286.41 2132.47,-237.91 2121.19,-211.65"/>
<text text-anchor="middle" x="2205.88" y="-275.82" font-family="Times New Roman,serif" font-size="14.00">tt3501632 7.9</text>
</g>
<!-- nm0000554&#45;&#45;nm0000354 -->
<g id="edge46" class="edge">
<title>nm0000554&#45;&#45;nm0000354</title>
<path fill="none" stroke="black" d="M2310.72,-351.7C2306.09,-346.25 2301.69,-339.81 2299.25,-333 2295.4,-322.26 2297.34,-309.57 2300.24,-299.57"/>
<text text-anchor="middle" x="2336.88" y="-319.7" font-family="Times New Roman,serif" font-size="14.00">tt3501632 7.9</text>
</g>
<!-- nm0038355&#45;&#45;nm0749263 -->
<g id="edge74" class="edge">
<title>nm0038355&#45;&#45;nm0749263</title>
<path fill="none" stroke="black" d="M2085.35,-177.83C2062.48,-166.62 2029.34,-151.48 1999,-141.75 1959.43,-129.05 1913.1,-119.8 1879.12,-114.01"/>
<text text-anchor="middle" x="2074.88" y="-144.2" font-family="Times New Roman,serif" font-size="14.00">tt3501632 7.9</text>
</g>
<!-- nm0038355&#45;&#45;nm0000949 -->
<g id="edge73" class="edge">
<title>nm0038355&#45;&#45;nm0000949</title>
<path fill="none" stroke="black" d="M2129.84,-176.1C2151.68,-154.1 2192.92,-114.69 2233.25,-87.75 2267.54,-64.84 2310.57,-44.83 2339.76,-32.39"/>
<text text-anchor="middle" x="2270.88" y="-100.33" font-family="Times New Roman,serif" font-size="14.00">tt3501632 7.9</text>
</g>
<!-- nm0000156&#45;&#45;nm0749263 -->
<g id="edge38" class="edge">
<title>nm0000156&#45;&#45;nm0749263</title>
<path fill="none" stroke="black" d="M2174.95,-440.01C2167.18,-434.19 2158.52,-427.4 2151,-420.75 2134.79,-406.41 2100.95,-363.1 2083,-351 2057.77,-334 1977.15,-321.36 1956.25,-299.25 1905.38,-245.46 1950.94,-197.3 1902,-141.75 1893.19,-131.75 1880.86,-124.3 1868.95,-118.91"/>
<text text-anchor="middle" x="1993.88" y="-275.82" font-family="Times New Roman,serif" font-size="14.00">tt3501632 7.9</text>
</g>
<!-- nm0000156&#45;&#45;nm0000554 -->
<g id="edge35" class="edge">
<title>nm0000156&#45;&#45;nm0000554</title>
<path fill="none" stroke="black" d="M2199.21,-438.55C2201.47,-427.58 2206.05,-413.8 2215.25,-405 2220.67,-399.81 2256.81,-389.1 2286.74,-380.88"/>
<text text-anchor="middle" x="2252.88" y="-407.45" font-family="Times New Roman,serif" font-size="14.00">tt3501632 7.9</text>
</g>
<!-- nm0000156&#45;&#45;nm0000949 -->
<g id="edge36" class="edge">
<title>nm0000156&#45;&#45;nm0000949</title>
<path fill="none" stroke="black" d="M2247.98,-450.87C2291.94,-443.95 2354.01,-427.26 2391,-387 2439.96,-333.72 2402.93,-295.65 2432.25,-229.5 2436.12,-220.77 2441.28,-220.66 2444,-211.5 2448.56,-196.16 2447.21,-191.17 2444,-175.5 2432.92,-121.43 2400.77,-63.78 2383.8,-35.96"/>
<text text-anchor="middle" x="2469.88" y="-231.95" font-family="Times New Roman,serif" font-size="14.00">tt3501632 7.9</text>
</g>
<!-- nm0000156&#45;&#45;nm0038355 -->
<g id="edge37" class="edge">
<title>nm0000156&#45;&#45;nm0038355</title>
<path fill="none" stroke="black" d="M2181.71,-439.04C2162.46,-416.77 2130.31,-375.25 2117.25,-333 2104.25,-290.95 2108.18,-238.24 2111.47,-211.61"/>
<text text-anchor="middle" x="2154.88" y="-319.7" font-family="Times New Roman,serif" font-size="14.00">tt3501632 7.9</text>
</g>
<!-- nm0000156&#45;&#45;nm0000354 -->
<g id="edge39" class="edge">
<title>nm0000156&#45;&#45;nm0000354</title>
<path fill="none" stroke="black" d="M2190.13,-438.48C2182.6,-416.58 2173.54,-378.36 2189.25,-351 2205.93,-321.95 2240.14,-304.01 2267.41,-293.77"/>
<text text-anchor="middle" x="2226.88" y="-363.57" font-family="Times New Roman,serif" font-size="14.00">tt3501632 7.9</text>
</g>
<!-- nm0000354&#45;&#45;nm0749263 -->
<g id="edge67" class="edge">
<title>nm0000354&#45;&#45;nm0749263</title>
<path fill="none" stroke="black" d="M2294.13,-263.52C2285.18,-252.74 2272.48,-239.01 2259,-229.5 2242.82,-218.08 2234.95,-222.13 2218.25,-211.5 2197.72,-198.44 2196.88,-189.54 2177,-175.5 2152.01,-157.85 2146.07,-151.29 2117,-141.75 2038.93,-116.13 1943.31,-108.98 1884.79,-107.14"/>
<text text-anchor="middle" x="2255.88" y="-188.07" font-family="Times New Roman,serif" font-size="14.00">tt3501632 7.9</text>
</g>
<!-- nm0000354&#45;&#45;nm0000949 -->
<g id="edge65" class="edge">
<title>nm0000354&#45;&#45;nm0000949</title>
<path fill="none" stroke="black" d="M2304.77,-262.86C2301.91,-236.28 2298.52,-184.18 2309.25,-141.75 2319.55,-101.01 2345.56,-58.61 2360.99,-35.85"/>
<text text-anchor="middle" x="2346.88" y="-144.2" font-family="Times New Roman,serif" font-size="14.00">tt3501632 7.9</text>
</g>
<!-- nm0000354&#45;&#45;nm0038355 -->
<g id="edge66" class="edge">
<title>nm0000354&#45;&#45;nm0038355</title>
<path fill="none" stroke="black" d="M2265.77,-269.37C2232.79,-260.54 2190.85,-248.96 2183.25,-245.25 2178.03,-242.7 2153.45,-224.41 2135.05,-210.51"/>
<text text-anchor="middle" x="2220.88" y="-231.95" font-family="Times New Roman,serif" font-size="14.00">tt3501632 7.9</text>
</g>
<!-- nm0000982&#45;&#45;nm0424060 -->
<g id="edge60" class="edge">
<title>nm0000982&#45;&#45;nm0424060</title>
<path fill="none" stroke="black" d="M736.78,-356.11C777.77,-343.25 844.09,-321.56 900,-299.25 935.56,-285.06 942.21,-276.15 978.25,-263.25 1087.96,-223.98 1224.35,-206.08 1297.27,-198.82"/>
<text text-anchor="middle" x="1015.88" y="-275.82" font-family="Times New Roman,serif" font-size="14.00">tt4154756 8.4</text>
</g>
<!-- nm0000982&#45;&#45;nm0749263 -->
<g id="edge63" class="edge">
<title>nm0000982&#45;&#45;nm0749263</title>
<path fill="none" stroke="black" d="M705.63,-350.78C707.91,-345.19 710.26,-338.9 712,-333 725.26,-288.04 702.25,-265.51 732.25,-229.5 746.24,-212.71 757.75,-219.72 778,-211.5 816.39,-195.91 823.69,-185.1 864,-175.5 908.8,-164.84 1583.86,-122.15 1778.71,-110"/>
<text text-anchor="middle" x="770.88" y="-231.95" font-family="Times New Roman,serif" font-size="14.00">tt4154756 8.4</text>
</g>
<!-- nm0000982&#45;&#45;nm1107001 -->
<g id="edge59" class="edge">
<title>nm0000982&#45;&#45;nm1107001</title>
<path fill="none" stroke="black" d="M698,-350.59C698,-333.27 698,-305.92 698,-282.25 698,-282.25 698,-282.25 698,-104.75 698,-68.59 735.88,-44.85 765.92,-31.7"/>
<text text-anchor="middle" x="735.88" y="-188.07" font-family="Times New Roman,serif" font-size="14.00">tt4154756 8.4</text>
</g>
<!-- nm0740264 -->
<g id="node26" class="node">
<title>nm0740264</title>
<ellipse fill="none" stroke="black" cx="616" cy="-281.25" rx="53.56" ry="18"/>
<text text-anchor="middle" x="616" y="-275.82" font-family="Times New Roman,serif" font-size="14.00">nm0740264</text>
</g>
<!-- nm0000982&#45;&#45;nm0740264 -->
<g id="edge61" class="edge">
<title>nm0000982&#45;&#45;nm0740264</title>
<path fill="none" stroke="black" d="M650.09,-360.53C634.08,-355.5 617.87,-347.08 608.25,-333 601.51,-323.14 603.95,-309.7 607.81,-299.12"/>
<text text-anchor="middle" x="646.88" y="-319.7" font-family="Times New Roman,serif" font-size="14.00">tt2015381 8.0</text>
</g>
<!-- nm0000604 -->
<g id="node27" class="node">
<title>nm0000604</title>
<ellipse fill="none" stroke="black" cx="573" cy="-193.5" rx="53.56" ry="18"/>
<text text-anchor="middle" x="573" y="-188.07" font-family="Times New Roman,serif" font-size="14.00">nm0000604</text>
</g>
<!-- nm0000982&#45;&#45;nm0000604 -->
<g id="edge62" class="edge">
<title>nm0000982&#45;&#45;nm0000604</title>
<path fill="none" stroke="black" d="M658.64,-356.38C595.92,-337.78 480.02,-303.02 477.25,-299.25 451.62,-264.42 506.13,-228.12 542.95,-208.73"/>
<text text-anchor="middle" x="515.88" y="-275.82" font-family="Times New Roman,serif" font-size="14.00">tt2015381 8.0</text>
</g>
<!-- nm0000458&#45;&#45;nm0000168 -->
<g id="edge50" class="edge">
<title>nm0000458&#45;&#45;nm0000168</title>
<path fill="none" stroke="black" d="M960.02,-526.1C958.62,-515.59 958.75,-502.4 965.25,-492.75 973.62,-480.33 987.42,-472.3 1001.26,-467.1"/>
<text text-anchor="middle" x="1002.88" y="-495.2" font-family="Times New Roman,serif" font-size="14.00">tt4154756 8.4</text>
</g>
<!-- nm0000458&#45;&#45;nm0424060 -->
<g id="edge49" class="edge">
<title>nm0000458&#45;&#45;nm0424060</title>
<path fill="none" stroke="black" d="M1001.88,-531.34C1036.75,-520.4 1090.04,-504.31 1137,-492.75 1176.61,-483 1191.94,-495.61 1227,-474.75 1253.85,-458.78 1257.15,-448.24 1272,-420.75 1287.4,-392.24 1274.71,-377.58 1293.25,-351 1300.83,-340.14 1309.8,-344.12 1317,-333 1341.82,-294.68 1347.48,-239.41 1348.71,-211.71"/>
<text text-anchor="middle" x="1330.88" y="-363.57" font-family="Times New Roman,serif" font-size="14.00">tt4154756 8.4</text>
</g>
<!-- nm0000458&#45;&#45;nm0749263 -->
<g id="edge51" class="edge">
<title>nm0000458&#45;&#45;nm0749263</title>
<path fill="none" stroke="black" d="M1009.3,-534.53C1024.71,-531.68 1042.07,-528.71 1058,-526.5 1099.13,-520.8 1206.32,-525.96 1244,-508.5 1314.3,-475.93 1324.22,-450.22 1369,-387 1388.74,-359.13 1379.55,-343.62 1401.25,-317.25 1469.51,-234.31 1503.65,-228.64 1597,-175.5 1656.43,-141.67 1734,-123.16 1783.18,-114.11"/>
<text text-anchor="middle" x="1438.88" y="-319.7" font-family="Times New Roman,serif" font-size="14.00">tt4154756 8.4</text>
</g>
<!-- nm0000458&#45;&#45;nm1107001 -->
<g id="edge47" class="edge">
<title>nm0000458&#45;&#45;nm1107001</title>
<path fill="none" stroke="black" d="M924.17,-532.08C881.11,-520.23 810.28,-502.13 748,-492.75 631.7,-475.24 598.36,-502.18 484,-474.75 471.9,-471.85 288.4,-393.82 278,-387 258.55,-374.24 260.45,-362.09 240,-351 209.87,-334.66 198.26,-341.28 165,-333 82.97,-312.57 0,-322.91 0,-238.38 0,-238.38 0,-238.38 0,-104.75 0,-29.31 568.31,-20.12 748.13,-19.09"/>
<text text-anchor="middle" x="66.88" y="-275.82" font-family="Times New Roman,serif" font-size="14.00">tt4154756 8.4</text>
</g>
<!-- nm0000458&#45;&#45;nm0000982 -->
<g id="edge48" class="edge">
<title>nm0000458&#45;&#45;nm0000982</title>
<path fill="none" stroke="black" d="M936.43,-528.7C911.85,-515.27 875.1,-494.58 844.25,-474.75 798.28,-445.19 746.81,-407.1 718.85,-385.95"/>
<text text-anchor="middle" x="882.88" y="-451.32" font-family="Times New Roman,serif" font-size="14.00">tt4154756 8.4</text>
</g>
<!-- nm0442207 -->
<g id="node25" class="node">
<title>nm0442207</title>
<ellipse fill="none" stroke="black" cx="547" cy="-456.75" rx="53.56" ry="18"/>
<text text-anchor="middle" x="547" y="-451.32" font-family="Times New Roman,serif" font-size="14.00">nm0442207</text>
</g>
<!-- nm0442207&#45;&#45;nm0000982 -->
<g id="edge32" class="edge">
<title>nm0442207&#45;&#45;nm0000982</title>
<path fill="none" stroke="black" d="M554.59,-438.88C560.4,-427.76 569.43,-413.69 581.25,-405 593.05,-396.32 626.26,-386.79 654.25,-379.86"/>
<text text-anchor="middle" x="619.88" y="-407.45" font-family="Times New Roman,serif" font-size="14.00">tt2015381 8.0</text>
</g>
<!-- nm0442207&#45;&#45;nm0740264 -->
<g id="edge33" class="edge">
<title>nm0442207&#45;&#45;nm0740264</title>
<path fill="none" stroke="black" d="M546.09,-438.3C545.63,-416.86 546.96,-379.8 559.25,-351 568,-330.5 584.86,-311.31 597.94,-298.44"/>
<text text-anchor="middle" x="597.88" y="-363.57" font-family="Times New Roman,serif" font-size="14.00">tt2015381 8.0</text>
</g>
<!-- nm0442207&#45;&#45;nm0000604 -->
<g id="edge34" class="edge">
<title>nm0442207&#45;&#45;nm0000604</title>
<path fill="none" stroke="black" d="M494.6,-452.24C473.16,-447.91 450.31,-438.95 437,-420.75 432.87,-415.1 436.27,-411.96 437,-405 445.43,-324.46 425.13,-282.92 486,-229.5 498.73,-218.33 515.47,-210.46 530.87,-205.05"/>
<text text-anchor="middle" x="478.88" y="-319.7" font-family="Times New Roman,serif" font-size="14.00">tt2015381 8.0</text>
</g>
<!-- nm0740264&#45;&#45;nm0000604 -->
<g id="edge64" class="edge">
<title>nm0740264&#45;&#45;nm0000604</title>
<path fill="none" stroke="black" d="M607.5,-263.31C600.02,-248.37 589.15,-226.71 581.62,-211.7"/>
<text text-anchor="middle" x="636.88" y="-231.95" font-family="Times New Roman,serif" font-size="14.00">tt2015381 8.0</text>
</g>
</g>
</svg>
