<?xml version="1.0" encoding="UTF-8" standalone="no"?>
<!DOCTYPE svg PUBLIC "-//W3C//DTD SVG 1.1//EN"
 "http://www.w3.org/Graphics/SVG/1.1/DTD/svg11.dtd">
<!-- Generated by graphviz version 9.0.0 (20230911.1827)
 -->
<!-- Pages: 1 -->
<svg width="1858pt" height="746pt"
 viewBox="0.00 0.00 1857.75 746.00" xmlns="http://www.w3.org/2000/svg" xmlns:xlink="http://www.w3.org/1999/xlink">
<g id="graph0" class="graph" transform="scale(1 1) rotate(0) translate(4 742)">
<polygon fill="white" stroke="none" points="-4,4 -4,-742 1853.75,-742 1853.75,4 -4,4"/>
<!-- nm0000313 -->
<g id="node1" class="node">
<title>nm0000313</title>
<ellipse fill="none" stroke="black" cx="545" cy="-720" rx="53.56" ry="18"/>
<text text-anchor="middle" x="545" y="-714.58" font-family="Times New Roman,serif" font-size="14.00">nm0000313</text>
</g>
<!-- nm0000168 -->
<g id="node2" class="node">
<title>nm0000168</title>
<ellipse fill="none" stroke="black" cx="644" cy="-456.75" rx="53.56" ry="18"/>
<text text-anchor="middle" x="644" y="-451.32" font-family="Times New Roman,serif" font-size="14.00">nm0000168</text>
</g>
<!-- nm0000313&#45;&#45;nm0000168 -->
<g id="edge1" class="edge">
<title>nm0000313&#45;&#45;nm0000168</title>
<path fill="none" stroke="black" d="M543.58,-701.61C541.16,-661.12 540.35,-558.98 586,-492.75 592.21,-483.74 601.56,-476.66 610.95,-471.3"/>
<text text-anchor="middle" x="555.38" y="-582.95" font-family="Times New Roman,serif" font-size="14.00">1</text>
</g>
<!-- nm0005024 -->
<g id="node3" class="node">
<title>nm0005024</title>
<ellipse fill="none" stroke="black" cx="82" cy="-369" rx="53.56" ry="18"/>
<text text-anchor="middle" x="82" y="-363.57" font-family="Times New Roman,serif" font-size="14.00">nm0005024</text>
</g>
<!-- nm0000313&#45;&#45;nm0005024 -->
<g id="edge2" class="edge">
<title>nm0000313&#45;&#45;nm0005024</title>
<path fill="none" stroke="black" d="M493.57,-714.76C373.54,-704.17 85,-674.43 85,-633.25 85,-633.25 85,-633.25 85,-455.75 85,-432.06 83.84,-404.72 82.97,-387.4"/>
<text text-anchor="middle" x="88.38" y="-539.08" font-family="Times New Roman,serif" font-size="14.00">1</text>
</g>
<!-- nm0000375 -->
<g id="node4" class="node">
<title>nm0000375</title>
<ellipse fill="none" stroke="black" cx="777" cy="-632.25" rx="53.56" ry="18"/>
<text text-anchor="middle" x="777" y="-626.83" font-family="Times New Roman,serif" font-size="14.00">nm0000375</text>
</g>
<!-- nm0000313&#45;&#45;nm0000375 -->
<g id="edge3" class="edge">
<title>nm0000313&#45;&#45;nm0000375</title>
<path fill="none" stroke="black" d="M580.24,-705.98C623.97,-689.81 698.1,-662.41 741.81,-646.26"/>
<text text-anchor="middle" x="685.38" y="-670.7" font-family="Times New Roman,serif" font-size="14.00">1</text>
</g>
<!-- nm0000168&#45;&#45;nm0005024 -->
<g id="edge54" class="edge">
<title>nm0000168&#45;&#45;nm0005024</title>
<path fill="none" stroke="black" d="M594.74,-449.42C565.75,-445.88 528.33,-441.61 495,-438.75 425.42,-432.79 248.65,-439.04 181.25,-420.75 153.61,-413.25 124.75,-397.46 105.33,-385.47"/>
<text text-anchor="middle" x="185.38" y="-407.45" font-family="Times New Roman,serif" font-size="14.00">1</text>
</g>
<!-- nm0749263 -->
<g id="node7" class="node">
<title>nm0749263</title>
<ellipse fill="none" stroke="black" cx="1339" cy="-105.75" rx="53.56" ry="18"/>
<text text-anchor="middle" x="1339" y="-100.33" font-family="Times New Roman,serif" font-size="14.00">nm0749263</text>
</g>
<!-- nm0000168&#45;&#45;nm0749263 -->
<g id="edge55" class="edge">
<title>nm0000168&#45;&#45;nm0749263</title>
<path fill="none" stroke="black" d="M667.04,-440.25C686.05,-427.02 713.32,-407.01 735,-387 842.15,-288.06 822.8,-207.45 953,-141.75 1009.77,-113.11 1193.11,-107.68 1285.19,-106.8"/>
<text text-anchor="middle" x="832.38" y="-275.82" font-family="Times New Roman,serif" font-size="14.00">2</text>
</g>
<!-- nm0424060 -->
<g id="node8" class="node">
<title>nm0424060</title>
<ellipse fill="none" stroke="black" cx="724" cy="-193.5" rx="53.56" ry="18"/>
<text text-anchor="middle" x="724" y="-188.07" font-family="Times New Roman,serif" font-size="14.00">nm0424060</text>
</g>
<!-- nm0000168&#45;&#45;nm0424060 -->
<g id="edge58" class="edge">
<title>nm0000168&#45;&#45;nm0424060</title>
<path fill="none" stroke="black" d="M648.41,-438.54C658.29,-400.49 683.45,-306.47 710,-229.5 712.01,-223.68 714.43,-217.42 716.69,-211.82"/>
<text text-anchor="middle" x="686.38" y="-319.7" font-family="Times New Roman,serif" font-size="14.00">3</text>
</g>
<!-- nm0470981 -->
<g id="node10" class="node">
<title>nm0470981</title>
<ellipse fill="none" stroke="black" cx="523" cy="-281.25" rx="53.56" ry="18"/>
<text text-anchor="middle" x="523" y="-275.82" font-family="Times New Roman,serif" font-size="14.00">nm0470981</text>
</g>
<!-- nm0000168&#45;&#45;nm0470981 -->
<g id="edge52" class="edge">
<title>nm0000168&#45;&#45;nm0470981</title>
<path fill="none" stroke="black" d="M641.99,-438.39C638.74,-416.39 630.7,-378.06 612,-351 596.13,-328.03 570.22,-309.27 550.43,-297.19"/>
<text text-anchor="middle" x="633.38" y="-363.57" font-family="Times New Roman,serif" font-size="14.00">1</text>
</g>
<!-- nm0429363 -->
<g id="node11" class="node">
<title>nm0429363</title>
<ellipse fill="none" stroke="black" cx="511" cy="-369" rx="53.56" ry="18"/>
<text text-anchor="middle" x="511" y="-363.57" font-family="Times New Roman,serif" font-size="14.00">nm0429363</text>
</g>
<!-- nm0000168&#45;&#45;nm0429363 -->
<g id="edge56" class="edge">
<title>nm0000168&#45;&#45;nm0429363</title>
<path fill="none" stroke="black" d="M619.91,-440.22C595.81,-424.68 558.95,-400.91 534.91,-385.41"/>
<text text-anchor="middle" x="593.38" y="-407.45" font-family="Times New Roman,serif" font-size="14.00">1</text>
</g>
<!-- nm1107001 -->
<g id="node12" class="node">
<title>nm1107001</title>
<ellipse fill="none" stroke="black" cx="377" cy="-18" rx="53.56" ry="18"/>
<text text-anchor="middle" x="377" y="-12.57" font-family="Times New Roman,serif" font-size="14.00">nm1107001</text>
</g>
<!-- nm0000168&#45;&#45;nm1107001 -->
<g id="edge57" class="edge">
<title>nm0000168&#45;&#45;nm1107001</title>
<path fill="none" stroke="black" d="M594.45,-449.62C489.81,-436.4 253.26,-404.95 221,-387 201.76,-376.3 90,-260.39 90,-238.38 90,-238.38 90,-238.38 90,-104.75 90,-56.13 243.14,-32.78 325.69,-23.73"/>
<text text-anchor="middle" x="95.38" y="-231.95" font-family="Times New Roman,serif" font-size="14.00">2</text>
</g>
<!-- nm0000982 -->
<g id="node24" class="node">
<title>nm0000982</title>
<ellipse fill="none" stroke="black" cx="971" cy="-369" rx="53.56" ry="18"/>
<text text-anchor="middle" x="971" y="-363.57" font-family="Times New Roman,serif" font-size="14.00">nm0000982</text>
</g>
<!-- nm0000168&#45;&#45;nm0000982 -->
<g id="edge53" class="edge">
<title>nm0000168&#45;&#45;nm0000982</title>
<path fill="none" stroke="black" d="M690.37,-447.33C724.04,-440.9 770.6,-431.36 811,-420.75 853.98,-409.46 902.53,-393.61 934.77,-382.64"/>
<text text-anchor="middle" x="868.38" y="-407.45" font-family="Times New Roman,serif" font-size="14.00">1</text>
</g>
<!-- nm0000375&#45;&#45;nm0000168 -->
<g id="edge29" class="edge">
<title>nm0000375&#45;&#45;nm0000168</title>
<path fill="none" stroke="black" d="M737.24,-619.87C709.17,-609.64 673.29,-591.64 654.25,-562.5 636.86,-535.89 638.37,-497.06 641.13,-474.92"/>
<text text-anchor="middle" x="658.38" y="-539.08" font-family="Times New Roman,serif" font-size="14.00">3</text>
</g>
<!-- nm0000375&#45;&#45;nm0005024 -->
<g id="edge27" class="edge">
<title>nm0000375&#45;&#45;nm0005024</title>
<path fill="none" stroke="black" d="M730.67,-622.9C696.13,-616.4 647.89,-606.74 606,-596.25 582.16,-590.28 577.03,-585.63 553,-580.5 376.02,-542.74 296.17,-618.2 152.25,-508.5 149.58,-506.47 108.61,-423.9 90.5,-387.24"/>
<text text-anchor="middle" x="156.38" y="-495.2" font-family="Times New Roman,serif" font-size="14.00">1</text>
</g>
<!-- nm0001745 -->
<g id="node6" class="node">
<title>nm0001745</title>
<ellipse fill="none" stroke="black" cx="888" cy="-544.5" rx="53.56" ry="18"/>
<text text-anchor="middle" x="888" y="-539.08" font-family="Times New Roman,serif" font-size="14.00">nm0001745</text>
</g>
<!-- nm0000375&#45;&#45;nm0001745 -->
<g id="edge24" class="edge">
<title>nm0000375&#45;&#45;nm0001745</title>
<path fill="none" stroke="black" d="M797.62,-615.32C817.56,-599.92 847.59,-576.72 867.49,-561.34"/>
<text text-anchor="middle" x="846.38" y="-582.95" font-family="Times New Roman,serif" font-size="14.00">1</text>
</g>
<!-- nm0000375&#45;&#45;nm0749263 -->
<g id="edge28" class="edge">
<title>nm0000375&#45;&#45;nm0749263</title>
<path fill="none" stroke="black" d="M823.24,-622.72C855.4,-616.41 899.13,-607.05 937,-596.25 1111.07,-546.62 1320,-638.76 1320,-457.75 1320,-457.75 1320,-457.75 1320,-192.5 1320,-168.26 1327.33,-141.05 1332.88,-123.91"/>
<text text-anchor="middle" x="1323.38" y="-363.57" font-family="Times New Roman,serif" font-size="14.00">2</text>
</g>
<!-- nm0000375&#45;&#45;nm0424060 -->
<g id="edge31" class="edge">
<title>nm0000375&#45;&#45;nm0424060</title>
<path fill="none" stroke="black" d="M779.97,-613.84C783.82,-590.11 790.26,-546.25 792,-508.5 797.83,-382.33 774.29,-350.48 738,-229.5 736.23,-223.61 733.88,-217.32 731.6,-211.73"/>
<text text-anchor="middle" x="794.38" y="-407.45" font-family="Times New Roman,serif" font-size="14.00">2</text>
</g>
<!-- nm0000375&#45;&#45;nm1107001 -->
<g id="edge30" class="edge">
<title>nm0000375&#45;&#45;nm1107001</title>
<path fill="none" stroke="black" d="M723.29,-630.97C547.41,-629.34 0,-618.4 0,-545.5 0,-545.5 0,-545.5 0,-104.75 0,-39.22 219.3,-23.77 323.39,-20.12"/>
<text text-anchor="middle" x="3.38" y="-319.7" font-family="Times New Roman,serif" font-size="14.00">1</text>
</g>
<!-- nm0000458 -->
<g id="node23" class="node">
<title>nm0000458</title>
<ellipse fill="none" stroke="black" cx="724" cy="-544.5" rx="53.56" ry="18"/>
<text text-anchor="middle" x="724" y="-539.08" font-family="Times New Roman,serif" font-size="14.00">nm0000458</text>
</g>
<!-- nm0000375&#45;&#45;nm0000458 -->
<g id="edge25" class="edge">
<title>nm0000375&#45;&#45;nm0000458</title>
<path fill="none" stroke="black" d="M766.53,-614.31C757.24,-599.28 743.73,-577.43 734.45,-562.41"/>
<text text-anchor="middle" x="759.38" y="-582.95" font-family="Times New Roman,serif" font-size="14.00">1</text>
</g>
<!-- nm0000375&#45;&#45;nm0000982 -->
<g id="edge26" class="edge">
<title>nm0000375&#45;&#45;nm0000982</title>
<path fill="none" stroke="black" d="M827.05,-625.54C867.24,-618.13 921.65,-601.19 951,-562.5 991.11,-509.63 981.23,-423.76 974.63,-387.28"/>
<text text-anchor="middle" x="980.38" y="-495.2" font-family="Times New Roman,serif" font-size="14.00">1</text>
</g>
<!-- nm0001765 -->
<g id="node5" class="node">
<title>nm0001765</title>
<ellipse fill="none" stroke="black" cx="888" cy="-720" rx="53.56" ry="18"/>
<text text-anchor="middle" x="888" y="-714.58" font-family="Times New Roman,serif" font-size="14.00">nm0001765</text>
</g>
<!-- nm0001765&#45;&#45;nm0000168 -->
<g id="edge7" class="edge">
<title>nm0001765&#45;&#45;nm0000168</title>
<path fill="none" stroke="black" d="M834.15,-719.38C768.19,-718.57 662.1,-712.68 637,-684 584.33,-623.82 619.82,-516.35 636.59,-474.8"/>
<text text-anchor="middle" x="613.38" y="-582.95" font-family="Times New Roman,serif" font-size="14.00">1</text>
</g>
<!-- nm0001765&#45;&#45;nm0000375 -->
<g id="edge5" class="edge">
<title>nm0001765&#45;&#45;nm0000375</title>
<path fill="none" stroke="black" d="M867.38,-703.07C847.44,-687.67 817.41,-664.47 797.51,-649.09"/>
<text text-anchor="middle" x="846.38" y="-670.7" font-family="Times New Roman,serif" font-size="14.00">1</text>
</g>
<!-- nm0001765&#45;&#45;nm0001745 -->
<g id="edge4" class="edge">
<title>nm0001765&#45;&#45;nm0001745</title>
<path fill="none" stroke="black" d="M888,-701.73C888,-668.56 888,-596.28 888,-562.96"/>
<text text-anchor="middle" x="891.38" y="-626.83" font-family="Times New Roman,serif" font-size="14.00">1</text>
</g>
<!-- nm0001765&#45;&#45;nm0749263 -->
<g id="edge6" class="edge">
<title>nm0001765&#45;&#45;nm0749263</title>
<path fill="none" stroke="black" d="M939.64,-714.95C1061.74,-704.67 1358,-675.4 1358,-633.25 1358,-633.25 1358,-633.25 1358,-192.5 1358,-168.26 1350.67,-141.05 1345.12,-123.91"/>
<text text-anchor="middle" x="1361.38" y="-407.45" font-family="Times New Roman,serif" font-size="14.00">1</text>
</g>
<!-- nm0001765&#45;&#45;nm0424060 -->
<g id="edge8" class="edge">
<title>nm0001765&#45;&#45;nm0424060</title>
<path fill="none" stroke="black" d="M904.69,-702.67C957.13,-649.34 1110.67,-476.53 1034,-351 988.56,-276.6 960.48,-263.02 880,-229.5 845.15,-214.99 833.83,-219.78 797,-211.5 787.22,-209.3 776.73,-206.89 766.82,-204.59"/>
<text text-anchor="middle" x="1057.38" y="-451.32" font-family="Times New Roman,serif" font-size="14.00">1</text>
</g>
<!-- nm0001745&#45;&#45;nm0000168 -->
<g id="edge41" class="edge">
<title>nm0001745&#45;&#45;nm0000168</title>
<path fill="none" stroke="black" d="M852,-530.85C805.86,-514.63 726.35,-486.69 680.15,-470.45"/>
<text text-anchor="middle" x="791.38" y="-495.2" font-family="Times New Roman,serif" font-size="14.00">1</text>
</g>
<!-- nm0001745&#45;&#45;nm0749263 -->
<g id="edge40" class="edge">
<title>nm0001745&#45;&#45;nm0749263</title>
<path fill="none" stroke="black" d="M939.82,-539.62C1023.94,-532.26 1184.84,-513.43 1225,-474.75 1334.7,-369.08 1233.34,-275.62 1306,-141.75 1309.75,-134.85 1315.19,-128.3 1320.58,-122.77"/>
<text text-anchor="middle" x="1282.38" y="-319.7" font-family="Times New Roman,serif" font-size="14.00">1</text>
</g>
<!-- nm0001745&#45;&#45;nm0424060 -->
<g id="edge42" class="edge">
<title>nm0001745&#45;&#45;nm0424060</title>
<path fill="none" stroke="black" d="M883.63,-526.44C877.57,-502.74 866.33,-458.52 857,-420.75 839.74,-350.84 857.92,-323.83 819,-263.25 803.26,-238.76 775.47,-220.17 753.99,-208.54"/>
<text text-anchor="middle" x="854.38" y="-363.57" font-family="Times New Roman,serif" font-size="14.00">1</text>
</g>
<!-- nm0749263&#45;&#45;nm1107001 -->
<g id="edge80" class="edge">
<title>nm0749263&#45;&#45;nm1107001</title>
<path fill="none" stroke="black" d="M1289.58,-98.38C1207.39,-87.96 1037.36,-67.1 893,-54 723.99,-38.66 523.28,-26.89 429.8,-21.79"/>
<text text-anchor="middle" x="1043.38" y="-56.45" font-family="Times New Roman,serif" font-size="14.00">1</text>
</g>
<!-- nm0000949 -->
<g id="node21" class="node">
<title>nm0000949</title>
<ellipse fill="none" stroke="black" cx="1736" cy="-18" rx="53.56" ry="18"/>
<text text-anchor="middle" x="1736" y="-12.57" font-family="Times New Roman,serif" font-size="14.00">nm0000949</text>
</g>
<!-- nm0749263&#45;&#45;nm0000949 -->
<g id="edge81" class="edge">
<title>nm0749263&#45;&#45;nm0000949</title>
<path fill="none" stroke="black" d="M1383,-95.25C1459.31,-78.76 1615.35,-45.06 1691.8,-28.55"/>
<text text-anchor="middle" x="1576.38" y="-56.45" font-family="Times New Roman,serif" font-size="14.00">1</text>
</g>
<!-- nm0424060&#45;&#45;nm0749263 -->
<g id="edge75" class="edge">
<title>nm0424060&#45;&#45;nm0749263</title>
<path fill="none" stroke="black" d="M761.66,-180.39C799.92,-168.58 861.09,-151.1 915.25,-141.75 1047.1,-119 1204.66,-110.92 1285.44,-108.14"/>
<text text-anchor="middle" x="919.38" y="-144.2" font-family="Times New Roman,serif" font-size="14.00">2</text>
</g>
<!-- nm0424060&#45;&#45;nm1107001 -->
<g id="edge76" class="edge">
<title>nm0424060&#45;&#45;nm1107001</title>
<path fill="none" stroke="black" d="M705.59,-176.15C671.95,-147.15 597.28,-86.7 524,-54 492.74,-40.05 455.15,-31.23 425.81,-25.93"/>
<text text-anchor="middle" x="641.38" y="-100.33" font-family="Times New Roman,serif" font-size="14.00">2</text>
</g>
<!-- nm0000602 -->
<g id="node9" class="node">
<title>nm0000602</title>
<ellipse fill="none" stroke="black" cx="480" cy="-544.5" rx="53.56" ry="18"/>
<text text-anchor="middle" x="480" y="-539.08" font-family="Times New Roman,serif" font-size="14.00">nm0000602</text>
</g>
<!-- nm0000602&#45;&#45;nm0000168 -->
<g id="edge11" class="edge">
<title>nm0000602&#45;&#45;nm0000168</title>
<path fill="none" stroke="black" d="M500.39,-527.58C517.03,-514.78 539.34,-498.08 549.25,-492.75 566.86,-483.29 587.57,-475.31 605.14,-469.37"/>
<text text-anchor="middle" x="553.38" y="-495.2" font-family="Times New Roman,serif" font-size="14.00">1</text>
</g>
<!-- nm0000602&#45;&#45;nm0424060 -->
<g id="edge13" class="edge">
<title>nm0000602&#45;&#45;nm0424060</title>
<path fill="none" stroke="black" d="M493.03,-526.95C510.94,-503.84 543.72,-460.3 568,-420.75 586.28,-390.98 585.51,-380.48 604.25,-351 638.39,-297.3 686.13,-239.02 709.69,-211.16"/>
<text text-anchor="middle" x="608.38" y="-363.57" font-family="Times New Roman,serif" font-size="14.00">1</text>
</g>
<!-- nm0000602&#45;&#45;nm0470981 -->
<g id="edge9" class="edge">
<title>nm0000602&#45;&#45;nm0470981</title>
<path fill="none" stroke="black" d="M460.55,-527.4C446.86,-514.72 429.67,-495.72 422,-474.75 416.51,-459.72 419.7,-454.58 422,-438.75 427.84,-398.5 426.45,-385.5 448,-351 461.48,-329.43 483.52,-310.37 500.23,-297.83"/>
<text text-anchor="middle" x="430.38" y="-407.45" font-family="Times New Roman,serif" font-size="14.00">1</text>
</g>
<!-- nm0000602&#45;&#45;nm0429363 -->
<g id="edge10" class="edge">
<title>nm0000602&#45;&#45;nm0429363</title>
<path fill="none" stroke="black" d="M483.09,-526.23C489.01,-493.06 501.93,-420.78 507.88,-387.46"/>
<text text-anchor="middle" x="502.38" y="-451.32" font-family="Times New Roman,serif" font-size="14.00">1</text>
</g>
<!-- nm0000602&#45;&#45;nm1107001 -->
<g id="edge12" class="edge">
<title>nm0000602&#45;&#45;nm1107001</title>
<path fill="none" stroke="black" d="M445.59,-530.34C387.05,-506.98 265.91,-454.31 178,-387 160.77,-373.8 160.01,-366.68 145,-351 122.51,-327.51 108.55,-327.95 93.25,-299.25 74.55,-264.18 79.85,-251.06 76,-211.5 70.67,-156.76 51.14,-136.81 76,-87.75 87.46,-65.13 98.5,-63.52 122,-54 187.75,-27.38 270.02,-20.31 323.03,-18.79"/>
<text text-anchor="middle" x="97.38" y="-275.82" font-family="Times New Roman,serif" font-size="14.00">1</text>
</g>
<!-- nm0470981&#45;&#45;nm0424060 -->
<g id="edge72" class="edge">
<title>nm0470981&#45;&#45;nm0424060</title>
<path fill="none" stroke="black" d="M541.17,-263.98C554.48,-252.84 573.42,-238.5 592.25,-229.5 619.05,-216.69 651.23,-208.02 677.08,-202.52"/>
<text text-anchor="middle" x="596.38" y="-231.95" font-family="Times New Roman,serif" font-size="14.00">1</text>
</g>
<!-- nm0470981&#45;&#45;nm1107001 -->
<g id="edge71" class="edge">
<title>nm0470981&#45;&#45;nm1107001</title>
<path fill="none" stroke="black" d="M524.58,-263.06C527.4,-221.68 528.65,-115.37 475,-54 462.4,-39.58 443.43,-31.1 425.53,-26.12"/>
<text text-anchor="middle" x="523.38" y="-144.2" font-family="Times New Roman,serif" font-size="14.00">1</text>
</g>
<!-- nm0429363&#45;&#45;nm0424060 -->
<g id="edge70" class="edge">
<title>nm0429363&#45;&#45;nm0424060</title>
<path fill="none" stroke="black" d="M530.94,-351.88C546.76,-338.6 568.96,-318.84 586,-299.25 610.69,-270.85 604.49,-252.85 634,-229.5 648.07,-218.37 666.1,-210.43 682.32,-204.95"/>
<text text-anchor="middle" x="611.38" y="-275.82" font-family="Times New Roman,serif" font-size="14.00">1</text>
</g>
<!-- nm0429363&#45;&#45;nm0470981 -->
<g id="edge68" class="edge">
<title>nm0429363&#45;&#45;nm0470981</title>
<path fill="none" stroke="black" d="M513.43,-350.65C515.51,-335.77 518.49,-314.45 520.58,-299.58"/>
<text text-anchor="middle" x="522.38" y="-319.7" font-family="Times New Roman,serif" font-size="14.00">1</text>
</g>
<!-- nm0429363&#45;&#45;nm1107001 -->
<g id="edge69" class="edge">
<title>nm0429363&#45;&#45;nm1107001</title>
<path fill="none" stroke="black" d="M494.84,-351.44C483.12,-338.38 467.98,-319.11 460,-299.25 419.05,-197.3 486.62,-147.55 429,-54 423.75,-45.48 415.56,-38.56 407.22,-33.19"/>
<text text-anchor="middle" x="454.38" y="-188.07" font-family="Times New Roman,serif" font-size="14.00">1</text>
</g>
<!-- nm0000140 -->
<g id="node13" class="node">
<title>nm0000140</title>
<ellipse fill="none" stroke="black" cx="284" cy="-369" rx="53.56" ry="18"/>
<text text-anchor="middle" x="284" y="-363.57" font-family="Times New Roman,serif" font-size="14.00">nm0000140</text>
</g>
<!-- nm0000140&#45;&#45;nm1107001 -->
<g id="edge16" class="edge">
<title>nm0000140&#45;&#45;nm1107001</title>
<path fill="none" stroke="black" d="M302.07,-351.79C315.18,-338.92 332.1,-319.73 341,-299.25 381.28,-206.57 380.05,-81.58 378.03,-36.29"/>
<text text-anchor="middle" x="376.38" y="-188.07" font-family="Times New Roman,serif" font-size="14.00">1</text>
</g>
<!-- nm0339460 -->
<g id="node14" class="node">
<title>nm0339460</title>
<ellipse fill="none" stroke="black" cx="208" cy="-105.75" rx="53.56" ry="18"/>
<text text-anchor="middle" x="208" y="-100.33" font-family="Times New Roman,serif" font-size="14.00">nm0339460</text>
</g>
<!-- nm0000140&#45;&#45;nm0339460 -->
<g id="edge14" class="edge">
<title>nm0000140&#45;&#45;nm0339460</title>
<path fill="none" stroke="black" d="M248.48,-355.27C236.99,-349.81 224.93,-342.46 216,-333 197.91,-313.85 176.91,-236.62 173,-211.5 168.22,-180.79 165.1,-170.03 178,-141.75 181.05,-135.05 185.79,-128.65 190.6,-123.19"/>
<text text-anchor="middle" x="184.38" y="-231.95" font-family="Times New Roman,serif" font-size="14.00">1</text>
</g>
<!-- nm0671567 -->
<g id="node15" class="node">
<title>nm0671567</title>
<ellipse fill="none" stroke="black" cx="278" cy="-281.25" rx="53.56" ry="18"/>
<text text-anchor="middle" x="278" y="-275.82" font-family="Times New Roman,serif" font-size="14.00">nm0671567</text>
</g>
<!-- nm0000140&#45;&#45;nm0671567 -->
<g id="edge15" class="edge">
<title>nm0000140&#45;&#45;nm0671567</title>
<path fill="none" stroke="black" d="M282.79,-350.65C281.74,-335.77 280.25,-314.45 279.21,-299.58"/>
<text text-anchor="middle" x="285.38" y="-319.7" font-family="Times New Roman,serif" font-size="14.00">1</text>
</g>
<!-- nm0748620 -->
<g id="node16" class="node">
<title>nm0748620</title>
<ellipse fill="none" stroke="black" cx="252" cy="-193.5" rx="53.56" ry="18"/>
<text text-anchor="middle" x="252" y="-188.07" font-family="Times New Roman,serif" font-size="14.00">nm0748620</text>
</g>
<!-- nm0000140&#45;&#45;nm0748620 -->
<g id="edge17" class="edge">
<title>nm0000140&#45;&#45;nm0748620</title>
<path fill="none" stroke="black" d="M258.39,-352.96C240.65,-340.94 218.46,-322.31 208.25,-299.25 194.52,-268.26 218.99,-231.62 236.53,-210.92"/>
<text text-anchor="middle" x="212.38" y="-275.82" font-family="Times New Roman,serif" font-size="14.00">1</text>
</g>
<!-- nm0339460&#45;&#45;nm1107001 -->
<g id="edge84" class="edge">
<title>nm0339460&#45;&#45;nm1107001</title>
<path fill="none" stroke="black" d="M227.3,-88.49C240.89,-77.64 259.86,-63.65 278.25,-54 296.77,-44.28 318.58,-36.23 336.99,-30.31"/>
<text text-anchor="middle" x="282.38" y="-56.45" font-family="Times New Roman,serif" font-size="14.00">1</text>
</g>
<!-- nm0671567&#45;&#45;nm1107001 -->
<g id="edge77" class="edge">
<title>nm0671567&#45;&#45;nm1107001</title>
<path fill="none" stroke="black" d="M288.41,-263.2C296.42,-249.56 307.39,-229.77 315,-211.5 343.14,-143.95 338.72,-123.03 363,-54 365.08,-48.07 367.57,-41.67 369.87,-35.98"/>
<text text-anchor="middle" x="342.38" y="-144.2" font-family="Times New Roman,serif" font-size="14.00">1</text>
</g>
<!-- nm0671567&#45;&#45;nm0339460 -->
<g id="edge78" class="edge">
<title>nm0671567&#45;&#45;nm0339460</title>
<path fill="none" stroke="black" d="M245.37,-266.64C223.13,-255.42 195.42,-237.17 182.25,-211.5 167.46,-182.67 184.42,-144.97 196.97,-123.55"/>
<text text-anchor="middle" x="186.38" y="-188.07" font-family="Times New Roman,serif" font-size="14.00">1</text>
</g>
<!-- nm0671567&#45;&#45;nm0748620 -->
<g id="edge79" class="edge">
<title>nm0671567&#45;&#45;nm0748620</title>
<path fill="none" stroke="black" d="M272.74,-262.9C268.23,-248.02 261.76,-226.7 257.25,-211.83"/>
<text text-anchor="middle" x="271.38" y="-231.95" font-family="Times New Roman,serif" font-size="14.00">1</text>
</g>
<!-- nm0748620&#45;&#45;nm1107001 -->
<g id="edge83" class="edge">
<title>nm0748620&#45;&#45;nm1107001</title>
<path fill="none" stroke="black" d="M256.95,-175.36C265.77,-147.27 286.47,-90.85 320,-54 327.5,-45.75 337.39,-38.77 346.83,-33.26"/>
<text text-anchor="middle" x="299.38" y="-100.33" font-family="Times New Roman,serif" font-size="14.00">1</text>
</g>
<!-- nm0748620&#45;&#45;nm0339460 -->
<g id="edge82" class="edge">
<title>nm0748620&#45;&#45;nm0339460</title>
<path fill="none" stroke="black" d="M243.31,-175.56C235.64,-160.62 224.53,-138.96 216.83,-123.95"/>
<text text-anchor="middle" x="237.38" y="-144.2" font-family="Times New Roman,serif" font-size="14.00">1</text>
</g>
<!-- nm0000164 -->
<g id="node17" class="node">
<title>nm0000164</title>
<ellipse fill="none" stroke="black" cx="1576" cy="-544.5" rx="53.56" ry="18"/>
<text text-anchor="middle" x="1576" y="-539.08" font-family="Times New Roman,serif" font-size="14.00">nm0000164</text>
</g>
<!-- nm0000164&#45;&#45;nm0749263 -->
<g id="edge19" class="edge">
<title>nm0000164&#45;&#45;nm0749263</title>
<path fill="none" stroke="black" d="M1523.45,-540.29C1470.32,-533.86 1396,-514.69 1396,-457.75 1396,-457.75 1396,-457.75 1396,-192.5 1396,-164.61 1374.83,-138.87 1358.3,-123.02"/>
<text text-anchor="middle" x="1399.38" y="-319.7" font-family="Times New Roman,serif" font-size="14.00">1</text>
</g>
<!-- nm0000554 -->
<g id="node18" class="node">
<title>nm0000554</title>
<ellipse fill="none" stroke="black" cx="1715" cy="-369" rx="53.56" ry="18"/>
<text text-anchor="middle" x="1715" y="-363.57" font-family="Times New Roman,serif" font-size="14.00">nm0000554</text>
</g>
<!-- nm0000164&#45;&#45;nm0000554 -->
<g id="edge18" class="edge">
<title>nm0000164&#45;&#45;nm0000554</title>
<path fill="none" stroke="black" d="M1612.39,-531C1638.49,-520.15 1672.39,-501.88 1692,-474.75 1710.98,-448.5 1714.78,-409.54 1715.27,-387.28"/>
<text text-anchor="middle" x="1711.38" y="-451.32" font-family="Times New Roman,serif" font-size="14.00">1</text>
</g>
<!-- nm0000354 -->
<g id="node19" class="node">
<title>nm0000354</title>
<ellipse fill="none" stroke="black" cx="1558" cy="-281.25" rx="53.56" ry="18"/>
<text text-anchor="middle" x="1558" y="-275.82" font-family="Times New Roman,serif" font-size="14.00">nm0000354</text>
</g>
<!-- nm0000164&#45;&#45;nm0000354 -->
<g id="edge20" class="edge">
<title>nm0000164&#45;&#45;nm0000354</title>
<path fill="none" stroke="black" d="M1572.95,-526.04C1570.66,-512.18 1567.64,-492.28 1566,-474.75 1559.99,-410.31 1558.49,-333.3 1558.12,-299.55"/>
<text text-anchor="middle" x="1564.38" y="-407.45" font-family="Times New Roman,serif" font-size="14.00">1</text>
</g>
<!-- nm0000156 -->
<g id="node20" class="node">
<title>nm0000156</title>
<ellipse fill="none" stroke="black" cx="1629" cy="-456.75" rx="53.56" ry="18"/>
<text text-anchor="middle" x="1629" y="-451.32" font-family="Times New Roman,serif" font-size="14.00">nm0000156</text>
</g>
<!-- nm0000164&#45;&#45;nm0000156 -->
<g id="edge21" class="edge">
<title>nm0000164&#45;&#45;nm0000156</title>
<path fill="none" stroke="black" d="M1586.47,-526.56C1595.76,-511.53 1609.27,-489.68 1618.55,-474.66"/>
<text text-anchor="middle" x="1610.38" y="-495.2" font-family="Times New Roman,serif" font-size="14.00">1</text>
</g>
<!-- nm0000164&#45;&#45;nm0000949 -->
<g id="edge22" class="edge">
<title>nm0000164&#45;&#45;nm0000949</title>
<path fill="none" stroke="black" d="M1626.22,-537.76C1703.56,-527.51 1843,-502.78 1843,-457.75 1843,-457.75 1843,-457.75 1843,-104.75 1843,-67.97 1804.03,-44.35 1773.12,-31.41"/>
<text text-anchor="middle" x="1846.38" y="-275.82" font-family="Times New Roman,serif" font-size="14.00">1</text>
</g>
<!-- nm0038355 -->
<g id="node22" class="node">
<title>nm0038355</title>
<ellipse fill="none" stroke="black" cx="1584" cy="-193.5" rx="53.56" ry="18"/>
<text text-anchor="middle" x="1584" y="-188.07" font-family="Times New Roman,serif" font-size="14.00">nm0038355</text>
</g>
<!-- nm0000164&#45;&#45;nm0038355 -->
<g id="edge23" class="edge">
<title>nm0000164&#45;&#45;nm0038355</title>
<path fill="none" stroke="black" d="M1556.23,-527.49C1531.09,-505.98 1488.28,-465.28 1466,-420.75 1434.63,-358.07 1422.23,-323.52 1458,-263.25 1476.06,-232.82 1512.85,-215 1542.04,-205.16"/>
<text text-anchor="middle" x="1452.38" y="-363.57" font-family="Times New Roman,serif" font-size="14.00">1</text>
</g>
<!-- nm0000554&#45;&#45;nm0749263 -->
<g id="edge43" class="edge">
<title>nm0000554&#45;&#45;nm0749263</title>
<path fill="none" stroke="black" d="M1715.87,-350.77C1716.37,-329.55 1715.41,-292.7 1705,-263.25 1689.43,-219.17 1683.95,-204.13 1647,-175.5 1607.16,-144.63 1465.47,-122.62 1388.93,-112.68"/>
<text text-anchor="middle" x="1701.38" y="-231.95" font-family="Times New Roman,serif" font-size="14.00">1</text>
</g>
<!-- nm0000554&#45;&#45;nm0000354 -->
<g id="edge44" class="edge">
<title>nm0000554&#45;&#45;nm0000354</title>
<path fill="none" stroke="black" d="M1693.39,-352.22C1675.78,-339.5 1652.22,-322.85 1642,-317.25 1626.62,-308.82 1608.78,-301.13 1593.52,-295.11"/>
<text text-anchor="middle" x="1668.38" y="-319.7" font-family="Times New Roman,serif" font-size="14.00">1</text>
</g>
<!-- nm0000554&#45;&#45;nm0000949 -->
<g id="edge45" class="edge">
<title>nm0000554&#45;&#45;nm0000949</title>
<path fill="none" stroke="black" d="M1729.65,-351.23C1742.45,-334.82 1759,-308.52 1759,-282.25 1759,-282.25 1759,-282.25 1759,-104.75 1759,-80.24 1750.13,-53.1 1743.4,-36.05"/>
<text text-anchor="middle" x="1762.38" y="-188.07" font-family="Times New Roman,serif" font-size="14.00">1</text>
</g>
<!-- nm0000554&#45;&#45;nm0038355 -->
<g id="edge46" class="edge">
<title>nm0000554&#45;&#45;nm0038355</title>
<path fill="none" stroke="black" d="M1711.48,-350.99C1704.81,-322.58 1687.88,-265.08 1654,-229.5 1644.82,-219.86 1632.41,-212.47 1620.59,-207.02"/>
<text text-anchor="middle" x="1697.38" y="-275.82" font-family="Times New Roman,serif" font-size="14.00">1</text>
</g>
<!-- nm0000354&#45;&#45;nm0749263 -->
<g id="edge65" class="edge">
<title>nm0000354&#45;&#45;nm0749263</title>
<path fill="none" stroke="black" d="M1547.09,-263.34C1523.8,-227.32 1470.84,-145.97 1465,-141.75 1442.91,-125.81 1413.84,-117.12 1389.19,-112.39"/>
<text text-anchor="middle" x="1515.38" y="-188.07" font-family="Times New Roman,serif" font-size="14.00">1</text>
</g>
<!-- nm0000354&#45;&#45;nm0000949 -->
<g id="edge66" class="edge">
<title>nm0000354&#45;&#45;nm0000949</title>
<path fill="none" stroke="black" d="M1583.73,-265.17C1603.14,-252.75 1629.35,-233.64 1647,-211.5 1692.1,-154.93 1720.4,-71.79 1731.12,-36.19"/>
<text text-anchor="middle" x="1692.38" y="-144.2" font-family="Times New Roman,serif" font-size="14.00">1</text>
</g>
<!-- nm0000354&#45;&#45;nm0038355 -->
<g id="edge67" class="edge">
<title>nm0000354&#45;&#45;nm0038355</title>
<path fill="none" stroke="black" d="M1563.26,-262.9C1567.77,-248.02 1574.24,-226.7 1578.75,-211.83"/>
<text text-anchor="middle" x="1576.38" y="-231.95" font-family="Times New Roman,serif" font-size="14.00">1</text>
</g>
<!-- nm0000156&#45;&#45;nm0749263 -->
<g id="edge36" class="edge">
<title>nm0000156&#45;&#45;nm0749263</title>
<path fill="none" stroke="black" d="M1592.66,-443.2C1580.33,-437.69 1567.13,-430.27 1557,-420.75 1454.85,-324.79 1509.26,-240.7 1410,-141.75 1400.36,-132.14 1387.56,-124.73 1375.49,-119.26"/>
<text text-anchor="middle" x="1489.38" y="-275.82" font-family="Times New Roman,serif" font-size="14.00">1</text>
</g>
<!-- nm0000156&#45;&#45;nm0000554 -->
<g id="edge35" class="edge">
<title>nm0000156&#45;&#45;nm0000554</title>
<path fill="none" stroke="black" d="M1645.58,-439.22C1660.81,-424.03 1683.26,-401.65 1698.47,-386.48"/>
<text text-anchor="middle" x="1682.38" y="-407.45" font-family="Times New Roman,serif" font-size="14.00">1</text>
</g>
<!-- nm0000156&#45;&#45;nm0000354 -->
<g id="edge37" class="edge">
<title>nm0000156&#45;&#45;nm0000354</title>
<path fill="none" stroke="black" d="M1621.93,-438.48C1608.32,-405.22 1578.63,-332.65 1565.04,-299.45"/>
<text text-anchor="middle" x="1603.38" y="-363.57" font-family="Times New Roman,serif" font-size="14.00">1</text>
</g>
<!-- nm0000156&#45;&#45;nm0000949 -->
<g id="edge38" class="edge">
<title>nm0000156&#45;&#45;nm0000949</title>
<path fill="none" stroke="black" d="M1668.39,-444.17C1718.04,-428.37 1797,-398.73 1797,-370 1797,-370 1797,-370 1797,-104.75 1797,-76.25 1774.35,-50.64 1756.65,-34.98"/>
<text text-anchor="middle" x="1800.38" y="-231.95" font-family="Times New Roman,serif" font-size="14.00">1</text>
</g>
<!-- nm0000156&#45;&#45;nm0038355 -->
<g id="edge39" class="edge">
<title>nm0000156&#45;&#45;nm0038355</title>
<path fill="none" stroke="black" d="M1630.84,-438.36C1633.91,-404.11 1638.16,-325.83 1621,-263.25 1615.8,-244.3 1604.62,-224.76 1595.9,-211.38"/>
<text text-anchor="middle" x="1635.38" y="-319.7" font-family="Times New Roman,serif" font-size="14.00">1</text>
</g>
<!-- nm0038355&#45;&#45;nm0749263 -->
<g id="edge73" class="edge">
<title>nm0038355&#45;&#45;nm0749263</title>
<path fill="none" stroke="black" d="M1565.45,-176.4C1551.41,-165.04 1531.15,-150.37 1511,-141.75 1472.19,-125.15 1425.03,-116.27 1389.92,-111.61"/>
<text text-anchor="middle" x="1541.38" y="-144.2" font-family="Times New Roman,serif" font-size="14.00">1</text>
</g>
<!-- nm0038355&#45;&#45;nm0000949 -->
<g id="edge74" class="edge">
<title>nm0038355&#45;&#45;nm0000949</title>
<path fill="none" stroke="black" d="M1592.44,-175.44C1606.93,-147.45 1638.77,-91.19 1678,-54 1686.36,-46.07 1696.82,-39.08 1706.55,-33.48"/>
<text text-anchor="middle" x="1650.38" y="-100.33" font-family="Times New Roman,serif" font-size="14.00">1</text>
</g>
<!-- nm0000458&#45;&#45;nm0000168 -->
<g id="edge49" class="edge">
<title>nm0000458&#45;&#45;nm0000168</title>
<path fill="none" stroke="black" d="M710.5,-526.64C702.25,-516.57 691.32,-503.65 681,-492.75 675.04,-486.46 668.22,-479.85 662.08,-474.1"/>
<text text-anchor="middle" x="698.38" y="-495.2" font-family="Times New Roman,serif" font-size="14.00">1</text>
</g>
<!-- nm0000458&#45;&#45;nm0749263 -->
<g id="edge47" class="edge">
<title>nm0000458&#45;&#45;nm0749263</title>
<path fill="none" stroke="black" d="M737.04,-526.83C744.97,-516.82 755.39,-503.91 765,-492.75 806.62,-444.42 831.34,-442.93 862,-387 889.36,-337.09 859.82,-308 895,-263.25 991.22,-140.84 1190.1,-113.95 1285.57,-108.2"/>
<text text-anchor="middle" x="879.38" y="-319.7" font-family="Times New Roman,serif" font-size="14.00">1</text>
</g>
<!-- nm0000458&#45;&#45;nm0424060 -->
<g id="edge51" class="edge">
<title>nm0000458&#45;&#45;nm0424060</title>
<path fill="none" stroke="black" d="M724,-526.19C724,-466.78 724,-271.49 724,-211.91"/>
<text text-anchor="middle" x="727.38" y="-363.57" font-family="Times New Roman,serif" font-size="14.00">1</text>
</g>
<!-- nm0000458&#45;&#45;nm1107001 -->
<g id="edge50" class="edge">
<title>nm0000458&#45;&#45;nm1107001</title>
<path fill="none" stroke="black" d="M686.63,-531.2C653.71,-520.52 604.38,-504.91 561,-492.75 529.24,-483.84 514.45,-495.73 489,-474.75 408.13,-408.09 442.61,-216.53 393,-54 391.17,-47.99 388.52,-41.68 385.91,-36.09"/>
<text text-anchor="middle" x="433.38" y="-275.82" font-family="Times New Roman,serif" font-size="14.00">1</text>
</g>
<!-- nm0000458&#45;&#45;nm0000982 -->
<g id="edge48" class="edge">
<title>nm0000458&#45;&#45;nm0000982</title>
<path fill="none" stroke="black" d="M767.12,-533.39C803.91,-523.18 856.79,-504.57 895,-474.75 926.17,-450.42 950.41,-410.03 962.51,-387.17"/>
<text text-anchor="middle" x="932.38" y="-451.32" font-family="Times New Roman,serif" font-size="14.00">1</text>
</g>
<!-- nm0000982&#45;&#45;nm0749263 -->
<g id="edge59" class="edge">
<title>nm0000982&#45;&#45;nm0749263</title>
<path fill="none" stroke="black" d="M977.51,-350.92C992.74,-313.27 1034.37,-222.77 1099,-175.5 1155.32,-134.3 1235.73,-117.73 1287.65,-111.11"/>
<text text-anchor="middle" x="1047.38" y="-231.95" font-family="Times New Roman,serif" font-size="14.00">1</text>
</g>
<!-- nm0000982&#45;&#45;nm0424060 -->
<g id="edge63" class="edge">
<title>nm0000982&#45;&#45;nm0424060</title>
<path fill="none" stroke="black" d="M959.2,-351.2C935.6,-318.03 882.63,-245.92 857,-229.5 832.27,-213.66 800.6,-204.96 774.37,-200.2"/>
<text text-anchor="middle" x="924.38" y="-275.82" font-family="Times New Roman,serif" font-size="14.00">1</text>
</g>
<!-- nm0000982&#45;&#45;nm1107001 -->
<g id="edge62" class="edge">
<title>nm0000982&#45;&#45;nm1107001</title>
<path fill="none" stroke="black" d="M968.06,-350.75C963.55,-328.52 953.12,-289.59 932,-263.25 914.77,-241.75 903.3,-244.21 880,-229.5 740.52,-141.46 712.09,-97.55 553,-54 510.03,-42.24 460.15,-32.7 424.49,-26.56"/>
<text text-anchor="middle" x="853.38" y="-188.07" font-family="Times New Roman,serif" font-size="14.00">1</text>
</g>
<!-- nm0740264 -->
<g id="node26" class="node">
<title>nm0740264</title>
<ellipse fill="none" stroke="black" cx="1162" cy="-281.25" rx="53.56" ry="18"/>
<text text-anchor="middle" x="1162" y="-275.82" font-family="Times New Roman,serif" font-size="14.00">nm0740264</text>
</g>
<!-- nm0000982&#45;&#45;nm0740264 -->
<g id="edge60" class="edge">
<title>nm0000982&#45;&#45;nm0740264</title>
<path fill="none" stroke="black" d="M1017.61,-359.85C1042.37,-354.38 1072.81,-345.78 1098,-333 1115.58,-324.08 1132.93,-309.88 1145.13,-298.77"/>
<text text-anchor="middle" x="1125.38" y="-319.7" font-family="Times New Roman,serif" font-size="14.00">1</text>
</g>
<!-- nm0000604 -->
<g id="node27" class="node">
<title>nm0000604</title>
<ellipse fill="none" stroke="black" cx="1162" cy="-193.5" rx="53.56" ry="18"/>
<text text-anchor="middle" x="1162" y="-188.07" font-family="Times New Roman,serif" font-size="14.00">nm0000604</text>
</g>
<!-- nm0000982&#45;&#45;nm0000604 -->
<g id="edge61" class="edge">
<title>nm0000982&#45;&#45;nm0000604</title>
<path fill="none" stroke="black" d="M1010.59,-356.68C1024.8,-351.21 1040.22,-343.49 1052,-333 1078.73,-309.19 1070.36,-291.57 1092.25,-263.25 1107.43,-243.61 1127.98,-224.01 1142.84,-210.79"/>
<text text-anchor="middle" x="1095.38" y="-275.82" font-family="Times New Roman,serif" font-size="14.00">1</text>
</g>
<!-- nm0442207 -->
<g id="node25" class="node">
<title>nm0442207</title>
<ellipse fill="none" stroke="black" cx="1162" cy="-456.75" rx="53.56" ry="18"/>
<text text-anchor="middle" x="1162" y="-451.32" font-family="Times New Roman,serif" font-size="14.00">nm0442207</text>
</g>
<!-- nm0442207&#45;&#45;nm0000982 -->
<g id="edge34" class="edge">
<title>nm0442207&#45;&#45;nm0000982</title>
<path fill="none" stroke="black" d="M1130.89,-441.78C1095.37,-425.84 1037.61,-399.91 1002.1,-383.96"/>
<text text-anchor="middle" x="1086.38" y="-407.45" font-family="Times New Roman,serif" font-size="14.00">1</text>
</g>
<!-- nm0442207&#45;&#45;nm0740264 -->
<g id="edge32" class="edge">
<title>nm0442207&#45;&#45;nm0740264</title>
<path fill="none" stroke="black" d="M1162,-438.48C1162,-405.31 1162,-333.03 1162,-299.71"/>
<text text-anchor="middle" x="1165.38" y="-363.57" font-family="Times New Roman,serif" font-size="14.00">1</text>
</g>
<!-- nm0442207&#45;&#45;nm0000604 -->
<g id="edge33" class="edge">
<title>nm0442207&#45;&#45;nm0000604</title>
<path fill="none" stroke="black" d="M1175.26,-439.06C1200.29,-405.4 1249.85,-327.16 1225,-263.25 1216.61,-241.67 1197.93,-222.75 1183.08,-210.25"/>
<text text-anchor="middle" x="1233.38" y="-319.7" font-family="Times New Roman,serif" font-size="14.00">1</text>
</g>
<!-- nm0740264&#45;&#45;nm0000604 -->
<g id="edge64" class="edge">
<title>nm0740264&#45;&#45;nm0000604</title>
<path fill="none" stroke="black" d="M1162,-262.9C1162,-248.02 1162,-226.7 1162,-211.83"/>
<text text-anchor="middle" x="1165.38" y="-231.95" font-family="Times New Roman,serif" font-size="14.00">1</text>
</g>
</g>
</svg>
