<?xml version="1.0" encoding="UTF-8" standalone="no"?>
<!DOCTYPE svg PUBLIC "-//W3C//DTD SVG 1.1//EN"
 "http://www.w3.org/Graphics/SVG/1.1/DTD/svg11.dtd">
<!-- Generated by graphviz version 9.0.0 (20230911.1827)
 -->
<!-- Pages: 1 -->
<svg width="2021pt" height="746pt"
 viewBox="0.00 0.00 2021.34 746.00" xmlns="http://www.w3.org/2000/svg" xmlns:xlink="http://www.w3.org/1999/xlink">
<g id="graph0" class="graph" transform="scale(1 1) rotate(0) translate(4 742)">
<polygon fill="white" stroke="none" points="-4,4 -4,-742 2017.34,-742 2017.34,4 -4,4"/>
<!-- Jeff Bridges -->
<g id="node1" class="node">
<title>Jeff Bridges</title>
<ellipse fill="none" stroke="black" cx="564.59" cy="-720" rx="55.06" ry="18"/>
<text text-anchor="middle" x="564.59" y="-714.58" font-family="Times New Roman,serif" font-size="14.00">Jeff Bridges</text>
</g>
<!-- Robert Downey Jr. -->
<g id="node2" class="node">
<title>Robert Downey Jr.</title>
<ellipse fill="none" stroke="black" cx="826.59" cy="-632.25" rx="81.5" ry="18"/>
<text text-anchor="middle" x="826.59" y="-626.83" font-family="Times New Roman,serif" font-size="14.00">Robert Downey Jr.</text>
</g>
<!-- Jeff Bridges&#45;&#45;Robert Downey Jr. -->
<g id="edge1" class="edge">
<title>Jeff Bridges&#45;&#45;Robert Downey Jr.</title>
<path fill="none" stroke="black" d="M602.41,-706.62C650.03,-691.04 731.69,-664.31 782.21,-647.78"/>
<text text-anchor="middle" x="722.97" y="-670.7" font-family="Times New Roman,serif" font-size="14.00">1</text>
</g>
<!-- Terrence Howard -->
<g id="node3" class="node">
<title>Terrence Howard</title>
<ellipse fill="none" stroke="black" cx="611.59" cy="-369" rx="76.01" ry="18"/>
<text text-anchor="middle" x="611.59" y="-363.57" font-family="Times New Roman,serif" font-size="14.00">Terrence Howard</text>
</g>
<!-- Jeff Bridges&#45;&#45;Terrence Howard -->
<g id="edge2" class="edge">
<title>Jeff Bridges&#45;&#45;Terrence Howard</title>
<path fill="none" stroke="black" d="M543.6,-703.09C525.62,-687.48 502.59,-661.91 502.59,-633.25 502.59,-633.25 502.59,-633.25 502.59,-499.62 502.59,-471.28 505.34,-461.97 521.59,-438.75 537.26,-416.36 562.45,-398.01 582.2,-385.92"/>
<text text-anchor="middle" x="505.97" y="-539.08" font-family="Times New Roman,serif" font-size="14.00">1</text>
</g>
<!-- Samuel L. Jackson -->
<g id="node4" class="node">
<title>Samuel L. Jackson</title>
<ellipse fill="none" stroke="black" cx="611.59" cy="-456.75" rx="80.5" ry="18"/>
<text text-anchor="middle" x="611.59" y="-451.32" font-family="Times New Roman,serif" font-size="14.00">Samuel L. Jackson</text>
</g>
<!-- Jeff Bridges&#45;&#45;Samuel L. Jackson -->
<g id="edge3" class="edge">
<title>Jeff Bridges&#45;&#45;Samuel L. Jackson</title>
<path fill="none" stroke="black" d="M567.68,-701.86C576.19,-654.52 599.97,-522.37 608.5,-474.95"/>
<text text-anchor="middle" x="592.97" y="-582.95" font-family="Times New Roman,serif" font-size="14.00">1</text>
</g>
<!-- Robert Downey Jr.&#45;&#45;Terrence Howard -->
<g id="edge26" class="edge">
<title>Robert Downey Jr.&#45;&#45;Terrence Howard</title>
<path fill="none" stroke="black" d="M801.87,-614.95C795,-609.59 787.97,-603.2 782.59,-596.25 751.79,-556.44 760.58,-537.01 736.59,-492.75 722.97,-467.61 721.02,-459.74 701.59,-438.75 682.49,-418.12 656.65,-399.08 637.56,-386.3"/>
<text text-anchor="middle" x="747.97" y="-495.2" font-family="Times New Roman,serif" font-size="14.00">1</text>
</g>
<!-- Robert Downey Jr.&#45;&#45;Samuel L. Jackson -->
<g id="edge31" class="edge">
<title>Robert Downey Jr.&#45;&#45;Samuel L. Jackson</title>
<path fill="none" stroke="black" d="M783.6,-616.7C770.5,-611.29 756.44,-604.43 744.59,-596.25 693.3,-560.82 645.98,-503.25 624.19,-474.79"/>
<text text-anchor="middle" x="705.97" y="-539.08" font-family="Times New Roman,serif" font-size="14.00">3</text>
</g>
<!-- Stellan Skarsgård -->
<g id="node6" class="node">
<title>Stellan Skarsgård</title>
<ellipse fill="none" stroke="black" cx="1033.59" cy="-544.5" rx="75.02" ry="18"/>
<text text-anchor="middle" x="1033.59" y="-539.08" font-family="Times New Roman,serif" font-size="14.00">Stellan Skarsgård</text>
</g>
<!-- Robert Downey Jr.&#45;&#45;Stellan Skarsgård -->
<g id="edge24" class="edge">
<title>Robert Downey Jr.&#45;&#45;Stellan Skarsgård</title>
<path fill="none" stroke="black" d="M863.6,-615.92C901.39,-600.26 959.7,-576.11 997.25,-560.55"/>
<text text-anchor="middle" x="951.97" y="-582.95" font-family="Times New Roman,serif" font-size="14.00">1</text>
</g>
<!-- Mark Ruffalo -->
<g id="node7" class="node">
<title>Mark Ruffalo</title>
<ellipse fill="none" stroke="black" cx="1482.59" cy="-105.75" rx="60.54" ry="18"/>
<text text-anchor="middle" x="1482.59" y="-100.33" font-family="Times New Roman,serif" font-size="14.00">Mark Ruffalo</text>
</g>
<!-- Robert Downey Jr.&#45;&#45;Mark Ruffalo -->
<g id="edge27" class="edge">
<title>Robert Downey Jr.&#45;&#45;Mark Ruffalo</title>
<path fill="none" stroke="black" d="M906.95,-628.92C1078.19,-619.23 1463.59,-570.3 1463.59,-326.12 1463.59,-326.12 1463.59,-326.12 1463.59,-192.5 1463.59,-168.26 1470.92,-141.05 1476.48,-123.91"/>
<text text-anchor="middle" x="1463.97" y="-363.57" font-family="Times New Roman,serif" font-size="14.00">2</text>
</g>
<!-- Scarlett Johansson -->
<g id="node8" class="node">
<title>Scarlett Johansson</title>
<ellipse fill="none" stroke="black" cx="834.59" cy="-193.5" rx="80.01" ry="18"/>
<text text-anchor="middle" x="834.59" y="-188.07" font-family="Times New Roman,serif" font-size="14.00">Scarlett Johansson</text>
</g>
<!-- Robert Downey Jr.&#45;&#45;Scarlett Johansson -->
<g id="edge29" class="edge">
<title>Robert Downey Jr.&#45;&#45;Scarlett Johansson</title>
<path fill="none" stroke="black" d="M816.77,-614.13C808.02,-597.24 796.59,-570.42 796.59,-545.5 796.59,-545.5 796.59,-545.5 796.59,-411.88 796.59,-372.51 821.08,-256.27 830.74,-211.94"/>
<text text-anchor="middle" x="799.97" y="-407.45" font-family="Times New Roman,serif" font-size="14.00">2</text>
</g>
<!-- Anthony Mackie -->
<g id="node11" class="node">
<title>Anthony Mackie</title>
<ellipse fill="none" stroke="black" cx="369.59" cy="-18" rx="72.02" ry="18"/>
<text text-anchor="middle" x="369.59" y="-12.57" font-family="Times New Roman,serif" font-size="14.00">Anthony Mackie</text>
</g>
<!-- Robert Downey Jr.&#45;&#45;Anthony Mackie -->
<g id="edge30" class="edge">
<title>Robert Downey Jr.&#45;&#45;Anthony Mackie</title>
<path fill="none" stroke="black" d="M750.1,-625.75C582.91,-612.61 190.83,-575.4 77.59,-508.5 -29.38,-445.3 5.59,-362.62 5.59,-238.38 5.59,-238.38 5.59,-238.38 5.59,-104.75 5.59,-45.18 192.62,-26.95 298.55,-21.4"/>
<text text-anchor="middle" x="5.97" y="-319.7" font-family="Times New Roman,serif" font-size="14.00">1</text>
</g>
<!-- Josh Brolin -->
<g id="node23" class="node">
<title>Josh Brolin</title>
<ellipse fill="none" stroke="black" cx="1136.59" cy="-369" rx="52.56" ry="18"/>
<text text-anchor="middle" x="1136.59" y="-363.57" font-family="Times New Roman,serif" font-size="14.00">Josh Brolin</text>
</g>
<!-- Robert Downey Jr.&#45;&#45;Josh Brolin -->
<g id="edge25" class="edge">
<title>Robert Downey Jr.&#45;&#45;Josh Brolin</title>
<path fill="none" stroke="black" d="M899.03,-623.72C975.63,-614.15 1089.27,-594.88 1117.59,-562.5 1161.48,-512.32 1148.73,-424.22 1140.79,-387.18"/>
<text text-anchor="middle" x="1148.97" y="-495.2" font-family="Times New Roman,serif" font-size="14.00">1</text>
</g>
<!-- William Hurt -->
<g id="node24" class="node">
<title>William Hurt</title>
<ellipse fill="none" stroke="black" cx="882.59" cy="-544.5" rx="57.55" ry="18"/>
<text text-anchor="middle" x="882.59" y="-539.08" font-family="Times New Roman,serif" font-size="14.00">William Hurt</text>
</g>
<!-- Robert Downey Jr.&#45;&#45;William Hurt -->
<g id="edge28" class="edge">
<title>Robert Downey Jr.&#45;&#45;William Hurt</title>
<path fill="none" stroke="black" d="M837.66,-614.31C847.47,-599.28 861.74,-577.43 871.55,-562.41"/>
<text text-anchor="middle" x="862.97" y="-582.95" font-family="Times New Roman,serif" font-size="14.00">1</text>
</g>
<!-- Samuel L. Jackson&#45;&#45;Terrence Howard -->
<g id="edge53" class="edge">
<title>Samuel L. Jackson&#45;&#45;Terrence Howard</title>
<path fill="none" stroke="black" d="M611.59,-438.4C611.59,-423.52 611.59,-402.2 611.59,-387.33"/>
<text text-anchor="middle" x="614.97" y="-407.45" font-family="Times New Roman,serif" font-size="14.00">1</text>
</g>
<!-- Samuel L. Jackson&#45;&#45;Mark Ruffalo -->
<g id="edge55" class="edge">
<title>Samuel L. Jackson&#45;&#45;Mark Ruffalo</title>
<path fill="none" stroke="black" d="M683.59,-448.32C730.59,-442.46 786.93,-433.18 807.59,-420.75 946.51,-337.17 891.58,-200.74 1042.59,-141.75 1110.04,-115.4 1317.73,-108.88 1421.81,-107.27"/>
<text text-anchor="middle" x="926.97" y="-275.82" font-family="Times New Roman,serif" font-size="14.00">2</text>
</g>
<!-- Samuel L. Jackson&#45;&#45;Scarlett Johansson -->
<g id="edge56" class="edge">
<title>Samuel L. Jackson&#45;&#45;Scarlett Johansson</title>
<path fill="none" stroke="black" d="M639.59,-439.64C658.35,-427.46 682.17,-409.09 696.59,-387 736.27,-326.25 690.55,-282.98 739.59,-229.5 749.45,-218.75 762.91,-211.29 776.59,-206.12"/>
<text text-anchor="middle" x="718.97" y="-319.7" font-family="Times New Roman,serif" font-size="14.00">3</text>
</g>
<!-- Toby Jones -->
<g id="node10" class="node">
<title>Toby Jones</title>
<ellipse fill="none" stroke="black" cx="419.59" cy="-369" rx="54.56" ry="18"/>
<text text-anchor="middle" x="419.59" y="-363.57" font-family="Times New Roman,serif" font-size="14.00">Toby Jones</text>
</g>
<!-- Samuel L. Jackson&#45;&#45;Toby Jones -->
<g id="edge54" class="edge">
<title>Samuel L. Jackson&#45;&#45;Toby Jones</title>
<path fill="none" stroke="black" d="M554.63,-443.73C533.67,-438.19 510.11,-430.61 489.84,-420.75 471.04,-411.6 451.94,-397.43 438.42,-386.38"/>
<text text-anchor="middle" x="493.97" y="-407.45" font-family="Times New Roman,serif" font-size="14.00">1</text>
</g>
<!-- Samuel L. Jackson&#45;&#45;Anthony Mackie -->
<g id="edge57" class="edge">
<title>Samuel L. Jackson&#45;&#45;Anthony Mackie</title>
<path fill="none" stroke="black" d="M538.73,-448.83C459.83,-440.98 344.24,-428.3 337.59,-420.75 324.69,-406.09 358.63,-111.47 367.52,-36.32"/>
<text text-anchor="middle" x="349.97" y="-231.95" font-family="Times New Roman,serif" font-size="14.00">2</text>
</g>
<!-- Thomas Kretschmann -->
<g id="node12" class="node">
<title>Thomas Kretschmann</title>
<ellipse fill="none" stroke="black" cx="532.59" cy="-281.25" rx="92.48" ry="18"/>
<text text-anchor="middle" x="532.59" y="-275.82" font-family="Times New Roman,serif" font-size="14.00">Thomas Kretschmann</text>
</g>
<!-- Samuel L. Jackson&#45;&#45;Thomas Kretschmann -->
<g id="edge58" class="edge">
<title>Samuel L. Jackson&#45;&#45;Thomas Kretschmann</title>
<path fill="none" stroke="black" d="M577.07,-440.04C556.36,-428.57 531.78,-410.85 519.84,-387 505.75,-358.82 516.35,-321.22 524.82,-299.58"/>
<text text-anchor="middle" x="523.97" y="-363.57" font-family="Times New Roman,serif" font-size="14.00">1</text>
</g>
<!-- Samuel L. Jackson&#45;&#45;Josh Brolin -->
<g id="edge52" class="edge">
<title>Samuel L. Jackson&#45;&#45;Josh Brolin</title>
<path fill="none" stroke="black" d="M683.03,-448.12C738.66,-441.83 817.74,-432.1 886.59,-420.75 959.79,-408.68 1044.23,-390.68 1093.86,-379.67"/>
<text text-anchor="middle" x="971.97" y="-407.45" font-family="Times New Roman,serif" font-size="14.00">1</text>
</g>
<!-- Harry Dean Stanton -->
<g id="node5" class="node">
<title>Harry Dean Stanton</title>
<ellipse fill="none" stroke="black" cx="1143.59" cy="-720" rx="84" ry="18"/>
<text text-anchor="middle" x="1143.59" y="-714.58" font-family="Times New Roman,serif" font-size="14.00">Harry Dean Stanton</text>
</g>
<!-- Harry Dean Stanton&#45;&#45;Robert Downey Jr. -->
<g id="edge6" class="edge">
<title>Harry Dean Stanton&#45;&#45;Robert Downey Jr.</title>
<path fill="none" stroke="black" d="M1093.01,-705.32C1033.67,-689.26 935.88,-662.81 876.73,-646.81"/>
<text text-anchor="middle" x="1015.97" y="-670.7" font-family="Times New Roman,serif" font-size="14.00">1</text>
</g>
<!-- Harry Dean Stanton&#45;&#45;Samuel L. Jackson -->
<g id="edge8" class="edge">
<title>Harry Dean Stanton&#45;&#45;Samuel L. Jackson</title>
<path fill="none" stroke="black" d="M1066.72,-712.51C964.58,-702.79 790.59,-682.13 735.59,-650.25 666.46,-610.18 629.45,-514.36 616.73,-475.04"/>
<text text-anchor="middle" x="680.97" y="-582.95" font-family="Times New Roman,serif" font-size="14.00">1</text>
</g>
<!-- Harry Dean Stanton&#45;&#45;Stellan Skarsgård -->
<g id="edge4" class="edge">
<title>Harry Dean Stanton&#45;&#45;Stellan Skarsgård</title>
<path fill="none" stroke="black" d="M1132.64,-701.73C1111.56,-668.47 1065.55,-595.9 1044.5,-562.7"/>
<text text-anchor="middle" x="1101.97" y="-626.83" font-family="Times New Roman,serif" font-size="14.00">1</text>
</g>
<!-- Harry Dean Stanton&#45;&#45;Mark Ruffalo -->
<g id="edge5" class="edge">
<title>Harry Dean Stanton&#45;&#45;Mark Ruffalo</title>
<path fill="none" stroke="black" d="M1225.28,-715.67C1330.94,-709.1 1501.59,-689.73 1501.59,-633.25 1501.59,-633.25 1501.59,-633.25 1501.59,-192.5 1501.59,-168.26 1494.26,-141.05 1488.71,-123.91"/>
<text text-anchor="middle" x="1504.97" y="-407.45" font-family="Times New Roman,serif" font-size="14.00">1</text>
</g>
<!-- Harry Dean Stanton&#45;&#45;Scarlett Johansson -->
<g id="edge7" class="edge">
<title>Harry Dean Stanton&#45;&#45;Scarlett Johansson</title>
<path fill="none" stroke="black" d="M1149.42,-701.73C1161.57,-662.76 1186.1,-565.7 1156.59,-492.75 1149.94,-476.31 948.14,-274.71 934.59,-263.25 911.11,-243.38 881.89,-223.82 861.11,-210.67"/>
<text text-anchor="middle" x="1144.97" y="-451.32" font-family="Times New Roman,serif" font-size="14.00">1</text>
</g>
<!-- Stellan Skarsgård&#45;&#45;Samuel L. Jackson -->
<g id="edge42" class="edge">
<title>Stellan Skarsgård&#45;&#45;Samuel L. Jackson</title>
<path fill="none" stroke="black" d="M977.55,-532.11C897.4,-515.83 750.76,-486.03 669.56,-469.53"/>
<text text-anchor="middle" x="862.97" y="-495.2" font-family="Times New Roman,serif" font-size="14.00">1</text>
</g>
<!-- Stellan Skarsgård&#45;&#45;Mark Ruffalo -->
<g id="edge40" class="edge">
<title>Stellan Skarsgård&#45;&#45;Mark Ruffalo</title>
<path fill="none" stroke="black" d="M1103.77,-537.78C1190.33,-529.28 1330.59,-510.36 1367.59,-474.75 1477.42,-369.06 1376.69,-275.61 1449.59,-141.75 1453.27,-135 1458.56,-128.58 1463.84,-123.13"/>
<text text-anchor="middle" x="1425.97" y="-319.7" font-family="Times New Roman,serif" font-size="14.00">1</text>
</g>
<!-- Stellan Skarsgård&#45;&#45;Scarlett Johansson -->
<g id="edge41" class="edge">
<title>Stellan Skarsgård&#45;&#45;Scarlett Johansson</title>
<path fill="none" stroke="black" d="M1040.09,-526.33C1047.19,-504.53 1055.7,-466.43 1040.59,-438.75 1033.5,-425.77 1024.31,-429.79 1012.59,-420.75 995.03,-407.2 990.52,-403.62 975.84,-387 918.93,-322.58 915.99,-297.64 863.59,-229.5 858.98,-223.49 853.74,-217.07 849.01,-211.39"/>
<text text-anchor="middle" x="978.97" y="-363.57" font-family="Times New Roman,serif" font-size="14.00">1</text>
</g>
<!-- Mark Ruffalo&#45;&#45;Anthony Mackie -->
<g id="edge80" class="edge">
<title>Mark Ruffalo&#45;&#45;Anthony Mackie</title>
<path fill="none" stroke="black" d="M1426.8,-98.28C1334.5,-87.75 1144.16,-66.81 982.59,-54 786.27,-38.44 554.05,-27.11 439.99,-22.01"/>
<text text-anchor="middle" x="1150.97" y="-56.45" font-family="Times New Roman,serif" font-size="14.00">1</text>
</g>
<!-- Cate Blanchett -->
<g id="node20" class="node">
<title>Cate Blanchett</title>
<ellipse fill="none" stroke="black" cx="1893.59" cy="-18" rx="64.54" ry="18"/>
<text text-anchor="middle" x="1893.59" y="-12.57" font-family="Times New Roman,serif" font-size="14.00">Cate Blanchett</text>
</g>
<!-- Mark Ruffalo&#45;&#45;Cate Blanchett -->
<g id="edge81" class="edge">
<title>Mark Ruffalo&#45;&#45;Cate Blanchett</title>
<path fill="none" stroke="black" d="M1530.95,-94.66C1609.36,-78.3 1763.47,-46.15 1843.18,-29.52"/>
<text text-anchor="middle" x="1727.97" y="-56.45" font-family="Times New Roman,serif" font-size="14.00">1</text>
</g>
<!-- Scarlett Johansson&#45;&#45;Mark Ruffalo -->
<g id="edge75" class="edge">
<title>Scarlett Johansson&#45;&#45;Mark Ruffalo</title>
<path fill="none" stroke="black" d="M868.73,-176.88C896.23,-165.06 936.21,-149.57 972.84,-141.75 1057.1,-123.77 1306.99,-112.93 1422.63,-108.74"/>
<text text-anchor="middle" x="975.97" y="-144.2" font-family="Times New Roman,serif" font-size="14.00">2</text>
</g>
<!-- Scarlett Johansson&#45;&#45;Anthony Mackie -->
<g id="edge76" class="edge">
<title>Scarlett Johansson&#45;&#45;Anthony Mackie</title>
<path fill="none" stroke="black" d="M821.31,-175.71C796.28,-145.43 738.84,-82.22 674.59,-54 633.91,-36.13 516.82,-26.69 440.12,-22.28"/>
<text text-anchor="middle" x="775.97" y="-100.33" font-family="Times New Roman,serif" font-size="14.00">2</text>
</g>
<!-- Robert Redford -->
<g id="node9" class="node">
<title>Robert Redford</title>
<ellipse fill="none" stroke="black" cx="395.59" cy="-544.5" rx="70.52" ry="18"/>
<text text-anchor="middle" x="395.59" y="-539.08" font-family="Times New Roman,serif" font-size="14.00">Robert Redford</text>
</g>
<!-- Robert Redford&#45;&#45;Samuel L. Jackson -->
<g id="edge13" class="edge">
<title>Robert Redford&#45;&#45;Samuel L. Jackson</title>
<path fill="none" stroke="black" d="M432.72,-528.76C471.93,-513.2 533.43,-488.78 573.13,-473.02"/>
<text text-anchor="middle" x="526.97" y="-495.2" font-family="Times New Roman,serif" font-size="14.00">1</text>
</g>
<!-- Robert Redford&#45;&#45;Scarlett Johansson -->
<g id="edge10" class="edge">
<title>Robert Redford&#45;&#45;Scarlett Johansson</title>
<path fill="none" stroke="black" d="M447.57,-532.1C458.44,-529.99 469.86,-528 480.59,-526.5 505.54,-523.02 687.07,-524.42 706.59,-508.5 794.53,-436.77 724.49,-363.53 777.59,-263.25 787.97,-243.66 804.54,-224.5 817.14,-211.41"/>
<text text-anchor="middle" x="758.97" y="-363.57" font-family="Times New Roman,serif" font-size="14.00">1</text>
</g>
<!-- Robert Redford&#45;&#45;Toby Jones -->
<g id="edge9" class="edge">
<title>Robert Redford&#45;&#45;Toby Jones</title>
<path fill="none" stroke="black" d="M397.98,-526.23C402.57,-493.06 412.57,-420.78 417.18,-387.46"/>
<text text-anchor="middle" x="413.97" y="-451.32" font-family="Times New Roman,serif" font-size="14.00">1</text>
</g>
<!-- Robert Redford&#45;&#45;Anthony Mackie -->
<g id="edge11" class="edge">
<title>Robert Redford&#45;&#45;Anthony Mackie</title>
<path fill="none" stroke="black" d="M326.81,-540.24C226.42,-533.58 51.59,-513.91 51.59,-457.75 51.59,-457.75 51.59,-457.75 51.59,-324.12 51.59,-218.33 11.91,-169.06 79.59,-87.75 107.81,-53.85 227.08,-34.61 303.6,-25.54"/>
<text text-anchor="middle" x="54.97" y="-275.82" font-family="Times New Roman,serif" font-size="14.00">1</text>
</g>
<!-- Robert Redford&#45;&#45;Thomas Kretschmann -->
<g id="edge12" class="edge">
<title>Robert Redford&#45;&#45;Thomas Kretschmann</title>
<path fill="none" stroke="black" d="M384.15,-526.38C361.77,-490.57 317.62,-406.49 355.59,-351 378.31,-317.81 419.57,-300.64 456.55,-291.76"/>
<text text-anchor="middle" x="345.97" y="-407.45" font-family="Times New Roman,serif" font-size="14.00">1</text>
</g>
<!-- Toby Jones&#45;&#45;Scarlett Johansson -->
<g id="edge68" class="edge">
<title>Toby Jones&#45;&#45;Scarlett Johansson</title>
<path fill="none" stroke="black" d="M467.05,-359.67C512.38,-350.17 581.34,-331.61 633.59,-299.25 670.4,-276.46 664.19,-251.3 701.59,-229.5 722.22,-217.48 747.03,-209.51 769.6,-204.26"/>
<text text-anchor="middle" x="670.97" y="-275.82" font-family="Times New Roman,serif" font-size="14.00">1</text>
</g>
<!-- Toby Jones&#45;&#45;Anthony Mackie -->
<g id="edge69" class="edge">
<title>Toby Jones&#45;&#45;Anthony Mackie</title>
<path fill="none" stroke="black" d="M417.34,-350.63C415.29,-333.33 412.59,-306 412.59,-282.25 412.59,-282.25 412.59,-282.25 412.59,-104.75 412.59,-78.6 396.42,-52.28 383.91,-35.82"/>
<text text-anchor="middle" x="415.97" y="-188.07" font-family="Times New Roman,serif" font-size="14.00">1</text>
</g>
<!-- Toby Jones&#45;&#45;Thomas Kretschmann -->
<g id="edge70" class="edge">
<title>Toby Jones&#45;&#45;Thomas Kretschmann</title>
<path fill="none" stroke="black" d="M440.58,-352.07C460.5,-336.96 490.31,-314.34 510.56,-298.97"/>
<text text-anchor="middle" x="489.97" y="-319.7" font-family="Times New Roman,serif" font-size="14.00">1</text>
</g>
<!-- Thomas Kretschmann&#45;&#45;Scarlett Johansson -->
<g id="edge71" class="edge">
<title>Thomas Kretschmann&#45;&#45;Scarlett Johansson</title>
<path fill="none" stroke="black" d="M569.38,-264.28C595.61,-253.34 631.92,-239.14 664.84,-229.5 699.64,-219.31 739.29,-210.96 771.51,-204.97"/>
<text text-anchor="middle" x="668.97" y="-231.95" font-family="Times New Roman,serif" font-size="14.00">1</text>
</g>
<!-- Thomas Kretschmann&#45;&#45;Anthony Mackie -->
<g id="edge72" class="edge">
<title>Thomas Kretschmann&#45;&#45;Anthony Mackie</title>
<path fill="none" stroke="black" d="M528.23,-263.02C517.22,-222.43 484.97,-119.34 426.59,-54 419.71,-46.29 410.72,-39.71 401.93,-34.41"/>
<text text-anchor="middle" x="493.97" y="-144.2" font-family="Times New Roman,serif" font-size="14.00">1</text>
</g>
<!-- Michael Douglas -->
<g id="node13" class="node">
<title>Michael Douglas</title>
<ellipse fill="none" stroke="black" cx="197.59" cy="-369" rx="72.52" ry="18"/>
<text text-anchor="middle" x="197.59" y="-363.57" font-family="Times New Roman,serif" font-size="14.00">Michael Douglas</text>
</g>
<!-- Michael Douglas&#45;&#45;Anthony Mackie -->
<g id="edge14" class="edge">
<title>Michael Douglas&#45;&#45;Anthony Mackie</title>
<path fill="none" stroke="black" d="M234.32,-353.22C244.6,-347.89 255.24,-341.15 263.59,-333 275.92,-320.98 275.87,-315.1 282.59,-299.25 326.99,-194.55 318.21,-161.41 355.59,-54 357.62,-48.19 360.04,-41.93 362.3,-36.33"/>
<text text-anchor="middle" x="325.97" y="-188.07" font-family="Times New Roman,serif" font-size="14.00">1</text>
</g>
<!-- Judy Greer -->
<g id="node14" class="node">
<title>Judy Greer</title>
<ellipse fill="none" stroke="black" cx="140.59" cy="-105.75" rx="51.56" ry="18"/>
<text text-anchor="middle" x="140.59" y="-100.33" font-family="Times New Roman,serif" font-size="14.00">Judy Greer</text>
</g>
<!-- Michael Douglas&#45;&#45;Judy Greer -->
<g id="edge15" class="edge">
<title>Michael Douglas&#45;&#45;Judy Greer</title>
<path fill="none" stroke="black" d="M173.18,-351.65C157.18,-339.36 137.61,-320.96 128.59,-299.25 103.55,-238.95 123.62,-158.82 134.61,-124.06"/>
<text text-anchor="middle" x="120.97" y="-231.95" font-family="Times New Roman,serif" font-size="14.00">1</text>
</g>
<!-- Michael Peña -->
<g id="node15" class="node">
<title>Michael Peña</title>
<ellipse fill="none" stroke="black" cx="197.59" cy="-281.25" rx="60.05" ry="18"/>
<text text-anchor="middle" x="197.59" y="-275.82" font-family="Times New Roman,serif" font-size="14.00">Michael Peña</text>
</g>
<!-- Michael Douglas&#45;&#45;Michael Peña -->
<g id="edge16" class="edge">
<title>Michael Douglas&#45;&#45;Michael Peña</title>
<path fill="none" stroke="black" d="M197.59,-350.65C197.59,-335.77 197.59,-314.45 197.59,-299.58"/>
<text text-anchor="middle" x="200.97" y="-319.7" font-family="Times New Roman,serif" font-size="14.00">1</text>
</g>
<!-- Paul Rudd -->
<g id="node16" class="node">
<title>Paul Rudd</title>
<ellipse fill="none" stroke="black" cx="207.59" cy="-193.5" rx="50.07" ry="18"/>
<text text-anchor="middle" x="207.59" y="-188.07" font-family="Times New Roman,serif" font-size="14.00">Paul Rudd</text>
</g>
<!-- Michael Douglas&#45;&#45;Paul Rudd -->
<g id="edge17" class="edge">
<title>Michael Douglas&#45;&#45;Paul Rudd</title>
<path fill="none" stroke="black" d="M222.01,-351.65C238.01,-339.36 257.58,-320.96 266.59,-299.25 272.73,-284.47 272.15,-278.25 266.59,-263.25 258.73,-242.01 241.04,-222.91 227.07,-210.27"/>
<text text-anchor="middle" x="274.97" y="-275.82" font-family="Times New Roman,serif" font-size="14.00">1</text>
</g>
<!-- Judy Greer&#45;&#45;Anthony Mackie -->
<g id="edge84" class="edge">
<title>Judy Greer&#45;&#45;Anthony Mackie</title>
<path fill="none" stroke="black" d="M161.91,-88.96C177.94,-77.75 200.84,-63.14 222.84,-54 250.66,-42.45 283.1,-34.22 310.4,-28.65"/>
<text text-anchor="middle" x="226.97" y="-56.45" font-family="Times New Roman,serif" font-size="14.00">1</text>
</g>
<!-- Michael Peña&#45;&#45;Anthony Mackie -->
<g id="edge79" class="edge">
<title>Michael Peña&#45;&#45;Anthony Mackie</title>
<path fill="none" stroke="black" d="M218.67,-263.94C233.9,-251.15 253.95,-232.11 266.59,-211.5 305.06,-148.78 273.31,-112.76 317.59,-54 323.29,-46.44 331.12,-39.97 338.98,-34.74"/>
<text text-anchor="middle" x="292.97" y="-144.2" font-family="Times New Roman,serif" font-size="14.00">1</text>
</g>
<!-- Michael Peña&#45;&#45;Judy Greer -->
<g id="edge77" class="edge">
<title>Michael Peña&#45;&#45;Judy Greer</title>
<path fill="none" stroke="black" d="M178.68,-263.7C165.6,-250.93 149.26,-232.02 141.84,-211.5 131.28,-182.25 134.27,-145.34 137.42,-124.05"/>
<text text-anchor="middle" x="145.97" y="-188.07" font-family="Times New Roman,serif" font-size="14.00">1</text>
</g>
<!-- Michael Peña&#45;&#45;Paul Rudd -->
<g id="edge78" class="edge">
<title>Michael Peña&#45;&#45;Paul Rudd</title>
<path fill="none" stroke="black" d="M199.62,-262.9C201.35,-248.02 203.84,-226.7 205.57,-211.83"/>
<text text-anchor="middle" x="206.97" y="-231.95" font-family="Times New Roman,serif" font-size="14.00">1</text>
</g>
<!-- Paul Rudd&#45;&#45;Anthony Mackie -->
<g id="edge83" class="edge">
<title>Paul Rudd&#45;&#45;Anthony Mackie</title>
<path fill="none" stroke="black" d="M210.96,-175.49C217.55,-146.54 234.84,-87.6 271.59,-54 283.73,-42.91 299.62,-35.28 315.06,-30.05"/>
<text text-anchor="middle" x="247.97" y="-100.33" font-family="Times New Roman,serif" font-size="14.00">1</text>
</g>
<!-- Paul Rudd&#45;&#45;Judy Greer -->
<g id="edge82" class="edge">
<title>Paul Rudd&#45;&#45;Judy Greer</title>
<path fill="none" stroke="black" d="M194.67,-175.97C182.89,-160.88 165.55,-138.69 153.7,-123.53"/>
<text text-anchor="middle" x="183.97" y="-144.2" font-family="Times New Roman,serif" font-size="14.00">1</text>
</g>
<!-- Anthony Hopkins -->
<g id="node17" class="node">
<title>Anthony Hopkins</title>
<ellipse fill="none" stroke="black" cx="1666.59" cy="-544.5" rx="76.51" ry="18"/>
<text text-anchor="middle" x="1666.59" y="-539.08" font-family="Times New Roman,serif" font-size="14.00">Anthony Hopkins</text>
</g>
<!-- Anthony Hopkins&#45;&#45;Mark Ruffalo -->
<g id="edge18" class="edge">
<title>Anthony Hopkins&#45;&#45;Mark Ruffalo</title>
<path fill="none" stroke="black" d="M1615.3,-530.75C1580.06,-518.56 1539.59,-496.19 1539.59,-457.75 1539.59,-457.75 1539.59,-457.75 1539.59,-192.5 1539.59,-164.61 1518.43,-138.87 1501.89,-123.02"/>
<text text-anchor="middle" x="1542.97" y="-319.7" font-family="Times New Roman,serif" font-size="14.00">1</text>
</g>
<!-- Tadanobu Asano -->
<g id="node18" class="node">
<title>Tadanobu Asano</title>
<ellipse fill="none" stroke="black" cx="1761.59" cy="-193.5" rx="75.02" ry="18"/>
<text text-anchor="middle" x="1761.59" y="-188.07" font-family="Times New Roman,serif" font-size="14.00">Tadanobu Asano</text>
</g>
<!-- Anthony Hopkins&#45;&#45;Tadanobu Asano -->
<g id="edge19" class="edge">
<title>Anthony Hopkins&#45;&#45;Tadanobu Asano</title>
<path fill="none" stroke="black" d="M1736.56,-536.79C1804.94,-525.81 1903.45,-496.88 1936.59,-420.75 1953,-383.05 1964.96,-361.57 1824.59,-229.5 1816.39,-221.78 1806.17,-215.17 1796.36,-209.83"/>
<text text-anchor="middle" x="1948.97" y="-363.57" font-family="Times New Roman,serif" font-size="14.00">1</text>
</g>
<!-- Sam Neill -->
<g id="node19" class="node">
<title>Sam Neill</title>
<ellipse fill="none" stroke="black" cx="1732.59" cy="-369" rx="46.07" ry="18"/>
<text text-anchor="middle" x="1732.59" y="-363.57" font-family="Times New Roman,serif" font-size="14.00">Sam Neill</text>
</g>
<!-- Anthony Hopkins&#45;&#45;Sam Neill -->
<g id="edge20" class="edge">
<title>Anthony Hopkins&#45;&#45;Sam Neill</title>
<path fill="none" stroke="black" d="M1673.16,-526.23C1685.81,-492.97 1713.42,-420.4 1726.05,-387.2"/>
<text text-anchor="middle" x="1708.97" y="-451.32" font-family="Times New Roman,serif" font-size="14.00">1</text>
</g>
<!-- Anthony Hopkins&#45;&#45;Cate Blanchett -->
<g id="edge21" class="edge">
<title>Anthony Hopkins&#45;&#45;Cate Blanchett</title>
<path fill="none" stroke="black" d="M1740.79,-539.65C1840.83,-532.39 2006.59,-512.16 2006.59,-457.75 2006.59,-457.75 2006.59,-457.75 2006.59,-104.75 2006.59,-67.81 1967.8,-44.72 1935.67,-31.93"/>
<text text-anchor="middle" x="2009.97" y="-275.82" font-family="Times New Roman,serif" font-size="14.00">1</text>
</g>
<!-- Matt Damon -->
<g id="node21" class="node">
<title>Matt Damon</title>
<ellipse fill="none" stroke="black" cx="1761.59" cy="-281.25" rx="57.05" ry="18"/>
<text text-anchor="middle" x="1761.59" y="-275.82" font-family="Times New Roman,serif" font-size="14.00">Matt Damon</text>
</g>
<!-- Anthony Hopkins&#45;&#45;Matt Damon -->
<g id="edge22" class="edge">
<title>Anthony Hopkins&#45;&#45;Matt Damon</title>
<path fill="none" stroke="black" d="M1663.17,-526.1C1657.14,-490.83 1647.9,-409.32 1677.59,-351 1689.65,-327.32 1713.91,-308.87 1733.27,-297.07"/>
<text text-anchor="middle" x="1662.97" y="-407.45" font-family="Times New Roman,serif" font-size="14.00">1</text>
</g>
<!-- Jeff Goldblum -->
<g id="node22" class="node">
<title>Jeff Goldblum</title>
<ellipse fill="none" stroke="black" cx="1805.59" cy="-456.75" rx="64.04" ry="18"/>
<text text-anchor="middle" x="1805.59" y="-451.32" font-family="Times New Roman,serif" font-size="14.00">Jeff Goldblum</text>
</g>
<!-- Anthony Hopkins&#45;&#45;Jeff Goldblum -->
<g id="edge23" class="edge">
<title>Anthony Hopkins&#45;&#45;Jeff Goldblum</title>
<path fill="none" stroke="black" d="M1693.07,-527.17C1718.11,-511.72 1755.46,-488.68 1780.16,-473.44"/>
<text text-anchor="middle" x="1750.97" y="-495.2" font-family="Times New Roman,serif" font-size="14.00">1</text>
</g>
<!-- Tadanobu Asano&#45;&#45;Mark Ruffalo -->
<g id="edge73" class="edge">
<title>Tadanobu Asano&#45;&#45;Mark Ruffalo</title>
<path fill="none" stroke="black" d="M1738.11,-176.19C1720.76,-164.88 1696.15,-150.35 1672.59,-141.75 1629.43,-125.98 1578.05,-117.07 1539.61,-112.19"/>
<text text-anchor="middle" x="1708.97" y="-144.2" font-family="Times New Roman,serif" font-size="14.00">1</text>
</g>
<!-- Tadanobu Asano&#45;&#45;Cate Blanchett -->
<g id="edge74" class="edge">
<title>Tadanobu Asano&#45;&#45;Cate Blanchett</title>
<path fill="none" stroke="black" d="M1770.2,-175.55C1784.57,-148.2 1815.36,-93.42 1850.59,-54 1856.62,-47.25 1864.02,-40.74 1870.97,-35.2"/>
<text text-anchor="middle" x="1825.97" y="-100.33" font-family="Times New Roman,serif" font-size="14.00">1</text>
</g>
<!-- Sam Neill&#45;&#45;Mark Ruffalo -->
<g id="edge43" class="edge">
<title>Sam Neill&#45;&#45;Mark Ruffalo</title>
<path fill="none" stroke="black" d="M1699.74,-355.98C1673.49,-344.88 1637.45,-326.03 1614.59,-299.25 1565.87,-242.15 1604.27,-197.13 1553.59,-141.75 1544.96,-132.32 1533.23,-125.12 1521.8,-119.78"/>
<text text-anchor="middle" x="1590.97" y="-231.95" font-family="Times New Roman,serif" font-size="14.00">1</text>
</g>
<!-- Sam Neill&#45;&#45;Tadanobu Asano -->
<g id="edge44" class="edge">
<title>Sam Neill&#45;&#45;Tadanobu Asano</title>
<path fill="none" stroke="black" d="M1717.22,-351.62C1699.79,-330.97 1675.43,-294.38 1688.84,-263.25 1698.33,-241.23 1718.73,-222.97 1735.52,-210.82"/>
<text text-anchor="middle" x="1691.97" y="-275.82" font-family="Times New Roman,serif" font-size="14.00">1</text>
</g>
<!-- Sam Neill&#45;&#45;Cate Blanchett -->
<g id="edge45" class="edge">
<title>Sam Neill&#45;&#45;Cate Blanchett</title>
<path fill="none" stroke="black" d="M1758.86,-354.06C1779.74,-341.9 1808.51,-322.56 1827.59,-299.25 1880.79,-234.27 1878.52,-205.53 1897.59,-123.75 1904.67,-93.41 1909.32,-84.8 1904.59,-54 1903.69,-48.08 1901.96,-41.79 1900.14,-36.2"/>
<text text-anchor="middle" x="1888.97" y="-188.07" font-family="Times New Roman,serif" font-size="14.00">1</text>
</g>
<!-- Sam Neill&#45;&#45;Matt Damon -->
<g id="edge46" class="edge">
<title>Sam Neill&#45;&#45;Matt Damon</title>
<path fill="none" stroke="black" d="M1738.32,-351.06C1743.37,-336.12 1750.7,-314.46 1755.78,-299.45"/>
<text text-anchor="middle" x="1752.97" y="-319.7" font-family="Times New Roman,serif" font-size="14.00">1</text>
</g>
<!-- Matt Damon&#45;&#45;Mark Ruffalo -->
<g id="edge65" class="edge">
<title>Matt Damon&#45;&#45;Mark Ruffalo</title>
<path fill="none" stroke="black" d="M1739.61,-264.3C1721.01,-250.64 1693.8,-230.26 1670.84,-211.5 1634.51,-181.81 1632.4,-164.91 1591.59,-141.75 1572.58,-130.96 1549.78,-122.98 1529.96,-117.39"/>
<text text-anchor="middle" x="1673.97" y="-188.07" font-family="Times New Roman,serif" font-size="14.00">1</text>
</g>
<!-- Matt Damon&#45;&#45;Tadanobu Asano -->
<g id="edge66" class="edge">
<title>Matt Damon&#45;&#45;Tadanobu Asano</title>
<path fill="none" stroke="black" d="M1761.59,-262.9C1761.59,-248.02 1761.59,-226.7 1761.59,-211.83"/>
<text text-anchor="middle" x="1764.97" y="-231.95" font-family="Times New Roman,serif" font-size="14.00">1</text>
</g>
<!-- Matt Damon&#45;&#45;Cate Blanchett -->
<g id="edge67" class="edge">
<title>Matt Damon&#45;&#45;Cate Blanchett</title>
<path fill="none" stroke="black" d="M1788.21,-264.94C1806.99,-252.79 1831.27,-234.11 1845.59,-211.5 1881.72,-154.47 1890.66,-71.93 1892.87,-36.37"/>
<text text-anchor="middle" x="1877.97" y="-144.2" font-family="Times New Roman,serif" font-size="14.00">1</text>
</g>
<!-- Jeff Goldblum&#45;&#45;Mark Ruffalo -->
<g id="edge35" class="edge">
<title>Jeff Goldblum&#45;&#45;Mark Ruffalo</title>
<path fill="none" stroke="black" d="M1761.59,-443.39C1733.08,-433.04 1697.64,-415.3 1677.59,-387 1612.67,-295.35 1711.35,-202.07 1616.59,-141.75 1593.17,-126.84 1563.6,-118.26 1538.21,-113.33"/>
<text text-anchor="middle" x="1659.97" y="-275.82" font-family="Times New Roman,serif" font-size="14.00">1</text>
</g>
<!-- Jeff Goldblum&#45;&#45;Tadanobu Asano -->
<g id="edge36" class="edge">
<title>Jeff Goldblum&#45;&#45;Tadanobu Asano</title>
<path fill="none" stroke="black" d="M1812.92,-438.53C1826.5,-403.94 1852.08,-324.1 1827.59,-263.25 1819.01,-241.91 1800.29,-223.48 1784.97,-211.08"/>
<text text-anchor="middle" x="1840.97" y="-319.7" font-family="Times New Roman,serif" font-size="14.00">1</text>
</g>
<!-- Jeff Goldblum&#45;&#45;Sam Neill -->
<g id="edge37" class="edge">
<title>Jeff Goldblum&#45;&#45;Sam Neill</title>
<path fill="none" stroke="black" d="M1791.17,-438.81C1778.29,-423.68 1759.53,-401.64 1746.74,-386.61"/>
<text text-anchor="middle" x="1778.97" y="-407.45" font-family="Times New Roman,serif" font-size="14.00">1</text>
</g>
<!-- Jeff Goldblum&#45;&#45;Cate Blanchett -->
<g id="edge38" class="edge">
<title>Jeff Goldblum&#45;&#45;Cate Blanchett</title>
<path fill="none" stroke="black" d="M1828.46,-439.5C1871.58,-406.76 1960.59,-328.29 1960.59,-238.38 1960.59,-238.38 1960.59,-238.38 1960.59,-104.75 1960.59,-75.66 1936.35,-50.53 1917.03,-35.13"/>
<text text-anchor="middle" x="1963.97" y="-231.95" font-family="Times New Roman,serif" font-size="14.00">1</text>
</g>
<!-- Jeff Goldblum&#45;&#45;Matt Damon -->
<g id="edge39" class="edge">
<title>Jeff Goldblum&#45;&#45;Matt Damon</title>
<path fill="none" stroke="black" d="M1803.65,-438.48C1801.07,-417.53 1795.84,-381.27 1787.59,-351 1782.7,-333.02 1774.93,-313.19 1769.16,-299.46"/>
<text text-anchor="middle" x="1797.97" y="-363.57" font-family="Times New Roman,serif" font-size="14.00">1</text>
</g>
<!-- Josh Brolin&#45;&#45;Mark Ruffalo -->
<g id="edge60" class="edge">
<title>Josh Brolin&#45;&#45;Mark Ruffalo</title>
<path fill="none" stroke="black" d="M1138.56,-350.77C1143.85,-312.82 1161.98,-221.75 1217.59,-175.5 1275.7,-127.18 1363.85,-112.36 1422.31,-108.07"/>
<text text-anchor="middle" x="1177.97" y="-231.95" font-family="Times New Roman,serif" font-size="14.00">1</text>
</g>
<!-- Josh Brolin&#45;&#45;Scarlett Johansson -->
<g id="edge61" class="edge">
<title>Josh Brolin&#45;&#45;Scarlett Johansson</title>
<path fill="none" stroke="black" d="M1117.41,-352.11C1110.66,-346.28 1103.13,-339.52 1096.59,-333 1053.23,-289.74 1058.57,-260.24 1005.59,-229.5 977.02,-212.92 941.78,-204.12 910.73,-199.47"/>
<text text-anchor="middle" x="1071.97" y="-275.82" font-family="Times New Roman,serif" font-size="14.00">1</text>
</g>
<!-- Josh Brolin&#45;&#45;Anthony Mackie -->
<g id="edge62" class="edge">
<title>Josh Brolin&#45;&#45;Anthony Mackie</title>
<path fill="none" stroke="black" d="M1129.16,-350.73C1119.45,-329.15 1101.11,-291.62 1079.59,-263.25 1032.77,-201.52 1020.49,-182.49 954.59,-141.75 791.3,-40.79 558.51,-21.64 441.95,-18.79"/>
<text text-anchor="middle" x="1041.97" y="-188.07" font-family="Times New Roman,serif" font-size="14.00">1</text>
</g>
<!-- Michael Rooker -->
<g id="node26" class="node">
<title>Michael Rooker</title>
<ellipse fill="none" stroke="black" cx="1289.59" cy="-281.25" rx="70.03" ry="18"/>
<text text-anchor="middle" x="1289.59" y="-275.82" font-family="Times New Roman,serif" font-size="14.00">Michael Rooker</text>
</g>
<!-- Josh Brolin&#45;&#45;Michael Rooker -->
<g id="edge59" class="edge">
<title>Josh Brolin&#45;&#45;Michael Rooker</title>
<path fill="none" stroke="black" d="M1167.09,-354.06C1180.05,-347.92 1195.22,-340.41 1208.59,-333 1228.04,-322.22 1249.32,-308.82 1265.19,-298.5"/>
<text text-anchor="middle" x="1235.97" y="-319.7" font-family="Times New Roman,serif" font-size="14.00">1</text>
</g>
<!-- John C. Reilly -->
<g id="node27" class="node">
<title>John C. Reilly</title>
<ellipse fill="none" stroke="black" cx="1289.59" cy="-193.5" rx="63.04" ry="18"/>
<text text-anchor="middle" x="1289.59" y="-188.07" font-family="Times New Roman,serif" font-size="14.00">John C. Reilly</text>
</g>
<!-- Josh Brolin&#45;&#45;John C. Reilly -->
<g id="edge63" class="edge">
<title>Josh Brolin&#45;&#45;John C. Reilly</title>
<path fill="none" stroke="black" d="M1149.65,-351.17C1153.91,-345.49 1158.57,-339.05 1162.59,-333 1182.53,-303 1180.24,-290.46 1203.84,-263.25 1221.85,-242.49 1246.73,-223.34 1265.05,-210.54"/>
<text text-anchor="middle" x="1206.97" y="-275.82" font-family="Times New Roman,serif" font-size="14.00">1</text>
</g>
<!-- William Hurt&#45;&#45;Samuel L. Jackson -->
<g id="edge51" class="edge">
<title>William Hurt&#45;&#45;Samuel L. Jackson</title>
<path fill="none" stroke="black" d="M833.83,-534.66C803.53,-528.59 763.98,-519.64 729.84,-508.5 700.11,-498.8 667.53,-484.53 644.11,-473.59"/>
<text text-anchor="middle" x="733.97" y="-495.2" font-family="Times New Roman,serif" font-size="14.00">1</text>
</g>
<!-- William Hurt&#45;&#45;Mark Ruffalo -->
<g id="edge48" class="edge">
<title>William Hurt&#45;&#45;Mark Ruffalo</title>
<path fill="none" stroke="black" d="M895.04,-526.68C915.52,-498.59 957.02,-439.98 986.59,-387 1016.11,-334.12 1003.75,-308.85 1043.59,-263.25 1111.27,-185.78 1143.33,-175.24 1240.59,-141.75 1300.5,-121.12 1372.81,-112.65 1422.7,-109.17"/>
<text text-anchor="middle" x="1015.97" y="-319.7" font-family="Times New Roman,serif" font-size="14.00">1</text>
</g>
<!-- William Hurt&#45;&#45;Scarlett Johansson -->
<g id="edge49" class="edge">
<title>William Hurt&#45;&#45;Scarlett Johansson</title>
<path fill="none" stroke="black" d="M882.36,-526.19C881.38,-478.29 876.17,-340.17 848.59,-229.5 847.11,-223.53 844.82,-217.23 842.53,-211.64"/>
<text text-anchor="middle" x="876.97" y="-363.57" font-family="Times New Roman,serif" font-size="14.00">1</text>
</g>
<!-- William Hurt&#45;&#45;Anthony Mackie -->
<g id="edge50" class="edge">
<title>William Hurt&#45;&#45;Anthony Mackie</title>
<path fill="none" stroke="black" d="M874.39,-526.4C861.39,-499.76 834.72,-447.05 807.59,-405 686.3,-216.94 634.58,-175.41 446.59,-54 434.5,-46.19 420.39,-39.23 407.57,-33.62"/>
<text text-anchor="middle" x="737.97" y="-275.82" font-family="Times New Roman,serif" font-size="14.00">1</text>
</g>
<!-- William Hurt&#45;&#45;Josh Brolin -->
<g id="edge47" class="edge">
<title>William Hurt&#45;&#45;Josh Brolin</title>
<path fill="none" stroke="black" d="M927.83,-533.01C947.07,-527.41 969.25,-519.38 987.59,-508.5 1017.29,-490.89 1088.52,-419.4 1120.54,-386.6"/>
<text text-anchor="middle" x="1070.97" y="-451.32" font-family="Times New Roman,serif" font-size="14.00">1</text>
</g>
<!-- Lloyd Kaufman -->
<g id="node25" class="node">
<title>Lloyd Kaufman</title>
<ellipse fill="none" stroke="black" cx="1289.59" cy="-456.75" rx="68.53" ry="18"/>
<text text-anchor="middle" x="1289.59" y="-451.32" font-family="Times New Roman,serif" font-size="14.00">Lloyd Kaufman</text>
</g>
<!-- Lloyd Kaufman&#45;&#45;Josh Brolin -->
<g id="edge32" class="edge">
<title>Lloyd Kaufman&#45;&#45;Josh Brolin</title>
<path fill="none" stroke="black" d="M1261.53,-440.02C1233.49,-424.31 1190.71,-400.33 1163.2,-384.91"/>
<text text-anchor="middle" x="1229.97" y="-407.45" font-family="Times New Roman,serif" font-size="14.00">1</text>
</g>
<!-- Lloyd Kaufman&#45;&#45;Michael Rooker -->
<g id="edge33" class="edge">
<title>Lloyd Kaufman&#45;&#45;Michael Rooker</title>
<path fill="none" stroke="black" d="M1289.59,-438.48C1289.59,-405.31 1289.59,-333.03 1289.59,-299.71"/>
<text text-anchor="middle" x="1292.97" y="-363.57" font-family="Times New Roman,serif" font-size="14.00">1</text>
</g>
<!-- Lloyd Kaufman&#45;&#45;John C. Reilly -->
<g id="edge34" class="edge">
<title>Lloyd Kaufman&#45;&#45;John C. Reilly</title>
<path fill="none" stroke="black" d="M1301.44,-438.95C1320.1,-411.36 1355.55,-354.02 1368.59,-299.25 1372.3,-283.69 1375.22,-277.81 1368.59,-263.25 1358.12,-240.25 1335.73,-221.96 1317.45,-210.04"/>
<text text-anchor="middle" x="1365.97" y="-319.7" font-family="Times New Roman,serif" font-size="14.00">1</text>
</g>
<!-- Michael Rooker&#45;&#45;John C. Reilly -->
<g id="edge64" class="edge">
<title>Michael Rooker&#45;&#45;John C. Reilly</title>
<path fill="none" stroke="black" d="M1289.59,-262.9C1289.59,-248.02 1289.59,-226.7 1289.59,-211.83"/>
<text text-anchor="middle" x="1292.97" y="-231.95" font-family="Times New Roman,serif" font-size="14.00">1</text>
</g>
</g>
</svg>
